<?xml version="1.0" standalone="no"?>
<!DOCTYPE svg PUBLIC "-//W3C//DTD SVG 20010904//EN"
 "http://www.w3.org/TR/2001/REC-SVG-20010904/DTD/svg10.dtd">
<svg version="1.0" xmlns="http://www.w3.org/2000/svg"
 width="123.000000pt" height="123.000000pt" viewBox="0 0 123.000000 123.000000"
 preserveAspectRatio="xMidYMid meet">
<metadata>
Created by potrace 1.14, written by Peter Selinger 2001-2017
</metadata>
<g transform="translate(0.000000,123.000000) scale(0.100000,-0.100000)"
fill="#000000" stroke="none">
<path d="M220 630 l0 -470 400 0 400 0 0 196 0 197 -102 -7 c-57 -3 -169 -9
-250 -12 l-148 -7 0 31 0 31 133 -5 c72 -3 151 -6 175 -8 l42 -4 0 60 0 60
-175 -7 -175 -7 0 30 0 30 108 -4 c59 -2 164 -6 235 -8 l127 -4 0 189 0 189
-385 0 -385 0 0 -470z"/>
</g>
</svg>
