<svg xmlns="http://www.w3.org/2000/svg" width="137" height="137" viewBox="0 0 137 137">
  <g id="Groupe_72" data-name="Groupe 72" transform="translate(-186 794)">
    <rect id="Rectangle_35" data-name="Rectangle 35" width="137" height="137" transform="translate(186 -794)" fill="#fff"/>
    <g id="PICTO" transform="translate(192.813 -784.099)">
      <path id="Tracé_11" data-name="Tracé 11" d="M78.607,136.922h78.371c-.38,1.9-.679,3.721-1.113,5.511q-5.422,22.325-10.884,44.64c-.564,2.314-.545,2.251-2.876,2.249q-22.005-.025-44.01,0c-1.64,0-3.286.03-4.916-.1a1.666,1.666,0,0,1-1.165-.99c-2.864-10.725-5.665-21.467-8.491-32.2C81.94,150,80.33,143.986,78.739,137.965a8.4,8.4,0,0,1-.132-1.043m39.2,3.294v.005h-11.25q-10.969,0-21.938,0c-.828,0-1.544-.015-1.21,1.205q2.17,7.922,4.277,15.861c2.37,8.918,4.764,17.83,7.034,26.773.388,1.528,1.2,1.787,2.491,1.781q9.7-.046,19.406-.047c7.687,0,15.375,0,23.062.053,1.291.008,1.95-.364,2.186-1.73.343-1.98.911-3.921,1.384-5.879q4.391-18.166,8.785-36.33c.379-1.565.3-1.686-1.322-1.687q-16.453,0-32.906,0" transform="translate(-39.75 -78.245)" fill="#122e63"/>
      <path id="Tracé_12" data-name="Tracé 12" d="M146.042,82.025c.74-2.108,1.28-3.952,2.024-5.709,2.066-4.876,6.121-7.6,10.779-9.508a29.6,29.6,0,0,0,10.648-7.848,119.52,119.52,0,0,0,13.132-17.881,6.636,6.636,0,0,0,.412-2.49,6.625,6.625,0,0,1,.18-1.633c.665-1.592,1.431-3.141,2.274-4.956l11.874,5.772c-.854,2.03-1.627,4.121-2.633,6.094-.266.523-1.215.837-1.9.971-1.2.233-1.629.938-1.978,2.03a62.607,62.607,0,0,1-2.7,7.377c-3.146,6.777-3.612,13.905-3.036,21.187a53.485,53.485,0,0,0,.871,5.693c.152.8-.156,1.054-.838,1.059-.936.006-1.872-.047-2.809-.048q-17.294-.019-34.588-.033c-.494,0-.988-.043-1.709-.077m5.311-3.75H181.6c-.069-1.139-.124-2.116-.186-3.092a57.2,57.2,0,0,1,.6-14.02c1.237-6.764,4.647-12.732,6.989-19.09.13-.351.613-.629.992-.82.908-.456,1.852-.84,2.782-1.254l-.056-.482c-1.58-.768-3.132-1.608-4.755-2.269-.668-.272-1.542.136-1.1.979.9,1.71.028,2.934-.73,4.29a102.213,102.213,0,0,1-13.572,18.746,33.3,33.3,0,0,1-12.637,9.115c-3.749,1.458-6.973,3.779-8.567,7.9" transform="translate(-73.85 -25.189)" fill="#122e63"/>
      <path id="Tracé_50" data-name="Tracé 50" d="M43.677,113.194c-1.887,0-3.6,0-5.321,0s-1.794.174-1.271,1.775c1,3.074,2.3,6.11,2.8,9.268.291,1.821-.619,3.884-1.2,5.772a4.375,4.375,0,0,1-1.624,2.242c-1.532.992-1.567,2.339-1.545,3.9.108,7.839.13,15.68.227,23.52.027,2.155.1,2.128,2.155,2.544,1.7.345,3.38.745,5.057,1.169a1.162,1.162,0,0,1,.681.6,2.1,2.1,0,0,1-2.121,3.06c-9.189-.014-18.378.016-27.567.024-3.8,0-7.6-.025-11.394-.012A1.953,1.953,0,0,1,.426,165.83c-.509-1.28-.167-2.126,1.165-2.469,1.359-.349,2.734-.663,4.118-.886.755-.122,1.043-.423,1.041-1.178-.025-8.922-.023-17.844-.076-26.766,0-.365-.44-.757-.733-1.085s-.72-.564-1-.911C1.352,128.094.07,122.87.006,117.3a79.137,79.137,0,0,1,2.349-20.5,13.275,13.275,0,0,1,.534-1.567c.635-1.572.526-1.859,1.971-1.822,3.795.1,7.595.061,11.392.022a1.993,1.993,0,0,1,2.264,1.888c.719,3.485,1.751,6.913,2.334,10.418a50.494,50.494,0,0,1,.365,16.665c-.72,4.324-2.33,8.15-6.066,10.869a3.923,3.923,0,0,0-1.035,2.837c-.01,6.008.125,12.016.207,18.023.026,1.878.1,3.759.024,5.634a1.9,1.9,0,0,0,1.312,2.052,16.215,16.215,0,0,0,10.979.738,1.878,1.878,0,0,0,1.086-1.227,20.164,20.164,0,0,0,.348-3.777c.03-7.325,0-14.652.03-21.978a3.408,3.408,0,0,0-1.278-2.863c-2.544-2.293-3.413-5.5-4.079-8.76a40.291,40.291,0,0,1-.134-13.039C23.2,106.092,24.1,101.3,24.865,96.5c.022-.139.06-.275.084-.414.437-2.609.437-2.61,3.058-2.614,3.7-.006,7.406.009,11.108-.03A1.424,1.424,0,0,1,40.8,94.8c.818,4.329,1.8,8.627,2.577,12.963a44.589,44.589,0,0,1,.3,5.426M10.233,97.067l0-.027a29.367,29.367,0,0,1-3.365-.032c-.81-.094-.947.21-1.041.882-.68,4.913-1.581,9.8-2.037,14.737s-.237,9.847,2.077,14.421a8.879,8.879,0,0,0,3.593,4.019A2.079,2.079,0,0,0,11.934,131a13.222,13.222,0,0,0,5.483-8.822c1.3-8.083.254-15.974-1.939-23.761A1.966,1.966,0,0,0,14.15,97.29a34.012,34.012,0,0,0-3.917-.223m29.673,12.2c-.769-3.811-1.519-7.52-2.264-11.23-.162-.8-.663-.982-1.431-.961-2.156.057-4.315.085-6.47.022-.98-.029-1.337.377-1.458,1.267-.768,5.617-1.764,11.213-2.268,16.853a24.2,24.2,0,0,0,1.768,12.142,11.51,11.51,0,0,0,2.2,3.2,2.342,2.342,0,0,0,3.2.359,6.877,6.877,0,0,0,2.718-7.18c-1.216-4.134-2.465-8.259-3.713-12.382-.527-1.741-.3-2.075,1.535-2.087,1.955-.012,3.909,0,6.191,0m-8.146,53.1.358.007V142.29h-.358ZM10.79,142.279h-.342v20.289h.342Z" transform="translate(0 -56.246)" fill="#122e63"/>
    </g>
  </g>
</svg>
