<?xml version="1.0" encoding="UTF-8"?>
<svg id="Calque_2" data-name="Calque 2" xmlns="http://www.w3.org/2000/svg" viewBox="0 0 2372.589 642.668">
  <defs>
    <style>
      .cls-1 {
        fill: none;
        isolation: isolate;
      }

      .cls-2 {
        fill: #231c4d;
      }
    </style>
  </defs>
  <g id="Calque_2-2" data-name="Calque 2">
    <g class="cls-1">
      <path class="cls-2" d="m511.489,260.588l-312.525-8.803v36.096l230.652-8.803v79.224l-230.652-8.803v37.867l331.895-15.847v257.945H0V13.204h511.489v247.384Z"/>
      <path class="cls-2" d="m913.811,642.668c-109.16,0-195.435-26.267-258.824-78.8-63.389-52.508-95.077-133.066-95.077-241.649,0-109.173,31.977-190.167,95.956-242.983C719.833,26.408,806.697,0,916.454,0c72.769,0,140.265,8.803,202.486,26.408l-15.847,286.996c-21.128-12.319-48.864-22.289-83.195-29.924-34.332-7.622-68.817-11.446-103.444-11.446-103.88,0-155.823,16.142-155.823,48.414,0,19.376,14.224,32.439,42.698,39.176,28.461,6.762,70.569,10.124,126.329,10.124,36.975,0,74.091-4.401,111.367-13.204,37.264-8.803,67.046-19.941,89.361-33.453l1.758,291.398c-61.625,18.786-134.407,28.179-218.333,28.179Z"/>
      <path class="cls-2" d="m1705.264,13.204l2.637,272.034-191.919-8.803,42.255,353.029h-235.939l41.383-353.029-191.04,8.803,1.758-272.034h530.865Z"/>
      <path class="cls-2" d="m2284.55,558.158c-58.693,56.332-135.876,84.51-231.537,84.51s-172.851-28.179-231.537-84.51c-58.693-56.344-88.033-135.581-88.033-237.709s29.186-181.044,87.596-236.811C1879.43,27.884,1956.755,0,2053.013,0s173.569,27.884,231.98,83.638c58.391,55.767,87.596,134.696,87.596,236.811s-29.359,181.365-88.039,237.709Zm-316.933-192.811c21.134,10.573,49.589,15.847,85.396,15.847s64.268-5.274,85.396-15.847c21.128-10.561,31.695-25.227,31.695-44.013s-10.567-33.453-31.695-44.013c-21.128-10.573-49.601-15.847-85.396-15.847s-64.262,5.274-85.396,15.847c-21.128,10.561-31.688,25.24-31.688,44.013s10.561,33.453,31.688,44.013Z"/>
    </g>
  </g>
</svg>