<svg xmlns="http://www.w3.org/2000/svg" xmlns:xlink="http://www.w3.org/1999/xlink" width="242.176" height="204.442" viewBox="0 0 242.176 204.442"><defs><filter id="a"><feOffset dy="3" input="SourceAlpha"/><feGaussianBlur stdDeviation="3" result="b"/><feFlood flood-opacity="0.161" result="c"/><feComposite operator="out" in="SourceGraphic" in2="b"/><feComposite operator="in" in="c"/><feComposite operator="in" in2="SourceGraphic"/></filter><filter id="d"><feOffset dy="3" input="SourceAlpha"/><feGaussianBlur stdDeviation="3" result="e"/><feFlood flood-opacity="0.161" result="f"/><feComposite operator="out" in="SourceGraphic" in2="e"/><feComposite operator="in" in="f"/><feComposite operator="in" in2="SourceGraphic"/></filter><filter id="g"><feOffset dy="3" input="SourceAlpha"/><feGaussianBlur stdDeviation="3" result="h"/><feFlood flood-opacity="0.161" result="i"/><feComposite operator="out" in="SourceGraphic" in2="h"/><feComposite operator="in" in="i"/><feComposite operator="in" in2="SourceGraphic"/></filter></defs><g transform="translate(-1477.077 -528.874)" opacity="0.28"><g data-type="innerShadowGroup"><path d="M78.607,136.922H232.27c-.744,3.72-1.331,7.3-2.183,10.806q-10.632,43.772-21.339,87.526c-1.106,4.537-1.069,4.414-5.638,4.409q-43.146-.049-86.291,0c-3.216,0-6.442.058-9.639-.205a3.266,3.266,0,0,1-2.284-1.941c-5.615-21.029-11.107-42.092-16.647-63.141-3.107-11.808-6.264-23.6-9.383-35.409a16.465,16.465,0,0,1-.259-2.045m76.86,6.458v.011q-11.029,0-22.058,0-21.507,0-43.013-.009c-1.623,0-3.027-.029-2.372,2.363q4.254,15.533,8.387,31.1c4.646,17.486,9.34,34.959,13.791,52.495.76,3,2.352,3.5,4.884,3.492q19.025-.09,38.05-.093c15.072,0,30.146,0,45.218.1,2.532.016,3.824-.713,4.287-3.391.672-3.883,1.785-7.689,2.713-11.527q8.61-35.618,17.225-71.234c.742-3.069.588-3.306-2.593-3.307q-32.259-.006-64.52,0" transform="translate(1474.658 493.645)" fill="#fff"/><g transform="matrix(1, 0, 0, 1, 1477.08, 528.87)" filter="url(#a)"><path d="M78.607,136.922H232.27c-.744,3.72-1.331,7.3-2.183,10.806q-10.632,43.772-21.339,87.526c-1.106,4.537-1.069,4.414-5.638,4.409q-43.146-.049-86.291,0c-3.216,0-6.442.058-9.639-.205a3.266,3.266,0,0,1-2.284-1.941c-5.615-21.029-11.107-42.092-16.647-63.141-3.107-11.808-6.264-23.6-9.383-35.409a16.465,16.465,0,0,1-.259-2.045m76.86,6.458v.011q-11.029,0-22.058,0-21.507,0-43.013-.009c-1.623,0-3.027-.029-2.372,2.363q4.254,15.533,8.387,31.1c4.646,17.486,9.34,34.959,13.791,52.495.76,3,2.352,3.5,4.884,3.492q19.025-.09,38.05-.093c15.072,0,30.146,0,45.218.1,2.532.016,3.824-.713,4.287-3.391.672-3.883,1.785-7.689,2.713-11.527q8.61-35.618,17.225-71.234c.742-3.069.588-3.306-2.593-3.307q-32.259-.006-64.52,0" transform="translate(-2.42 -35.23)" fill="#fff"/></g></g><g data-type="innerShadowGroup"><path d="M146.042,130.085c1.451-4.133,2.509-7.749,3.969-11.195,4.051-9.56,12-14.893,21.135-18.643,8.289-3.4,14.929-8.849,20.877-15.388,9.812-10.789,18.116-22.682,25.748-35.059.8-1.3.589-3.236.807-4.882a12.985,12.985,0,0,1,.353-3.2c1.3-3.121,2.806-6.159,4.458-9.717l23.281,11.317C245,47.3,243.48,51.4,241.509,55.265c-.522,1.024-2.381,1.642-3.732,1.9-2.353.457-3.194,1.84-3.878,3.981a122.771,122.771,0,0,1-5.292,14.465c-6.168,13.287-7.083,27.264-5.952,41.541a104.88,104.88,0,0,0,1.709,11.163c.3,1.573-.306,2.066-1.644,2.076-1.836.013-3.671-.093-5.508-.095q-33.908-.038-67.818-.064c-.968,0-1.936-.085-3.352-.151m10.413-7.353h59.3c-.135-2.234-.243-4.149-.365-6.064a112.158,112.158,0,0,1,1.167-27.488c2.426-13.263,9.112-24.964,13.7-37.431.254-.689,1.2-1.233,1.945-1.607,1.781-.895,3.632-1.648,5.455-2.458l-.11-.945c-3.1-1.506-6.14-3.152-9.323-4.45-1.309-.534-3.024.267-2.155,1.92,1.765,3.353.054,5.753-1.431,8.412a200.412,200.412,0,0,1-26.61,36.756c-6.957,7.683-14.881,14.026-24.777,17.872-7.351,2.858-13.672,7.409-16.8,15.482" transform="translate(1472.582 496.874)" fill="#fff"/><g transform="matrix(1, 0, 0, 1, 1477.08, 528.87)" filter="url(#d)"><path d="M146.042,130.085c1.451-4.133,2.509-7.749,3.969-11.195,4.051-9.56,12-14.893,21.135-18.643,8.289-3.4,14.929-8.849,20.877-15.388,9.812-10.789,18.116-22.682,25.748-35.059.8-1.3.589-3.236.807-4.882a12.985,12.985,0,0,1,.353-3.2c1.3-3.121,2.806-6.159,4.458-9.717l23.281,11.317C245,47.3,243.48,51.4,241.509,55.265c-.522,1.024-2.381,1.642-3.732,1.9-2.353.457-3.194,1.84-3.878,3.981a122.771,122.771,0,0,1-5.292,14.465c-6.168,13.287-7.083,27.264-5.952,41.541a104.88,104.88,0,0,0,1.709,11.163c.3,1.573-.306,2.066-1.644,2.076-1.836.013-3.671-.093-5.508-.095q-33.908-.038-67.818-.064c-.968,0-1.936-.085-3.352-.151m10.413-7.353h59.3c-.135-2.234-.243-4.149-.365-6.064a112.158,112.158,0,0,1,1.167-27.488c2.426-13.263,9.112-24.964,13.7-37.431.254-.689,1.2-1.233,1.945-1.607,1.781-.895,3.632-1.648,5.455-2.458l-.11-.945c-3.1-1.506-6.14-3.152-9.323-4.45-1.309-.534-3.024.267-2.155,1.92,1.765,3.353.054,5.753-1.431,8.412a200.412,200.412,0,0,1-26.61,36.756c-6.957,7.683-14.881,14.026-24.777,17.872-7.351,2.858-13.672,7.409-16.8,15.482" transform="translate(-4.49 -32)" fill="#fff"/></g></g><g data-type="innerShadowGroup"><path d="M85.639,132.195c-3.7,0-7.067,0-10.433,0-3.345.007-3.518.342-2.493,3.48,1.969,6.027,4.5,11.98,5.492,18.172.57,3.571-1.213,7.615-2.355,11.318a8.577,8.577,0,0,1-3.184,4.4c-3,1.945-3.071,4.585-3.029,7.646.212,15.371.254,30.745.446,46.116.052,4.226.205,4.172,4.225,4.989,3.323.676,6.627,1.461,9.915,2.292a2.279,2.279,0,0,1,1.336,1.181c1.382,3.3-.636,6-4.159,6-18.017-.028-36.035.032-54.052.047-7.447.006-14.893-.049-22.34-.023-1.911.007-3.391-.44-4.173-2.408-1-2.51-.328-4.169,2.284-4.84,2.665-.685,5.36-1.3,8.075-1.737,1.48-.238,2.044-.83,2.04-2.31-.048-17.494-.046-34.987-.148-52.48,0-.716-.863-1.484-1.436-2.126s-1.412-1.106-1.961-1.785C2.651,161.411.138,151.168.012,140.251a155.166,155.166,0,0,1,4.6-40.185,26.024,26.024,0,0,1,1.047-3.072c1.245-3.082,1.031-3.644,3.865-3.572,7.441.191,14.891.12,22.336.044,2.662-.028,3.893,1.056,4.44,3.7,1.41,6.833,3.434,13.555,4.577,20.427,1.8,10.821,2.536,21.758.716,32.676-1.412,8.478-4.569,15.98-11.894,21.311-1.344.977-2.027,3.664-2.03,5.562-.02,11.779.245,23.559.405,35.338.05,3.682.191,7.37.047,11.046a3.72,3.72,0,0,0,2.572,4.024A31.794,31.794,0,0,0,52.225,229a3.682,3.682,0,0,0,2.128-2.407,39.535,39.535,0,0,0,.682-7.4c.059-14.363.009-28.728.058-43.092a6.682,6.682,0,0,0-2.506-5.614c-4.989-4.5-6.693-10.778-8-17.177-1.738-8.52-1.3-17.076-.264-25.565,1.158-9.467,2.923-18.859,4.426-28.283.044-.272.117-.54.164-.812.858-5.115.857-5.117,6-5.125,7.261-.013,14.521.018,21.78-.058,1.97-.02,2.918.59,3.313,2.681,1.6,8.489,3.536,16.915,5.053,25.417.588,3.3.394,6.738.582,10.638m-65.575-31.62,0-.052a57.583,57.583,0,0,1-6.6-.063c-1.588-.184-1.857.411-2.04,1.73-1.333,9.633-3.1,19.224-3.994,28.9-.893,9.651-.464,19.308,4.072,28.275a17.41,17.41,0,0,0,7.045,7.881,4.076,4.076,0,0,0,4.857-.14,25.924,25.924,0,0,0,10.75-17.3c2.553-15.849.5-31.32-3.8-46.588a3.855,3.855,0,0,0-2.6-2.2,66.7,66.7,0,0,0-7.68-.438M78.244,124.5c-1.507-7.473-2.977-14.745-4.439-22.018-.317-1.578-1.3-1.925-2.806-1.885-4.227.111-8.46.167-12.686.044-1.922-.056-2.621.74-2.859,2.484-1.505,11.013-3.459,21.985-4.448,33.043-.722,8.066.083,16.236,3.466,23.806a22.569,22.569,0,0,0,4.3,6.273,4.593,4.593,0,0,0,6.27.7c4.321-2.874,6.777-9.151,5.329-14.077-2.383-8.106-4.833-16.193-7.281-24.278-1.034-3.413-.592-4.068,3.01-4.091,3.832-.023,7.665,0,12.14,0M62.271,228.607l.7.014V189.245l-.7,0ZM21.155,189.224h-.671V229h.671Z" transform="translate(1477.077 494.984)" fill="#fff"/><g transform="matrix(1, 0, 0, 1, 1477.08, 528.87)" filter="url(#g)"><path d="M85.639,132.195c-3.7,0-7.067,0-10.433,0-3.345.007-3.518.342-2.493,3.48,1.969,6.027,4.5,11.98,5.492,18.172.57,3.571-1.213,7.615-2.355,11.318a8.577,8.577,0,0,1-3.184,4.4c-3,1.945-3.071,4.585-3.029,7.646.212,15.371.254,30.745.446,46.116.052,4.226.205,4.172,4.225,4.989,3.323.676,6.627,1.461,9.915,2.292a2.279,2.279,0,0,1,1.336,1.181c1.382,3.3-.636,6-4.159,6-18.017-.028-36.035.032-54.052.047-7.447.006-14.893-.049-22.34-.023-1.911.007-3.391-.44-4.173-2.408-1-2.51-.328-4.169,2.284-4.84,2.665-.685,5.36-1.3,8.075-1.737,1.48-.238,2.044-.83,2.04-2.31-.048-17.494-.046-34.987-.148-52.48,0-.716-.863-1.484-1.436-2.126s-1.412-1.106-1.961-1.785C2.651,161.411.138,151.168.012,140.251a155.166,155.166,0,0,1,4.6-40.185,26.024,26.024,0,0,1,1.047-3.072c1.245-3.082,1.031-3.644,3.865-3.572,7.441.191,14.891.12,22.336.044,2.662-.028,3.893,1.056,4.44,3.7,1.41,6.833,3.434,13.555,4.577,20.427,1.8,10.821,2.536,21.758.716,32.676-1.412,8.478-4.569,15.98-11.894,21.311-1.344.977-2.027,3.664-2.03,5.562-.02,11.779.245,23.559.405,35.338.05,3.682.191,7.37.047,11.046a3.72,3.72,0,0,0,2.572,4.024A31.794,31.794,0,0,0,52.225,229a3.682,3.682,0,0,0,2.128-2.407,39.535,39.535,0,0,0,.682-7.4c.059-14.363.009-28.728.058-43.092a6.682,6.682,0,0,0-2.506-5.614c-4.989-4.5-6.693-10.778-8-17.177-1.738-8.52-1.3-17.076-.264-25.565,1.158-9.467,2.923-18.859,4.426-28.283.044-.272.117-.54.164-.812.858-5.115.857-5.117,6-5.125,7.261-.013,14.521.018,21.78-.058,1.97-.02,2.918.59,3.313,2.681,1.6,8.489,3.536,16.915,5.053,25.417.588,3.3.394,6.738.582,10.638m-65.575-31.62,0-.052a57.583,57.583,0,0,1-6.6-.063c-1.588-.184-1.857.411-2.04,1.73-1.333,9.633-3.1,19.224-3.994,28.9-.893,9.651-.464,19.308,4.072,28.275a17.41,17.41,0,0,0,7.045,7.881,4.076,4.076,0,0,0,4.857-.14,25.924,25.924,0,0,0,10.75-17.3c2.553-15.849.5-31.32-3.8-46.588a3.855,3.855,0,0,0-2.6-2.2,66.7,66.7,0,0,0-7.68-.438M78.244,124.5c-1.507-7.473-2.977-14.745-4.439-22.018-.317-1.578-1.3-1.925-2.806-1.885-4.227.111-8.46.167-12.686.044-1.922-.056-2.621.74-2.859,2.484-1.505,11.013-3.459,21.985-4.448,33.043-.722,8.066.083,16.236,3.466,23.806a22.569,22.569,0,0,0,4.3,6.273,4.593,4.593,0,0,0,6.27.7c4.321-2.874,6.777-9.151,5.329-14.077-2.383-8.106-4.833-16.193-7.281-24.278-1.034-3.413-.592-4.068,3.01-4.091,3.832-.023,7.665,0,12.14,0M62.271,228.607l.7.014V189.245l-.7,0ZM21.155,189.224h-.671V229h.671Z" transform="translate(0 -33.89)" fill="#fff"/></g></g></g></svg>