<svg xmlns="http://www.w3.org/2000/svg" width="567.635" height="479.189" viewBox="0 0 567.635 479.189"><g transform="translate(-103 -401)" style="isolation:isolate"><path d="M78.607,136.922h360.17c-1.745,8.719-3.119,17.1-5.116,25.328q-24.92,102.6-50.017,205.152c-2.592,10.634-2.506,10.346-13.215,10.334q-101.129-.116-202.258,0c-7.538,0-15.1.136-22.593-.482-1.951-.161-4.839-2.624-5.352-4.551-13.16-49.291-26.034-98.659-39.02-148-7.283-27.677-14.682-55.325-21.993-82.995a38.59,38.59,0,0,1-.607-4.793m180.151,15.137v.025q-25.85,0-51.7,0-50.409,0-100.819-.02c-3.805,0-7.095-.068-5.559,5.539q9.971,36.407,19.658,72.892c10.891,40.985,21.893,81.941,32.325,123.042,1.781,7.022,5.514,8.215,11.447,8.185q44.592-.211,89.185-.218c35.328,0,70.659,0,105.987.243,5.934.039,8.962-1.672,10.048-7.949,1.574-9.1,4.185-18.022,6.359-27.018q20.18-83.484,40.374-166.964c1.74-7.193,1.379-7.749-6.077-7.752q-75.612-.014-151.227,0" transform="translate(202.97 502.437)" fill="#122e63"/><path d="M146.042,261.9c3.4-9.687,5.882-18.163,9.3-26.239,9.5-22.409,28.129-34.908,49.538-43.7,19.428-7.976,34.992-20.741,48.934-36.069,23-25.287,42.461-53.164,60.352-82.175,1.879-3.046,1.381-7.585,1.892-11.443.329-2.5-.1-5.277.827-7.5,3.056-7.315,6.577-14.437,10.45-22.775l54.568,26.525c-3.923,9.328-7.479,18.94-12.1,28.006-1.224,2.4-5.582,3.848-8.749,4.464-5.516,1.072-7.488,4.312-9.089,9.33-3.655,11.461-7.351,23.022-12.4,33.9-14.457,31.144-16.6,63.905-13.951,97.368a245.825,245.825,0,0,0,4.005,26.164c.7,3.687-.718,4.843-3.853,4.866-4.3.029-8.605-.218-12.91-.223q-79.477-.089-158.958-.15c-2.27,0-4.539-.2-7.856-.354m24.408-17.234H309.439c-.316-5.236-.57-9.725-.856-14.212-1.381-21.573-1.172-43.073,2.735-64.43,5.686-31.087,21.357-58.512,32.12-87.734.6-1.615,2.817-2.89,4.559-3.767,4.173-2.1,8.512-3.862,12.786-5.761l-.259-2.215c-7.263-3.53-14.391-7.388-21.852-10.43-3.069-1.252-7.088.627-5.05,4.5,4.137,7.858.127,13.485-3.353,19.717A469.746,469.746,0,0,1,267.9,166.489c-16.307,18.008-34.88,32.875-58.075,41.889-17.229,6.7-32.046,17.365-39.372,36.289" transform="translate(288.729 369)" fill="#122e63"/><path d="M200.729,184.31c-8.671,0-16.563-.011-24.453,0-7.84.016-8.247.8-5.843,8.156,4.616,14.126,10.552,28.079,12.872,42.594,1.336,8.369-2.844,17.849-5.52,26.527a20.1,20.1,0,0,1-7.463,10.3c-7.04,4.559-7.2,10.748-7.1,17.922.5,36.028.6,72.063,1.045,108.091.123,9.905.482,9.778,9.9,11.693,7.79,1.583,15.532,3.424,23.24,5.373a5.34,5.34,0,0,1,3.13,2.767c3.24,7.733-1.49,14.074-9.748,14.062-42.23-.066-84.462.075-126.692.109-17.454.014-34.908-.114-52.362-.054-4.48.016-7.949-1.031-9.782-5.643-2.338-5.884-.768-9.771,5.355-11.345,6.247-1.606,12.563-3.046,18.926-4.071,3.469-.559,4.791-1.945,4.782-5.414-.114-41-.107-82.006-.348-123.007-.011-1.679-2.022-3.478-3.367-4.984-1.374-1.538-3.31-2.592-4.6-4.185C6.213,252.788.323,228.78.027,203.193A363.692,363.692,0,0,1,10.82,109a61,61,0,0,1,2.454-7.2c2.919-7.224,2.417-8.542,9.06-8.371,17.44.448,34.9.282,52.353.1,6.238-.066,9.126,2.474,10.407,8.676,3.305,16.016,8.049,31.771,10.727,47.878,4.219,25.364,5.945,51,1.679,76.588-3.31,19.871-10.709,37.455-27.879,49.95-3.151,2.29-4.75,8.587-4.757,13.038-.048,27.609.575,55.22.95,82.829.118,8.631.448,17.275.111,25.892-.191,4.927,1.781,7.628,6.029,9.432a74.522,74.522,0,0,0,50.456,3.39c2.09-.584,4.564-3.46,4.989-5.641a92.667,92.667,0,0,0,1.6-17.356c.139-33.665.02-67.335.136-101,.018-5.446-1.4-9.124-5.875-13.158-11.693-10.539-15.687-25.262-18.747-40.26-4.073-19.969-3.053-40.024-.618-59.923,2.715-22.188,6.852-44.2,10.375-66.293.1-.638.275-1.265.384-1.9,2.011-11.988,2.008-11.993,14.053-12.013,17.018-.029,34.036.043,51.051-.136,4.618-.048,6.84,1.384,7.765,6.284,3.758,19.9,8.287,39.647,11.843,59.575,1.379,7.733.922,15.793,1.363,24.935M47.028,110.2l-.011-.123c-5.161,0-10.373.443-15.466-.148-3.721-.432-4.353.963-4.782,4.055-3.124,22.579-7.267,45.058-9.362,67.728-2.092,22.62-1.088,45.256,9.544,66.274,3.871,7.654,8.83,14.26,16.513,18.472,3.873,2.122,7.46,2.572,11.384-.329,13.8-10.2,22.438-23.436,25.2-40.544,5.984-37.148,1.165-73.41-8.912-109.2-.618-2.195-3.789-4.787-6.1-5.161-5.9-.954-11.988-.761-18-1.027M183.4,166.274c-3.533-17.516-6.979-34.561-10.4-51.608-.743-3.7-3.046-4.512-6.577-4.419-9.907.261-19.83.391-29.735.1-4.5-.132-6.143,1.733-6.7,5.823-3.528,25.814-8.108,51.531-10.425,77.449-1.692,18.906.2,38.055,8.124,55.8a52.9,52.9,0,0,0,10.089,14.7c3.926,4.094,9.255,5.273,14.7,1.652,10.128-6.736,15.884-21.45,12.49-33-5.586-19-11.327-37.954-17.066-56.906-2.424-8-1.388-9.535,7.056-9.589,8.983-.055,17.965-.011,28.454-.011M145.956,410.29q.825.017,1.647.032V318.029l-1.647-.007ZM49.586,317.979H48.014v93.243h1.572Z" transform="translate(103 447.107)" fill="#122e63"/></g></svg>