<svg xmlns="http://www.w3.org/2000/svg" width="355" height="45.042" viewBox="0 0 355 45.042">
  <g id="LOGO" transform="translate(0 -12.816)">
    <g id="Groupe_37" data-name="Groupe 37" transform="translate(0 6.005)">
      <g id="FOOUET_LOCA" data-name="FOOUET LOCA" transform="translate(0 -9.098)">
        <path id="Tracé_13" data-name="Tracé 13" d="M290.353,53.893h17.2l.331,6.882h-.6a10.649,10.649,0,0,0-2.829-4.864,7.516,7.516,0,0,0-4.781-1.29h-.926V65.373h1.489a3.437,3.437,0,0,0,2.647-1.158,6.446,6.446,0,0,0,1.456-3.176h.5v9.793h-.562a7.867,7.867,0,0,0-1.472-3.54,3.26,3.26,0,0,0-2.564-1.059h-1.489V76.324h4.1v.728H290.353v-.728h1.952v-21.7h-1.952Z" transform="translate(-229.353 -36.958)" fill="#fff"/>
        <path id="Tracé_14" data-name="Tracé 14" d="M356.768,93.714a8.215,8.215,0,0,1-2.118-6.071,7.957,7.957,0,0,1,2.267-6.088,8.929,8.929,0,0,1,6.369-2.134q4.1,0,6.12,1.969t2.018,6q0,8.437-8.4,8.437-4.136,0-6.253-2.117m8.3-4.731V86.17a22.5,22.5,0,0,0-.347-4.681q-.347-1.471-1.6-1.472a1.66,1.66,0,0,0-1.174.414A2.539,2.539,0,0,0,361.3,81.8a25.194,25.194,0,0,0-.3,4.533v2.58a23.51,23.51,0,0,0,.215,4.334,7.367,7.367,0,0,0,.447,1.191,1.41,1.41,0,0,0,1.423.794,1.691,1.691,0,0,0,1.687-1.489,22.847,22.847,0,0,0,.3-4.764" transform="translate(-275.817 -55.406)" fill="#fff"/>
        <path id="Tracé_15" data-name="Tracé 15" d="M437.306,96.362h-7.543l-.364-2.415a4.328,4.328,0,0,1-1.571,2.035,5.507,5.507,0,0,1-3.093.711q-5.129,0-5.128-5.525V81.209h-1.853v-.6h8.007V91.962a7.686,7.686,0,0,0,.281,2.614,1.107,1.107,0,0,0,1.125.628,1.844,1.844,0,0,0,1.505-1.025,5.223,5.223,0,0,0,.661-2.845V81.209h-1.522v-.6h7.676V95.767h1.82Z" transform="translate(-321.418 -56.268)" fill="#fff"/>
        <path id="Tracé_16" data-name="Tracé 16" d="M493.367,93.631a8.423,8.423,0,0,1-2.134-6.121,7.525,7.525,0,0,1,2.4-6,8.97,8.97,0,0,1,6.1-2.084q7.51,0,7.213,7.543h-9.33v1.29a11.314,11.314,0,0,0,.827,4.9,2.947,2.947,0,0,0,2.878,1.654q3.838,0,5.029-4.1l.6.1a6.839,6.839,0,0,1-2.267,3.705,7.7,7.7,0,0,1-4.913,1.323q-4.268,0-6.4-2.2m4.284-7.328h3.408V84.682a13.972,13.972,0,0,0-.315-3.656,1.239,1.239,0,0,0-1.257-.976,1.47,1.47,0,0,0-1.39,1.042,10.079,10.079,0,0,0-.447,3.59Z" transform="translate(-374.518 -55.406)" fill="#fff"/>
        <path id="Tracé_17" data-name="Tracé 17" d="M553.411,76.545V66.123h-1.82v-.6h1.82V61.26l6.154-1.522v5.79h4.3v.6h-4.3v11.15a6.126,6.126,0,0,0,.314,2.283,1.273,1.273,0,0,0,1.307.728,2.146,2.146,0,0,0,1.737-.992,5.749,5.749,0,0,0,.976-2.713l.562.066a6.42,6.42,0,0,1-1.456,3.623,5.039,5.039,0,0,1-3.937,1.34,6.91,6.91,0,0,1-4.2-1.092q-1.457-1.092-1.456-3.97" transform="translate(-418.136 -41.182)" fill="#fff"/>
        <path id="Tracé_18" data-name="Tracé 18" d="M621.969,53.893h11.91v.728h-3.507v21.7h1.191a5.961,5.961,0,0,0,4.483-1.72,20.435,20.435,0,0,0,3.391-5.294h.7l-.629,7.742H621.969v-.728h1.952v-21.7h-1.952Z" transform="translate(-468.994 -36.958)" fill="#fff"/>
        <path id="Tracé_19" data-name="Tracé 19" d="M694.824,93.714a8.215,8.215,0,0,1-2.118-6.071,7.956,7.956,0,0,1,2.267-6.088,8.927,8.927,0,0,1,6.369-2.134q4.1,0,6.121,1.969t2.018,6q0,8.437-8.4,8.437-4.136,0-6.253-2.117m8.3-4.731V86.17a22.526,22.526,0,0,0-.347-4.681q-.348-1.471-1.6-1.472A1.66,1.66,0,0,0,700,80.43a2.539,2.539,0,0,0-.646,1.373,25.2,25.2,0,0,0-.3,4.533v2.58a23.5,23.5,0,0,0,.215,4.334,7.369,7.369,0,0,0,.447,1.191,1.41,1.41,0,0,0,1.423.794,1.691,1.691,0,0,0,1.687-1.489,22.849,22.849,0,0,0,.3-4.764" transform="translate(-520.112 -55.406)" fill="#fff"/>
        <path id="Tracé_20" data-name="Tracé 20" d="M766.219,80.016a2.161,2.161,0,0,0-2.085,1.588,15.651,15.651,0,0,0-.628,5.26v1.72a11.025,11.025,0,0,0,.728,4.7,2.733,2.733,0,0,0,2.68,1.423,3.924,3.924,0,0,0,3.11-1.323,6.364,6.364,0,0,0,1.489-3.011l.6.066a6.678,6.678,0,0,1-2.316,4.1,7.728,7.728,0,0,1-4.731,1.29,7.93,7.93,0,0,1-5.889-2.068q-2.052-2.067-2.052-6.055a7.933,7.933,0,0,1,2.333-6.137,9.232,9.232,0,0,1,6.5-2.15,7.532,7.532,0,0,1,4.5,1.141,3.431,3.431,0,0,1,1.555,2.862,3.586,3.586,0,0,1-.745,2.514,2.674,2.674,0,0,1-2.051.794,3.074,3.074,0,0,1-2.1-.695,2.58,2.58,0,0,1-.794-2.051,4.415,4.415,0,0,1,.166-1.191h1.092a3.666,3.666,0,0,0,.232-1.191,1.4,1.4,0,0,0-1.588-1.588" transform="translate(-566.661 -55.406)" fill="#fff"/>
        <path id="Tracé_21" data-name="Tracé 21" d="M822.942,87.724h.959V85.177a16.428,16.428,0,0,0-.348-4.218,1.341,1.341,0,0,0-1.34-1.075,1.92,1.92,0,0,0-1.075.314.979.979,0,0,0-.48.86,3.309,3.309,0,0,0,.2,1.108h.827a4.7,4.7,0,0,1,.265,1.671,2.161,2.161,0,0,1-.827,1.687,3.082,3.082,0,0,1-2.084.711q-2.846,0-2.845-2.746,0-4.069,6.915-4.069,3.937,0,5.442,1.34t1.505,4.913v6.716q0,1.721.959,1.72,1.125,0,1.323-3.408l.5.033q-.133,2.912-1.092,4A3.991,3.991,0,0,1,828.6,95.83q-3.97,0-4.566-2.448a3.563,3.563,0,0,1-1.29,1.853,4.413,4.413,0,0,1-2.515.6q-4.9,0-4.9-4A3.24,3.24,0,0,1,817.2,88.6a14.22,14.22,0,0,1,5.74-.877M821.8,94.01a.686.686,0,0,0,.695.5q.513,0,.96-.844a5.041,5.041,0,0,0,.447-2.333V88.254h-.231q-2.052,0-2.051,3.011v.529a8.2,8.2,0,0,0,.182,2.217" transform="translate(-608.728 -55.405)" fill="#fff"/>
        <path id="Tracé_22" data-name="Tracé 22" d="M879.061,76.545V66.123h-1.82v-.6h1.82V61.26l6.154-1.522v5.79h4.3v.6h-4.3v11.15a6.126,6.126,0,0,0,.314,2.283,1.273,1.273,0,0,0,1.307.728,2.146,2.146,0,0,0,1.737-.992,5.749,5.749,0,0,0,.976-2.713l.562.066a6.422,6.422,0,0,1-1.455,3.623,5.04,5.04,0,0,1-3.937,1.34,6.911,6.911,0,0,1-4.2-1.092q-1.456-1.092-1.456-3.97" transform="translate(-653.466 -41.182)" fill="#fff"/>
        <path id="Tracé_23" data-name="Tracé 23" d="M924.358,58.632h8.106V73.784h1.853v.6h-9.826v-.6h1.819V59.227h-1.952Zm5-2.283a3.085,3.085,0,0,1-2.5-.893,3.345,3.345,0,0,1-.744-2.217,3.056,3.056,0,0,1,.81-2.184,3.234,3.234,0,0,1,2.465-.86,3.636,3.636,0,0,1,2.515.777,2.835,2.835,0,0,1,.86,2.217,3.179,3.179,0,0,1-.827,2.3,3.435,3.435,0,0,1-2.581.86" transform="translate(-687.515 -34.286)" fill="#fff"/>
        <path id="Tracé_24" data-name="Tracé 24" d="M965.72,93.714a8.215,8.215,0,0,1-2.117-6.071,7.957,7.957,0,0,1,2.266-6.088,8.928,8.928,0,0,1,6.369-2.134q4.1,0,6.121,1.969t2.018,6q0,8.437-8.4,8.437-4.136,0-6.253-2.117m8.3-4.731V86.17a22.5,22.5,0,0,0-.348-4.681q-.347-1.471-1.6-1.472a1.66,1.66,0,0,0-1.174.414,2.536,2.536,0,0,0-.645,1.373,25.182,25.182,0,0,0-.3,4.533v2.58a23.487,23.487,0,0,0,.215,4.334,7.345,7.345,0,0,0,.447,1.191,1.41,1.41,0,0,0,1.422.794,1.691,1.691,0,0,0,1.687-1.489,22.837,22.837,0,0,0,.3-4.764" transform="translate(-715.875 -55.406)" fill="#fff"/>
        <path id="Tracé_25" data-name="Tracé 25" d="M1027.66,79.751h7.973v3.044a5.5,5.5,0,0,1,1.621-2.448,5.02,5.02,0,0,1,3.308-.926q5.129,0,5.129,5.525V94.9h1.853v.6h-9.363v-.6h1.356V84.151a7.638,7.638,0,0,0-.265-2.564.964.964,0,0,0-.959-.579q-1.059,0-1.869,1.39a6.587,6.587,0,0,0-.811,3.375V94.9h1.423v.6h-9.4v-.6h1.82V80.346h-1.82Z" transform="translate(-762.166 -55.405)" fill="#fff"/>
      </g>
      <text id="_8_Rue_des_Monderaines_-_14650_Carpiquet" data-name="8 Rue des Monderaines - 14650 Carpiquet" transform="translate(61 47.853)" fill="#fff" font-size="15" font-family="Museo-500, Museo" font-weight="500"><tspan x="0" y="0">8 Rue des Monderaines - 14650 Carpiquet</tspan></text>
      <g id="PICTO">
        <path id="Tracé_11" data-name="Tracé 11" d="M78.607,136.922h33.745c-.163.817-.292,1.6-.479,2.373q-2.335,9.612-4.686,19.221c-.243,1-.235.969-1.238.968q-9.475-.011-18.95,0c-.706,0-1.415.013-2.117-.045a.717.717,0,0,1-.5-.426c-1.233-4.618-2.439-9.243-3.656-13.866-.682-2.593-1.376-5.183-2.061-7.776a3.615,3.615,0,0,1-.057-.449m16.879,1.418v0H90.642q-4.723,0-9.446,0c-.357,0-.665-.006-.521.519q.934,3.411,1.842,6.829c1.02,3.84,2.051,7.677,3.029,11.528.167.658.517.77,1.073.767q4.178-.02,8.356-.02c3.31,0,6.62,0,9.93.023.556,0,.84-.157.941-.745.148-.853.392-1.688.6-2.531q1.891-7.822,3.783-15.643c.163-.674.129-.726-.569-.726H95.486" transform="translate(-61.876 -107.779)" fill="#fff"/>
        <path id="Tracé_12" data-name="Tracé 12" d="M146.042,53.54c.319-.908.551-1.7.872-2.458a7.849,7.849,0,0,1,4.641-4.094,12.743,12.743,0,0,0,4.585-3.379,51.462,51.462,0,0,0,5.654-7.7,2.857,2.857,0,0,0,.177-1.072,2.852,2.852,0,0,1,.077-.7c.286-.685.616-1.353.979-2.134l5.113,2.485c-.368.874-.7,1.774-1.134,2.624-.115.225-.523.361-.82.418-.517.1-.7.4-.852.874a26.961,26.961,0,0,1-1.162,3.176,17.8,17.8,0,0,0-1.307,9.123,23.031,23.031,0,0,0,.375,2.451c.065.345-.067.454-.361.456-.4,0-.806-.02-1.21-.021l-14.893-.014c-.213,0-.425-.019-.736-.033m2.287-1.615h13.022c-.03-.491-.053-.911-.08-1.332a24.629,24.629,0,0,1,.256-6.036c.533-2.913,2-5.482,3.009-8.22.056-.151.264-.271.427-.353.391-.2.8-.362,1.2-.54l-.024-.208c-.68-.331-1.348-.692-2.047-.977-.288-.117-.664.059-.473.422.388.736.012,1.263-.314,1.847a44.011,44.011,0,0,1-5.844,8.072,14.34,14.34,0,0,1-5.441,3.925,5.978,5.978,0,0,0-3.689,3.4" transform="translate(-114.958 -25.189)" fill="#fff"/>
        <path id="Tracé_50" data-name="Tracé 50" d="M18.806,101.932c-.812,0-1.552,0-2.291,0s-.773.075-.547.764a26.8,26.8,0,0,1,1.206,3.991,6,6,0,0,1-.517,2.485,1.884,1.884,0,0,1-.7.965,1.66,1.66,0,0,0-.665,1.679c.047,3.375.056,6.752.1,10.127.011.928.045.916.928,1.1.73.148,1.455.321,2.177.5a.5.5,0,0,1,.293.259.9.9,0,0,1-.913,1.318c-3.957-.006-7.913.007-11.87.01-1.635,0-3.271-.011-4.906-.005a.841.841,0,0,1-.917-.529c-.219-.551-.072-.915.5-1.063s1.177-.285,1.773-.381c.325-.052.449-.182.448-.507-.011-3.842-.01-7.683-.033-11.525,0-.157-.189-.326-.315-.467s-.31-.243-.431-.392A10.246,10.246,0,0,1,0,103.7a34.074,34.074,0,0,1,1.011-8.825,5.715,5.715,0,0,1,.23-.675c.274-.677.226-.8.849-.784,1.634.042,3.27.026,4.9.01a.858.858,0,0,1,.975.813c.31,1.5.754,2.977,1.005,4.486a21.742,21.742,0,0,1,.157,7.176,6.786,6.786,0,0,1-2.612,4.68,1.689,1.689,0,0,0-.446,1.222c0,2.587.054,5.174.089,7.76.011.809.042,1.618.01,2.426a.817.817,0,0,0,.565.884,6.982,6.982,0,0,0,4.727.318.809.809,0,0,0,.467-.528,8.682,8.682,0,0,0,.15-1.626c.013-3.154,0-6.309.013-9.463a1.467,1.467,0,0,0-.55-1.233,6.515,6.515,0,0,1-1.756-3.772,17.348,17.348,0,0,1-.058-5.614c.254-2.079.642-4.142.972-6.211.01-.06.026-.119.036-.178.188-1.123.188-1.124,1.317-1.126,1.594,0,3.189,0,4.783-.013a.613.613,0,0,1,.728.589c.352,1.864.776,3.715,1.11,5.582a19.2,19.2,0,0,1,.128,2.336m-14.4-6.944v-.011a12.645,12.645,0,0,1-1.449-.014c-.349-.04-.408.09-.448.38-.293,2.115-.681,4.222-.877,6.346a11.145,11.145,0,0,0,.894,6.209,3.823,3.823,0,0,0,1.547,1.731.9.9,0,0,0,1.067-.031A5.693,5.693,0,0,0,7.5,105.8a23.54,23.54,0,0,0-.835-10.231.847.847,0,0,0-.572-.484,14.647,14.647,0,0,0-1.687-.1m12.776,5.254c-.331-1.641-.654-3.238-.975-4.835-.07-.347-.285-.423-.616-.414-.928.024-1.858.037-2.786.01-.422-.012-.576.162-.628.546-.331,2.419-.76,4.828-.977,7.256a10.42,10.42,0,0,0,.761,5.228,4.956,4.956,0,0,0,.945,1.378,1.009,1.009,0,0,0,1.377.155,2.961,2.961,0,0,0,1.17-3.091c-.523-1.78-1.061-3.556-1.6-5.332-.227-.749-.13-.893.661-.9.842-.005,1.683,0,2.666,0M13.675,123.1l.154,0V114.46h-.154Zm-9.029-8.649H4.5v8.736h.147Z" transform="translate(0 -73.533)" fill="#fff"/>
      </g>
    </g>
  </g>
</svg>
