<?xml version="1.0" encoding="UTF-8"?>
<svg id="Calque_2" data-name="Calque 2" xmlns="http://www.w3.org/2000/svg" viewBox="0 0 615.551 198.647">
  <defs>
    <style>
      .cls-1 {
        fill: #ffe45e;
      }

      .cls-2 {
        fill: #ff97e4;
        stroke: #fff;
        stroke-miterlimit: 10;
      }
    </style>
  </defs>
  <g id="assets">
    <g id="caen">
      <ellipse class="cls-1" cx="307.775" cy="99.323" rx="307.775" ry="99.323"/>
      <g>
        <path class="cls-2" d="m87.631,159.918c-16.875-5.781-32.859-15.989-47.21-26.083-11.322-7.963-27.105-20.366-27.103-34.512.001-14.193,15.805-26.617,27.177-34.597,14.39-10.097,30.393-20.29,47.322-26.059,10.466-3.567,22.118-6.3,33.224-4.431-9.191,20.265-14.977,39.689-17.472,61.78-8.658-4.432-20.872-6.413-30.262-6.06-8.103.305-24.368,3.104-24.607,8.926-.249,6.079,19.609,9.568,27.393,9.421,13.151-.249,21.889-2.292,34.23-7.575,1.071,22.383,5.458,42.219,13.485,63.081-11.968,2.81-24.815,0-36.177-3.893Z"/>
        <path class="cls-2" d="m171.869,179.104c-25.928-3.566-48.058-23.251-53.295-49.126-2.408-11.898,1.352-23.934,10.15-32.273,9.801-9.289,23.355-13.497,36.638-13.743,10.351-.191,19.171,1.776,26.21,6.244,7.045,4.47,11.433,10.336,13.11,17.374,1.629.013,2.445.019,4.082.032-.026-1.587-.036-2.382-.049-3.973-.066-7.735-4.526-14.464-12.651-19.985-7.931-5.389-20.562-8.027-29.917-7.466-14.38.863-29.103,5.025-41.825,12.404,1.781-19.192,5.546-36.796,11.614-55.054,16.198-7.86,33.903-13.966,51.712-16.156,22.53-2.77,46.641.657,64.567,15.763,17.851,15.043,22.271,38.222,17.616,60.34-1.515,7.818-2.257,11.763-3.684,19.527,8.057.029,12.121.039,20.306.045.057,23.233.191,46.464.407,69.695-25.445-.3-50.74-1.409-76.105-3.453-.632-13.992-.338-27.921.227-41.907-1.843-.065-2.762-.099-4.594-.168.772,11.598-1.754,23.892-9.647,32.702-6.96,7.769-15.105,10.521-24.875,9.177Zm19.479-49.461c13.167.473,19.84-2.165,19.595-7.851-.245-5.679-7.225-8.625-20.521-8.836-13.111-.208-19.3,2.399-18.928,7.819.373,5.426,6.869,8.401,19.854,8.868Z"/>
        <path class="cls-2" d="m375.352,183.627c-21.829,2.048-44.37-3.128-60.146-19.347-17.555-18.048-23.383-42.34-23.397-65.647-.014-22.789,5.959-46.715,22.348-64.611,13.554-14.801,34.688-21.244,54.296-19.642,20.194,1.649,40.518,11.44,55.183,25.318,14.893,14.093,24.867,34.389,25.287,55.151.092,4.562-.398,8.653-1.396,12.239-31.421.515-62.845.807-94.269,1.005.141,4.708,4.161,8.233,11.822,10.555,8.667,2.627,19.153,3.388,28.084,3.008,15.866-.674,32.669-3.898,46.666-12.034-.865,19.22-3.431,37.347-7.958,56.022-17.151,9.833-36.985,16.151-56.519,17.983Zm-22.353-88.358c14.92.043,29.839.097,44.759.163-.446-6.261-2.811-11.113-6.964-14.64-4.151-3.525-9.448-5.268-15.513-5.532-12.04-.524-20.896,8.244-22.281,20.009Z"/>
        <path class="cls-2" d="m506.356,118.199c-2.621,14.84-6.84,26.985-13.744,40.378-15.863,4.639-32.012,8.077-48.221,11.248,16.58-47.652,16.575-93.368,0-141.005,16.407,3.212,32.752,6.697,48.803,11.418,7.962,13.32,12.395,28.733,13.607,44.132,1.137.069,1.703.104,2.828.174-.852-10.669-2.307-21.749-1.824-32.357.321-7.057,3.274-8.473,10.506-5.358,9.951,4.286,19.313,10.444,28.118,16.77,9.36,6.724,18.918,14.874,22.976,26.074,6.694,21.172-9.926,36.534-24.65,48.391-11.528,6.298-23.624,10.959-35.947,15.425,9.866-12.652,17.191-24.439,22.998-39.403,3.32-8.517,1.213-21.141-10.024-21.352-4.512-.084-7.98,1.962-10.589,6.59-2.61,4.63-3.941,11.071-4.838,18.875Z"/>
      </g>
    </g>
  </g>
</svg>