<?xml version="1.0" encoding="UTF-8"?>
<svg id="Calque_2" data-name="Calque 2" xmlns="http://www.w3.org/2000/svg" viewBox="0 0 850.488 285.128">
  <defs>
    <style>
      .cls-1 {
        fill: #fff;
      }

      .cls-2 {
        fill: #9bdd50;
      }

      .cls-3 {
        fill: #3e67ed;
      }
    </style>
  </defs>
  <g id="assets">
    <g id="calva">
      <g>
        <path class="cls-3" d="m39.072,5h772.344c18.805,0,34.072,15.267,34.072,34.072v206.983c0,18.805-15.267,34.072-34.072,34.072H39.071c-18.804,0-34.071-15.267-34.071-34.071V39.072C5,20.267,20.267,5,39.072,5Z"/>
        <path class="cls-1" d="m811.417,10c16.056,0,29.072,13.016,29.072,29.072v206.984c0,16.056-13.016,29.072-29.072,29.072H39.072c-16.056,0-29.072-13.016-29.072-29.072V39.072c0-16.056,13.016-29.072,29.072-29.072h772.345m0-10H39.072C17.528,0,0,17.528,0,39.072v206.984c0,21.544,17.528,39.072,39.072,39.072h772.345c21.544,0,39.072-17.528,39.072-39.072V39.072c0-21.544-17.528-39.072-39.072-39.072h0Z"/>
      </g>
      <g>
        <path class="cls-2" d="m154.976,216.709c-27.28,0-48.841-6.562-64.681-19.689-15.84-13.125-23.76-33.255-23.76-60.391,0-27.279,7.992-47.52,23.98-60.72,15.984-13.2,37.691-19.8,65.119-19.8,18.185,0,35.053,2.2,50.601,6.6l-3.96,71.72c-5.28-3.079-12.21-5.571-20.79-7.479-8.58-1.904-17.198-2.86-25.851-2.86-25.96,0-38.939,4.036-38.939,12.101,0,4.84,3.555,8.105,10.67,9.79,7.112,1.688,17.635,2.529,31.57,2.529,9.239,0,18.514-1.1,27.83-3.3,9.312-2.2,16.754-4.984,22.329-8.359l.44,72.819c-15.4,4.692-33.588,7.04-54.56,7.04Z"/>
        <path class="cls-2" d="m286.535,181.729l-4.18,31.68-76.153,38.4,59.212-192.4h62.48l52.359,154h-68.859l-4.181-31.68h-20.68Zm12.101-64.46h-3.74l-5.5,47.739h14.52l-5.279-47.739Z"/>
        <path class="cls-2" d="m433.273,150.928l76.34-3.079v65.56h-125.84l-8.159-176.188,63.159,22.188-5.5,91.52Z"/>
        <path class="cls-2" d="m600.915,213.409h-62.26l-52.58-154h68.199l13.86,85.36h3.521l21.935-112.066,59.684,26.706-52.359,154Z"/>
        <path class="cls-2" d="m690.233,181.729l-4.18,31.68h-69.3l52.359-154h62.48l52.359,154-66.128,39.529-6.912-71.209h-20.68Zm12.101-64.46h-3.74l-5.5,47.739h14.52l-5.279-47.739Z"/>
      </g>
    </g>
  </g>
</svg>