<?xml version="1.0" encoding="UTF-8"?>
<svg id="Calque_2" data-name="Calque 2" xmlns="http://www.w3.org/2000/svg" viewBox="0 0 774.845 130.464">
  <defs>
    <style>
      .cls-1 {
        fill: #fff;
      }

      .cls-2 {
        fill: #1d1d1b;
      }
    </style>
  </defs>
  <g id="assets">
    <g id="classique">
      <g>
        <rect class="cls-2" x="2.29" y="2.291" width="770.265" height="125.883"/>
        <path class="cls-1" d="m770.264,4.581v121.302H4.581V4.581h765.683m4.581-4.581H0v130.464h774.845V0h0Z"/>
      </g>
      <g>
        <path class="cls-1" d="m25.082,55.818c0-28.998,16.904-46.726,40.404-46.726,10.857,0,19.377,5.222,24.737,10.994l-6.597,7.284c-4.672-4.947-10.582-8.109-18.14-8.109-17.179,0-28.448,13.881-28.448,36.282,0,22.675,11.269,36.831,28.448,36.831,8.246,0,14.567-3.574,20.202-9.895l6.597,7.009c-7.009,8.246-15.942,13.056-27.898,13.056-22.264,0-39.305-17.317-39.305-46.726Z"/>
        <path class="cls-1" d="m132.417,78.494V12.253h-23.638V3.045h35.045v76.273c0,9.62,5.222,13.743,13.192,13.743,3.847,0,7.971-.962,12.506-3.024l2.886,8.521c-6.184,2.611-10.582,3.985-17.865,3.985-14.292,0-22.125-8.246-22.125-24.05Z"/>
        <path class="cls-1" d="m192.064,83.579c0-14.98,14.016-22.264,48.512-25.012-.413-9.071-4.811-16.766-17.73-16.766-8.657,0-17.178,4.123-23.362,7.971l-4.535-7.696c6.872-4.398,18.14-9.62,29.822-9.62,18.277,0,27.211,10.857,27.211,27.486v40.954h-9.483l-.962-9.071h-.413c-7.283,5.772-16.903,10.72-26.249,10.72-12.506,0-22.812-7.009-22.812-18.965Zm48.512-.138v-17.316c-28.586,2.199-37.244,7.834-37.244,16.629,0,7.558,6.872,10.582,14.568,10.582,7.558,0,14.98-3.573,22.676-9.895Z"/>
        <path class="cls-1" d="m273.285,92.099l5.222-7.558c7.696,5.497,16.766,9.07,28.998,9.07,11.269,0,16.766-4.672,16.766-10.307,0-5.085-2.611-8.658-20.752-12.369-17.452-3.573-26.111-9.483-26.111-19.515,0-10.72,9.483-18.966,27.76-18.966,10.17,0,20.339,3.985,26.937,8.521l-5.497,7.283c-6.184-4.26-13.881-7.009-22.402-7.009-11.269,0-15.391,4.536-15.391,9.62,0,5.772,5.771,8.246,19.515,11.132,22.126,4.809,27.485,10.307,27.485,20.614,0,10.857-10.582,19.928-29.685,19.928-13.055,0-24.737-4.81-32.845-10.445Z"/>
        <path class="cls-1" d="m355.744,92.099l5.222-7.558c7.696,5.497,16.766,9.07,28.998,9.07,11.269,0,16.766-4.672,16.766-10.307,0-5.085-2.611-8.658-20.752-12.369-17.452-3.573-26.111-9.483-26.111-19.515,0-10.72,9.483-18.966,27.76-18.966,10.17,0,20.339,3.985,26.937,8.521l-5.497,7.283c-6.184-4.26-13.881-7.009-22.402-7.009-11.269,0-15.391,4.536-15.391,9.62,0,5.772,5.771,8.246,19.515,11.132,22.126,4.809,27.485,10.307,27.485,20.614,0,10.857-10.582,19.928-29.685,19.928-13.055,0-24.737-4.81-32.845-10.445Z"/>
        <path class="cls-1" d="m471.736,43.312h-30.921v-9.208h42.328v66.791h-11.407v-57.583Zm-4.535-32.021c0-5.222,3.847-8.795,9.07-8.795s9.071,3.573,9.071,8.795c0,5.36-3.849,8.795-9.071,8.795s-9.07-3.436-9.07-8.795Z"/>
        <path class="cls-1" d="m569.175,104.743l.55-12.369h-.274c-5.498,5.634-13.193,10.17-21.44,10.17-17.315,0-28.86-12.644-28.86-34.907,0-21.714,14.431-35.182,30.235-35.182,8.108,0,14.429,3.161,20.614,9.071h.413l1.099-7.421h9.07v94.964h-11.407v-24.325Zm0-21.714v-33.257c-6.047-5.635-11.681-7.696-17.454-7.696-11.544,0-20.888,10.17-20.888,25.425,0,15.942,7.421,25.425,19.652,25.425,6.597,0,12.782-3.299,18.69-9.895Z"/>
        <path class="cls-1" d="m603.949,75.607v-41.503h11.407v39.992c0,12.506,4.398,18.553,15.393,18.553,7.695,0,13.33-3.573,20.751-12.231v-46.313h11.407v66.791h-9.483l-.962-11.682h-.549c-6.735,7.834-14.568,13.331-24.876,13.331-15.804,0-23.088-9.346-23.088-26.937Z"/>
        <path class="cls-1" d="m685.172,67.362c0-21.714,16.216-34.907,34.081-34.907,19.24,0,30.51,12.506,30.51,31.334,0,2.611-.274,5.084-.55,6.871h-56.483v-8.795h49.75l-2.887,3.161c0-15.804-7.832-23.637-20.063-23.637-12.369,0-23.089,9.345-23.089,25.974,0,17.316,11.269,26.111,26.112,26.111,7.971,0,14.292-2.473,20.339-6.321l4.123,7.421c-6.597,4.398-15.117,7.971-25.836,7.971-20.065,0-36.007-12.919-36.007-35.182Z"/>
      </g>
    </g>
  </g>
</svg>