<?xml version="1.0" encoding="UTF-8"?>
<svg id="Calque_2" data-name="Calque 2" xmlns="http://www.w3.org/2000/svg" viewBox="0 0 709.909 400.93">
  <defs>
    <style>
      .cls-1 {
        fill: #ffe45e;
      }

      .cls-2 {
        fill: #fff;
      }

      .cls-3 {
        fill: #ff97e4;
      }
    </style>
  </defs>
  <g id="assets">
    <g id="easy">
      <polygon class="cls-2" points="542.205 123.863 514.92 324.328 327.669 400.93 167.704 277.068 194.99 76.603 382.24 0 542.205 123.863"/>
      <g>
        <path class="cls-1" d="m57.409,88.286h595.091c25.603,0,46.389,20.786,46.389,46.389v161.847c0,25.602-20.786,46.388-46.388,46.388H57.409c-25.603,0-46.389-20.786-46.389-46.389v-161.846c0-25.603,20.786-46.389,46.389-46.389Z"/>
        <path class="cls-2" d="m652.501,99.306c19.453,0,35.369,15.916,35.369,35.369v161.846c0,19.453-15.916,35.369-35.369,35.369H57.409c-19.453,0-35.369-15.916-35.369-35.369v-161.846c0-19.453,15.916-35.369,35.369-35.369h595.092m0-22.04H57.409C25.753,77.266,0,103.02,0,134.675v161.846c0,31.655,25.753,57.408,57.409,57.408h595.092c31.655,0,57.408-25.753,57.408-57.408v-161.846c0-31.655-25.753-57.408-57.408-57.408h0Z"/>
      </g>
      <polygon class="cls-1" points="518.203 138.494 495.103 308.212 336.572 373.066 201.141 268.201 224.242 98.483 382.773 33.629 518.203 138.494"/>
      <g>
        <g>
          <path class="cls-3" d="m112.37,271.919c-23.803,0-42.15-5.908-55.044-17.729-12.894-11.816-19.34-27.975-19.34-48.474,0-20.165,6.156-36.077,18.472-47.73,12.312-11.654,28.801-17.48,49.466-17.48,20.828,0,36.983,5.54,48.474,16.613,11.487,11.076,17.232,26.201,17.232,45.375,0,3.804-.414,7.19-1.239,10.166h-83.062c.162,3.472,3.51,6.118,10.042,7.935,6.527,1.821,14.586,2.728,24.175,2.728,15.868,0,29.754-2.89,41.655-8.678l1.487,47.606c-14.381,6.447-31.822,9.67-52.317,9.67Zm-25.29-68.682h37.936c-.333-4.792-2.231-8.512-5.702-11.158-3.472-2.642-7.854-3.967-13.142-3.967-10.747,0-17.108,5.044-19.092,15.125Z"/>
          <path class="cls-3" d="m215.268,271.919c-28.267,0-42.399-12.894-42.399-38.68,0-11.735,4.254-21.2,12.77-28.39,8.512-7.19,19.793-10.786,33.845-10.786,9.422,0,17.232,1.735,23.432,5.207,6.198,3.471,9.956,7.853,11.281,13.142h3.471v-2.976c0-5.784-3.68-10.825-11.033-15.125-7.357-4.296-16.326-6.446-26.902-6.446-13.556,0-26.449,3.061-38.68,9.174v-48.846c15.372-5.122,31.985-7.687,49.837-7.687,26.116,0,46.49,5.498,61.119,16.489,14.629,10.995,19.875,25.996,15.745,45.002l-2.976,14.133h16.117v52.069h-67.194l4.711-33.225h-3.967c-.333,10.747-4.463,19.588-12.397,26.53-7.935,6.943-16.86,10.414-26.778,10.414Zm26.53-42.399c11.568,0,17.356-2.146,17.356-6.447s-5.788-6.447-17.356-6.447c-11.405,0-17.108,2.15-17.108,6.447s5.703,6.447,17.108,6.447Z"/>
          <path class="cls-3" d="m385.604,271.919c-7.935,0-18.062-.829-30.374-2.479-12.316-1.65-22.276-3.553-29.878-5.703v-56.78c8.264,3.967,17.644,7.152,28.143,9.546,10.495,2.398,19.626,3.595,27.398,3.595,8.263,0,13.966-.287,17.108-.868,3.138-.577,4.711-2.107,4.711-4.587,0-1.65-2.646-2.766-7.935-3.348-5.292-.577-11.739-1.197-19.34-1.859-7.605-.659-15.21-1.817-22.812-3.471-7.604-1.65-14.052-4.998-19.34-10.042-5.292-5.041-7.935-11.611-7.935-19.712,0-11.239,5.618-19.999,16.86-26.282,11.239-6.28,27.355-9.422,48.351-9.422,17.852,0,34.794,2.565,50.829,7.687l.496,51.821c-12.564-7.438-27.938-11.158-46.119-11.158-6.942,0-11.943.291-15,.868-3.061.581-4.588,1.945-4.588,4.091,0,1.325,2.643,2.274,7.935,2.851,5.288.582,11.735,1.325,19.34,2.232,7.602.91,15.206,2.355,22.812,4.339,7.602,1.983,14.048,5.54,19.34,10.662,5.288,5.125,7.935,11.654,7.935,19.588,0,12.397-5.951,21.905-17.853,28.514s-28.599,9.918-50.085,9.918Z"/>
          <path class="cls-3" d="m484.783,321.508c-8.431,0-17.771-.662-28.019-1.983l1.24-53.061c11.901,3.967,22.396,5.951,31.489,5.951,6.609,0,11.777-.582,15.497-1.736,3.719-1.158,6.074-3.471,7.066-6.942l1.487-6.695h-23.555l-43.887-112.816h70.169l8.183,63.227h3.471l7.438-63.227h70.913l-48.35,140.091c-1.158,3.138-2.192,5.742-3.1,7.81-.91,2.065-3.185,5.165-6.818,9.298-3.638,4.13-7.811,7.477-12.521,10.042-4.711,2.561-11.491,4.874-20.332,6.942-8.845,2.065-18.968,3.099-30.373,3.099Z"/>
          <path class="cls-3" d="m666.154,263.737c-5.374,4.792-12.025,7.19-19.96,7.19s-14.59-2.398-19.96-7.19c-5.373-4.792-8.058-10.91-8.058-18.348,0-7.602,2.685-13.8,8.058-18.596,5.37-4.792,12.025-7.19,19.96-7.19s14.586,2.398,19.96,7.19c5.369,4.796,8.059,10.995,8.059,18.596,0,7.438-2.689,13.556-8.059,18.348Z"/>
        </g>
        <g>
          <path class="cls-2" d="m104.769,280.566c-23.803,0-42.15-5.908-55.044-17.729-12.894-11.816-19.34-27.975-19.34-48.474,0-20.165,6.156-36.077,18.472-47.73,12.312-11.654,28.801-17.48,49.466-17.48,20.828,0,36.983,5.54,48.474,16.613,11.487,11.076,17.232,26.201,17.232,45.375,0,3.804-.414,7.19-1.239,10.166h-83.062c.162,3.472,3.51,6.118,10.042,7.935,6.527,1.821,14.586,2.728,24.175,2.728,15.868,0,29.754-2.89,41.655-8.678l1.487,47.606c-14.381,6.447-31.822,9.67-52.317,9.67Zm-25.29-68.682h37.936c-.333-4.792-2.231-8.512-5.702-11.158-3.472-2.642-7.854-3.967-13.142-3.967-10.747,0-17.108,5.044-19.092,15.125Z"/>
          <path class="cls-2" d="m207.668,280.566c-28.267,0-42.399-12.894-42.399-38.68,0-11.735,4.254-21.2,12.77-28.39,8.512-7.19,19.793-10.786,33.845-10.786,9.422,0,17.232,1.735,23.432,5.207,6.198,3.471,9.956,7.853,11.281,13.142h3.471v-2.976c0-5.784-3.68-10.825-11.033-15.125-7.357-4.296-16.326-6.446-26.902-6.446-13.556,0-26.449,3.061-38.68,9.174v-48.846c15.372-5.122,31.985-7.687,49.837-7.687,26.116,0,46.49,5.498,61.119,16.489,14.629,10.995,19.875,25.996,15.745,45.002l-2.976,14.133h16.117v52.069h-67.194l4.711-33.225h-3.967c-.333,10.747-4.463,19.588-12.397,26.53-7.935,6.943-16.86,10.414-26.778,10.414Zm26.53-42.399c11.568,0,17.356-2.146,17.356-6.447s-5.788-6.447-17.356-6.447c-11.405,0-17.108,2.15-17.108,6.447s5.703,6.447,17.108,6.447Z"/>
          <path class="cls-2" d="m378.004,280.566c-7.935,0-18.062-.829-30.374-2.479-12.316-1.65-22.276-3.553-29.878-5.703v-56.78c8.264,3.967,17.644,7.152,28.143,9.546,10.495,2.398,19.626,3.595,27.398,3.595,8.263,0,13.966-.287,17.108-.868,3.138-.577,4.711-2.107,4.711-4.587,0-1.65-2.646-2.766-7.935-3.348-5.292-.577-11.739-1.197-19.34-1.859-7.605-.659-15.21-1.817-22.812-3.471-7.604-1.65-14.052-4.998-19.34-10.042-5.292-5.041-7.935-11.611-7.935-19.712,0-11.239,5.618-19.999,16.86-26.282,11.239-6.28,27.355-9.422,48.351-9.422,17.852,0,34.794,2.565,50.829,7.687l.496,51.821c-12.564-7.438-27.938-11.158-46.119-11.158-6.942,0-11.943.291-15,.868-3.061.581-4.588,1.945-4.588,4.091,0,1.325,2.643,2.274,7.935,2.851,5.288.582,11.735,1.325,19.34,2.232,7.602.91,15.206,2.355,22.812,4.339,7.602,1.983,14.048,5.54,19.34,10.662,5.288,5.125,7.935,11.654,7.935,19.588,0,12.397-5.951,21.905-17.853,28.514s-28.599,9.918-50.085,9.918Z"/>
          <path class="cls-2" d="m477.182,330.156c-8.431,0-17.771-.662-28.019-1.983l1.24-53.061c11.901,3.967,22.396,5.951,31.489,5.951,6.609,0,11.777-.582,15.497-1.736,3.719-1.158,6.074-3.471,7.066-6.942l1.487-6.695h-23.555l-43.887-112.816h70.169l8.183,63.227h3.471l7.438-63.227h70.913l-48.35,140.091c-1.158,3.138-2.192,5.742-3.1,7.81-.91,2.065-3.185,5.165-6.818,9.298-3.638,4.13-7.811,7.477-12.521,10.042-4.711,2.561-11.491,4.874-20.332,6.942-8.845,2.065-18.968,3.099-30.373,3.099Z"/>
          <path class="cls-2" d="m658.554,272.384c-5.374,4.792-12.025,7.19-19.96,7.19s-14.59-2.398-19.96-7.19c-5.373-4.792-8.058-10.91-8.058-18.348,0-7.602,2.685-13.8,8.058-18.596,5.37-4.792,12.025-7.19,19.96-7.19s14.586,2.398,19.96,7.19c5.369,4.796,8.059,10.995,8.059,18.596,0,7.438-2.689,13.556-8.059,18.348Z"/>
        </g>
      </g>
    </g>
  </g>
</svg>