<?xml version="1.0" encoding="UTF-8"?>
<svg id="Calque_2" data-name="Calque 2" xmlns="http://www.w3.org/2000/svg" viewBox="0 0 732.717 299.981">
  <defs>
    <style>
      .cls-1 {
        fill: #fff;
      }

      .cls-2 {
        fill: #3e67ed;
      }
    </style>
  </defs>
  <g id="assets">
    <g id="ecto">
      <rect class="cls-1" x="6.584" y="36.786" width="719.549" height="226.41" rx="37.654" ry="37.654" transform="translate(-14.9 43.42) rotate(-6.648)"/>
      <g>
        <path class="cls-2" d="m184.09,154.338l-86.04,7.58,1.154,9.904,63.011-9.792,2.534,21.741-63.574,4.961,1.211,10.387,90.567-14.963,8.249,70.781-145.67,16.977-19.709-169.103,140.355-16.358,7.911,67.882Z"/>
        <path class="cls-2" d="m306.707,246.316c-29.955,3.491-54.469-.956-73.543-13.344-19.072-12.385-30.345-33.474-33.818-63.272-3.491-29.955,2.694-53.203,18.56-69.743,15.863-16.54,38.856-26.566,68.972-30.076,19.968-2.327,38.772-2.07,56.407.772l4.83,79.261c-6.192-2.707-14.121-4.556-23.786-5.553-9.665-.993-19.25-.94-28.751.167-28.506,3.322-42.242,9.415-41.21,18.27.619,5.314,4.941,8.445,12.97,9.384,8.026.943,19.688.522,34.989-1.262,10.146-1.182,20.189-3.577,30.138-7.186,9.943-3.608,17.759-7.617,23.45-12.038l9.802,79.905c-16.31,7.123-35.98,12.029-59.01,14.713Z"/>
        <path class="cls-2" d="m503.752,48.278l9.424,74.562-52.945,3.721,22.885,95.521-64.741,7.545.063-98.195-52.14,8.526-8.217-74.703,145.67-16.977Z"/>
        <path class="cls-2" d="m680.138,179.287c-14.304,17.338-34.583,27.537-60.832,30.596-26.252,3.06-48.332-2.203-66.237-15.787-17.908-13.585-28.493-34.387-31.759-62.41s2.219-50.614,16.463-67.785c14.241-17.165,34.566-27.29,60.98-30.369,26.411-3.078,48.52,2.101,66.33,15.531,17.806,13.436,28.344,34.16,31.61,62.183,3.266,28.023-2.255,50.703-16.555,68.041Zm-93.134-42.769c6.137,2.222,14.115,2.761,23.939,1.616,9.822-1.145,17.466-3.504,22.926-7.078,5.461-3.575,7.89-7.937,7.289-13.093-.6-5.152-3.968-8.842-10.105-11.066-6.135-2.222-14.118-2.761-23.939-1.616-9.824,1.145-17.465,3.504-22.926,7.078-5.46,3.575-7.888,7.941-7.288,13.093.601,5.156,3.968,8.842,10.103,11.066Z"/>
      </g>
    </g>
  </g>
</svg>