<?xml version="1.0" encoding="UTF-8"?>
<svg id="Calque_2" data-name="Calque 2" xmlns="http://www.w3.org/2000/svg" viewBox="0 0 531.119 473.313">
  <defs>
    <style>
      .cls-1 {
        fill: #fff;
      }

      .cls-2 {
        fill: #ff316f;
      }

      .cls-3 {
        fill: #9bdd50;
      }
    </style>
  </defs>
  <g id="assets">
    <g id="hot_war">
      <g>
        <path class="cls-1" d="m49.822,448.401c-8.9,0-17.124-4.748-21.574-12.456-4.45-7.708-4.45-17.204,0-24.911L243.986,37.367c4.45-7.708,12.674-12.456,21.574-12.456s17.124,4.748,21.574,12.456l215.737,373.668c4.45,7.708,4.45,17.204,0,24.911-4.45,7.708-12.674,12.456-21.574,12.456H49.822Z"/>
        <path class="cls-3" d="m265.56,49.822l215.737,373.668H49.822L265.56,49.822m0-49.822c-17.8,0-34.247,9.496-43.147,24.911L6.675,398.579c-8.9,15.415-8.9,34.407,0,49.823,8.9,15.415,25.348,24.911,43.147,24.911h431.475c17.8,0,34.247-9.496,43.147-24.911,8.9-15.415,8.9-34.407,0-49.823L308.707,24.911c-8.9-15.415-25.348-24.911-43.147-24.911h0Z"/>
      </g>
      <path class="cls-2" d="m213.559,188.183c2.346-3.769,7.213-5.03,11.128-2.938,13.863,7.427,27.258,15.84,40.218,25.359,2.866-6.962,6.195-14.608,10.237-21.197,2.375-3.82,7.272-5.131,11.249-2.971,17.435,9.524,33.884,23.873,46.603,38.274,12.535,14.193,22.437,29.478,25.599,41.277,13.721,51.213-14.743,105.211-64.592,118.567-50.411,13.506-101.507-19.22-115.228-70.433-4.129-15.412-2.028-36.15,4.06-57.741,6.133-21.904,16.667-45.847,30.725-68.197Zm70.802,157.658c10.154-2.721,18.392-7.939,25.355-15.827,13.736-16.327,11.948-41.142-3.174-56.964-2.774-3.128-7.454-2.133-9.246,1.617l-6.964,14.47c-1.832,3.76-6.629,4.959-9.967,2.455-8.881-6.654-24.753-18.533-33.786-25.275-3.389-2.533-8.216-1.283-9.924,2.616-8.996,20.692-12.937,33.277-9.7,45.358,7.406,27.482,32.08,38.336,57.406,31.551Z"/>
    </g>
  </g>
</svg>