<?xml version="1.0" encoding="UTF-8"?>
<svg id="Calque_2" data-name="Calque 2" xmlns="http://www.w3.org/2000/svg" viewBox="0 0 888.03 278.65">
  <defs>
    <style>
      .cls-1 {
        fill: none;
      }

      .cls-2 {
        fill: #fff;
      }

      .cls-3 {
        fill: #9bdd50;
      }

      .cls-4 {
        fill: #3e67ed;
      }
    </style>
  </defs>
  <g id="assets">
    <g id="locales">
      <g>
        <path class="cls-3" d="m719.62,123.79v107.83c0,3.87-3.16,7.03-7.02,7.03H47.03c-3.87,0-7.03-3.16-7.03-7.03V81.9c0-3.86,3.16-7.03,7.03-7.03h596.63l75.96,48.92Z"/>
        <path class="cls-2" d="m719.62,123.79v107.83c0,3.87-3.16,7.03-7.02,7.03H47.03c-3.87,0-7.03-3.16-7.03-7.03V81.9c0-3.86,3.16-7.03,7.03-7.03h596.63l-62.11-40H47.03C21.1,34.87,0,55.97,0,81.9v149.72c0,25.93,21.1,47.03,47.03,47.03h665.57c25.93,0,47.02-21.1,47.02-47.03v-82.06l-40-25.77Z"/>
      </g>
      <g>
        <path class="cls-4" d="m117.343,169.577l51.038-2.928v62.333h-84.132V82.562h36.771l-3.677,87.015Z"/>
        <path class="cls-4" d="m265.016,212.039c-9.807,13.387-22.702,20.081-38.683,20.081s-28.879-6.693-38.683-20.081c-9.807-13.387-14.708-32.212-14.708-56.476s4.877-43.017,14.635-56.267c9.756-13.247,22.674-19.871,38.756-19.871s28.999,6.625,38.756,19.871c9.756,13.25,14.635,32.003,14.635,56.267s-4.904,43.089-14.708,56.476Zm-52.95-45.808c3.53,2.51,8.285,3.765,14.267,3.765s10.737-1.255,14.267-3.765c3.53-2.51,5.295-5.994,5.295-10.458s-1.765-7.949-5.295-10.458c-3.53-2.51-8.287-3.765-14.267-3.765s-10.737,1.255-14.267,3.765c-3.53,2.51-5.295,5.997-5.295,10.458s1.765,7.948,5.295,10.458Z"/>
        <path class="cls-4" d="m344.146,232.119c-18.238,0-32.652-6.239-43.243-18.721-10.59-12.479-15.885-31.618-15.885-57.417,0-25.937,5.343-45.181,16.032-57.731,10.687-12.55,25.199-18.825,43.537-18.825,12.157,0,23.434,2.092,33.829,6.275l-2.647,68.189c-3.53-2.928-8.163-5.298-13.899-7.112-5.736-1.811-11.498-2.719-17.282-2.719-17.356,0-26.034,3.837-26.034,11.504,0,4.602,2.376,7.707,7.133,9.308,4.755,1.605,11.79,2.406,21.106,2.406,6.178,0,12.378-1.046,18.606-3.138,6.226-2.092,11.201-4.739,14.929-7.948l.294,69.235c-10.296,4.461-22.456,6.693-36.477,6.693Z"/>
        <path class="cls-4" d="m432.101,198.861l-2.794,30.121h-46.332l35.006-146.419h41.771l35.006,146.419h-46.037l-2.794-30.121h-13.826Zm8.089-61.287h-2.5l-3.677,45.39h9.708l-3.53-45.39Z"/>
        <path class="cls-4" d="m530.204,169.577l51.038-2.928v62.333h-84.132V82.562h36.771l-3.677,87.015Z"/>
        <path class="cls-4" d="m673.463,141.339l-52.215-2.091v8.576l38.536-2.092v18.826l-38.536-2.092v8.994l55.451-3.765v61.287h-88.691V82.562h67l18.456,58.777Z"/>
      </g>
      <path class="cls-2" d="m698.02,177.543l61.602-27.985-40.007-25.76-75.957-48.925-62.107-40.004,54.203,119.315c10.725,23.608,38.658,34.083,62.266,23.358Z"/>
      <line class="cls-1" x1="888.03" y1="232.26" x2="759.62" y2="149.56"/>
      <line class="cls-1" x1="581.55" y1="34.87" x2="527.41"/>
    </g>
  </g>
</svg>