<?xml version="1.0" encoding="UTF-8"?>
<svg id="Calque_2" data-name="Calque 2" xmlns="http://www.w3.org/2000/svg" viewBox="0 0 1841.684 498.86">
  <defs>
    <style>
      .cls-1 {
        fill: #231c4d;
      }
    </style>
  </defs>
  <g id="assets">
    <g id="LOGO">
      <path class="cls-1" d="m397.038,202.277l-242.596-6.833v28.018l179.043-6.833v61.503l-179.043-6.833v29.385l257.63-12.301v200.228H0V10.25h397.038v192.027Z"/>
      <path class="cls-1" d="m709.335,498.86c-84.738,0-151.708-20.384-200.911-61.162-49.203-40.767-73.804-103.295-73.804-187.585,0-84.738,24.825-147.608,74.487-188.61C558.759,20.501,626.188,0,711.385,0c56.485,0,108.88,6.834,157.175,20.501l-12.3,222.779c-16.401-9.567-37.927-17.309-64.579-23.235-26.651-5.915-53.42-8.884-80.296-8.884-80.638,0-120.957,12.536-120.957,37.585,0,15.034,11.041,25.178,33.144,30.41,22.092,5.243,54.776,7.858,98.063,7.858,28.702,0,57.51-3.417,86.446-10.25,28.926-6.833,52.043-15.482,69.362-25.968l1.367,226.195c-47.835,14.575-104.331,21.868-169.476,21.868Z"/>
      <path class="cls-1" d="m1323.684,10.25l2.05,211.161-148.975-6.833,32.802,274.031h-183.143l32.118-274.031-148.291,6.833,1.367-211.161h412.072Z"/>
      <path class="cls-1" d="m1773.346,433.256c-45.561,43.736-105.473,65.604-179.726,65.604s-134.175-21.868-179.726-65.604c-45.562-43.735-68.337-105.239-68.337-184.51s22.658-140.539,67.995-183.826C1458.879,21.644,1518.898,0,1593.621,0s134.731,21.644,180.067,64.92c45.328,43.287,67.996,104.555,67.996,183.826s-22.787,140.774-68.338,184.51Zm-246.012-149.658c16.401,8.2,38.493,12.3,66.287,12.3s49.886-4.1,66.286-12.3c16.402-8.201,24.602-19.583,24.602-34.168s-8.199-25.968-24.602-34.168c-16.4-8.201-38.503-12.301-66.286-12.301s-49.886,4.1-66.287,12.301c-16.401,8.2-24.602,19.593-24.602,34.168s8.201,25.968,24.602,34.168Z"/>
    </g>
  </g>
</svg>