<?xml version="1.0" encoding="utf-8"?>
<!-- Generator: Adobe Illustrator 27.7.0, SVG Export Plug-In . SVG Version: 6.00 Build 0)  -->
<svg version="1.1" id="Calque_2_00000178901384831434642770000014586084557972100762_"
	 xmlns="http://www.w3.org/2000/svg" xmlns:xlink="http://www.w3.org/1999/xlink" x="0px" y="0px" viewBox="0 0 531.3 143.9"
	 style="enable-background:new 0 0 531.3 143.9;" xml:space="preserve">
<style type="text/css">
	.st0{fill:#231C4D;}
</style>
<g id="assets">
	<g id="LOGO">
		<path class="st0" d="M114.5,58.3l-70-2v8.1l51.6-2v17.7l-51.6-2v8.5l74.3-3.5v57.8H0V3h114.5V58.3z"/>
		<path class="st0" d="M204.6,143.9c-24.4,0-43.8-5.9-58-17.6c-14.2-11.8-21.3-29.8-21.3-54.1c0-24.4,7.2-42.6,21.5-54.4
			C161.2,5.9,180.6,0,205.2,0c16.3,0,31.4,2,45.3,5.9L247,70.2c-4.7-2.8-10.9-5-18.6-6.7c-7.7-1.7-15.4-2.6-23.2-2.6
			c-23.3,0-34.9,3.6-34.9,10.8c0,4.3,3.2,7.3,9.6,8.8c6.4,1.5,15.8,2.3,28.3,2.3c8.3,0,16.6-1,24.9-3c8.3-2,15-4.5,20-7.5l0.4,65.2
			C239.7,141.8,223.4,143.9,204.6,143.9L204.6,143.9z"/>
		<path class="st0" d="M381.8,3l0.6,60.9l-43-2l9.5,79h-52.8l9.3-79l-42.8,2L263,3L381.8,3L381.8,3z"/>
		<path class="st0" d="M511.5,125c-13.1,12.6-30.4,18.9-51.8,18.9c-21.4,0-38.7-6.3-51.8-18.9c-13.1-12.6-19.7-30.4-19.7-53.2
			s6.5-40.5,19.6-53C420.8,6.2,438.1,0,459.7,0s38.9,6.2,51.9,18.7c13.1,12.5,19.6,30.2,19.6,53S524.7,112.4,511.5,125L511.5,125z
			 M440.6,81.8c4.7,2.4,11.1,3.5,19.1,3.5c8,0,14.4-1.2,19.1-3.5c4.7-2.4,7.1-5.6,7.1-9.9s-2.4-7.5-7.1-9.9
			c-4.7-2.4-11.1-3.5-19.1-3.5c-8,0-14.4,1.2-19.1,3.5c-4.7,2.4-7.1,5.7-7.1,9.9S435.9,79.4,440.6,81.8z"/>
	</g>
</g>
</svg>
