<?xml version="1.0" encoding="UTF-8"?>
<svg id="Calque_2" data-name="Calque 2" xmlns="http://www.w3.org/2000/svg" xmlns:xlink="http://www.w3.org/1999/xlink" viewBox="0 0 869.834 529.243">
  <defs>
    <style>
      .cls-1, .cls-2, .cls-3, .cls-4 {
        fill: none;
      }

      .cls-2 {
        clip-path: url(#clippath-1);
      }

      .cls-5 {
        fill: #020202;
      }

      .cls-6, .cls-7 {
        fill: #ffe45e;
      }

      .cls-8, .cls-9 {
        fill: #fff;
      }

      .cls-10, .cls-11 {
        fill: #ff50da;
      }

      .cls-12 {
        fill: #ff97e4;
      }

      .cls-13 {
        fill: #3e67ed;
      }

      .cls-9 {
        stroke: #fff;
        stroke-width: 20px;
      }

      .cls-9, .cls-3, .cls-11, .cls-7 {
        stroke-miterlimit: 10;
      }

      .cls-3, .cls-11, .cls-7 {
        stroke: #000;
        stroke-linecap: round;
      }

      .cls-4 {
        clip-path: url(#clippath);
      }
    </style>
    <clipPath id="clippath">
      <path class="cls-1" d="m161.427,387.429c-26.025-5.191-34.606-23.499-47.826-20.408-7.928,1.854-13.453,10.451-14.264,17.492-2.263,19.663,30.635,41.15,60.831,47.375,35.854,7.391,82.54-3.715,93.555-28.79,4.729-10.766,3.665-25.89-4.615-30.247-10.216-5.377-23.496,9.807-58.314,14.213-11.143,1.41-19.087,2.415-29.367.364Z"/>
    </clipPath>
    <clipPath id="clippath-1">
      <path class="cls-1" d="m701.354,369.848c21.69-3.265,29.492-18.044,40.285-14.974,6.472,1.841,10.697,9.156,11.09,15.001,1.098,16.323-26.905,32.772-52.08,36.728-29.891,4.697-68-6.303-76.11-27.437-3.482-9.074-2.011-21.518,4.996-24.791,8.645-4.038,19.014,9.018,47.587,14.02,9.144,1.601,15.663,2.742,24.231,1.452Z"/>
    </clipPath>
  </defs>
  <g id="assets">
    <g id="rain-die">
      <path class="cls-9" d="m144.913,395.25c-1.18-4.76-2.24-9.56-3.19-14.4-3.84-19.5-5.85-39.65-5.85-60.27,0-21.2,2.12-41.91,6.18-61.92C170.743,116.8,296.123,10,446.443,10s274.6,105.86,304.02,246.78c3.67,17.6,5.86,35.74,6.41,54.29l-44.86,6.17-42.037.173-65.075.496-12.966,4.98c-1.612-12.749.394-3.254-1.612-12.749-3.86-76.11-66.8-136.64-143.88-136.64-79.56,0-144.06,64.5-144.06,144.06,0,10.85,1.2,21.42,3.47,31.58"/>
      <g>
        <path class="cls-13" d="m593.138,469.247c-3.67-.44-7.34-1.15-11.01-2.12-43.14-11.43-68.85-55.66-57.43-98.8,8.46-31.94,34.89-54.32,65.55-59.16-3.86-76.11-66.8-136.64-143.88-136.64-79.56,0-144.06,64.5-144.06,144.06,0,10.85,1.2,21.42,3.47,31.58,30.77,13.36,51.13,45.15,48.36,80.47-1.93,24.51-14.6,45.61-33.04,59.03-15.02,10.93-33.87,16.77-53.85,15.2-5.43-.43-10.69-1.38-15.73-2.81-9.79-2.77-18.77-7.31-26.62-13.24-10.14,5.73-21.7,9.14-33.92,9.56-11.53-16.63-21.47-34.43-29.61-53.19-1.75-4.01-3.41-8.06-4.98-12.16-6.32-16.42-11.28-33.52-14.74-51.15-3.84-19.5-5.85-39.65-5.85-60.27,0-21.2,2.12-41.91,6.18-61.92C170.668,115.827,296.048,9.027,446.368,9.027s274.6,105.86,304.02,246.78c4.3,20.59,6.56,41.93,6.56,63.8,0,7.54-.27,15.02-.81,22.43-.14,2.09-.31,4.17-.5,6.25-.17,1.91-.36,3.82-.58,5.72-.61,5.63-1.38,11.21-2.3,16.74v.01c-.29,1.75-.6,3.49-.92,5.23-3.36,18.36-8.34,36.15-14.79,53.23-7.73,20.49-17.56,39.94-29.24,58.1-13.53,4.69-28.55,5.53-43.43,1.59-3.62-.96-7.11-2.16-10.44-3.61"/>
        <path class="cls-12" d="m711.958,319.607c0,13.98-1.08,27.71-3.17,41.11-.4,2.63-.85,5.24-1.34,7.83-2.45,13.22-5.9,26.1-10.25,38.55-.68,1.97-1.39,3.92-2.12,5.86-9.89,26.36-23.86,50.73-41.14,72.34-10.41-4.46-19.39-11.13-26.54-19.3-10.82,3.46-22.48,4.69-34.26,3.25-3.67-.44-7.34-1.15-11.01-2.12-43.14-11.43-68.85-55.66-57.43-98.8,8.46-31.94,34.89-54.32,65.55-59.16-3.86-76.11-66.8-136.64-143.88-136.64-79.56,0-144.06,64.5-144.06,144.06,0,10.85,1.2,21.42,3.47,31.58,30.77,13.36,51.13,45.15,48.36,80.47-1.93,24.51-14.6,45.61-33.04,59.03-15.02,10.93-33.87,16.77-53.85,15.2-5.43-.43-10.69-1.38-15.73-2.81-18.56-20.03-34.07-42.92-45.79-67.95-1.11-2.37-2.19-4.77-3.23-7.19-5.25-12.12-9.61-24.71-13.02-37.69-.46-1.73-.9-3.47-1.32-5.22,0-.03-.01-.06-.02-.09-2.79-11.63-4.83-23.56-6.03-35.73,0,0-.01,0-.01-.01,0-.03,0-.07-.01-.11v-.01c-.59-6.02-.99-12.1-1.17-18.24-.09-2.73-.13-5.46-.13-8.21,0-24.86,3.42-48.92,9.81-71.74,31.29-111.83,133.96-193.85,255.77-193.85s225.43,82.77,256.21,195.39c4.46,16.29,7.4,33.21,8.67,50.6.47,6.47.71,13.01.71,19.6Z"/>
        <path class="cls-6" d="m590.248,309.167c-3.86-76.11-66.8-136.64-143.88-136.64-79.56,0-144.06,64.5-144.06,144.06,0,10.85,1.2,21.42,3.47,31.58,30.77,13.36,51.13,45.15,48.36,80.47-1.93,24.51-14.6,45.61-33.04,59.03-29.22-21.81-52.56-51.07-67.21-84.97-.08-.17-.15-.34-.22-.51-4.2-9.78-7.68-19.95-10.36-30.43-.43-1.69-.85-3.39-1.23-5.09-3.48-15.13-5.31-30.88-5.31-47.06,0-17.47,2.14-34.44,6.17-50.66,22.65-91.29,105.14-158.95,203.43-158.95,100.13,0,183.86,70.2,204.64,164.07,3.26,14.66,4.97,29.9,4.97,45.54,0,14.46-1.46,28.58-4.26,42.22-2.16,10.61-5.14,20.93-8.85,30.89-.15.42-.31.85-.47,1.27-10.86,28.61-27.81,54.22-49.26,75.26-3.67-.44-7.34-1.15-11.01-2.12"/>
        <g>
          <path class="cls-8" d="m233.339,212.582l-8.717,19.444,2.272.942,5.471-14.75,4.987,2.07-6.579,14.289,2.383.988,7.672-21.307,16.238,6.737-13.866,33.418-38.793-16.096,13.36-32.199,15.572,6.462Z"/>
          <path class="cls-8" d="m280.503,184.955l-7.06,10.653-27.195-1.324-.231.782,21.427,9.595-9.845,14.854-35.009-23.203,7.259-10.952,22.962-.978.297-.883-17.028-7.542,9.414-14.204,35.009,23.202Z"/>
          <path class="cls-8" d="m302.318,163.013l-12.036,11.978-39.791-19.655,13.184-13.12,19.101,13.834.681-.677-13.869-19.04,13.227-13.163,19.504,39.844Z"/>
          <path class="cls-8" d="m298.807,134.226l-10.329-15.033,27.496-18.892,10.329,15.033-9.229,5.322,4.226,5.832,8.129-6.604,10.329,15.033-27.495,18.892-10.329-15.033,9.081-5.22-3.929-6.036-8.277,6.706Z"/>
          <path class="cls-8" d="m362.318,96.535l-19.588,8.387,1.032,2.233,14.019-7.137,2.265,4.902-14.523,6.047,1.083,2.343,20.082-10.466,7.373,15.959-32.845,15.172-17.613-38.128,31.647-14.619,7.07,15.307Z"/>
          <path class="cls-8" d="m405.401,110.927l-17.926,3.368-7.759-41.276,17.927-3.37c6.84-1.285,12.54-.515,17.101,2.312,4.561,2.827,7.462,7.541,8.703,14.146,1.249,6.645.263,12.121-2.956,16.429-3.221,4.31-8.25,7.106-15.09,8.393Zm-2.72-24.215l-6.191,1.164,1.208,6.427,6.191-1.163c4.442-.835,6.464-2.313,6.065-4.437-.407-2.162-2.831-2.826-7.273-1.991Z"/>
          <path class="cls-8" d="m463.797,81.88l-21.299-.657-.007,2.46,15.722-.559-.015,5.4-15.718-.642-.008,2.58,22.623-1.021-.046,17.58-36.181-.096.111-42,34.861.093-.045,16.86Z"/>
          <path class="cls-8" d="m501.769,115.216c-7.221-1.791-12.497-4.943-15.829-9.458-3.33-4.515-4.105-10.362-2.324-17.546,1.791-7.221,5.235-12.054,10.334-14.498,5.099-2.445,11.277-2.767,18.538-.967,4.813,1.194,9.134,2.884,12.96,5.069l-5.756,18.725c-1.195-1.161-2.867-2.275-5.012-3.344-2.146-1.067-4.365-1.887-6.655-2.455-6.872-1.704-10.573-1.488-11.103.646-.317,1.281.409,2.379,2.182,3.292,1.771.914,4.502,1.827,8.191,2.743,2.445.605,4.973.924,7.583.953,2.609.029,4.763-.22,6.46-.747l-4.664,19.305c-4.385.231-9.354-.341-14.905-1.719Z"/>
          <path class="cls-8" d="m541.6,111.232l-3.863-1.794-5.453,15.594-13.878-6.442,17.688-38.096,19.699,9.147c10.582,5.133,14.155,11.4,10.72,18.802-1.382,2.976-3.792,4.723-7.23,5.242-3.439.521-7.68-.39-12.723-2.73l-.303.652,3.373,1.566c4.354,2.021,6.91,5.017,7.67,8.985.76,3.97-.27,8.321-3.084,13.056l-15.619-7.252c2.664-3.173,4.411-6.485,5.242-9.937.83-3.451.084-5.716-2.238-6.794Zm6.23-6.436l-6.531-3.031-1.742,3.755,6.475,3.006c2.793,1.298,4.477,1.33,5.049.096.591-1.269-.494-2.545-3.25-3.825Z"/>
          <path class="cls-8" d="m598.424,135.999l-16.978-12.877-1.431,2.001,13.137,8.655-3.141,4.393-12.439-9.631-1.5,2.099,19.028,12.277-10.226,14.302-29.43-21.044,24.428-34.165,28.357,20.275-9.807,13.715Z"/>
          <path class="cls-8" d="m606.109,179.027l-11.712-12.296,20.523-39.35,12.828,13.468-14.25,18.794.662.694,19.34-13.449,12.869,13.512-40.261,18.627Z"/>
          <path class="cls-8" d="m655.443,205.108l-11.043-18.225-2.066,1.334,9.025,12.885-4.537,2.927-8.018-13.535-2.168,1.398,13.17,18.423-14.773,9.529-19.613-30.402,35.294-22.768,18.897,29.294-14.168,9.14Z"/>
          <path class="cls-8" d="m657.879,231.59l-1.614-3.941-14.601,7.729-5.798-14.158,38.866-15.918,8.232,20.099c4.271,10.959,2.632,17.984-4.918,21.077-3.037,1.243-5.992.887-8.867-1.069-2.876-1.956-5.368-5.507-7.476-10.651l-.667.273,1.41,3.442c1.82,4.441,1.658,8.376-.482,11.803-2.14,3.427-5.853,5.92-11.136,7.479l-6.526-15.936c4.109-.516,7.645-1.758,10.599-3.725,2.956-1.967,3.947-4.135,2.978-6.504Zm8.943-.485l-2.729-6.663-3.83,1.569,2.705,6.607c1.168,2.85,2.38,4.018,3.639,3.503,1.295-.531,1.367-2.204.216-5.017Z"/>
        </g>
      </g>
      <g>
        <path class="cls-10" d="m273.666,508.119c-2.257,0-4.548-.09-6.809-.268-5.691-.45-11.31-1.454-16.703-2.983-9.207-2.605-17.822-6.691-25.653-12.16-10.322,5.282-21.785,8.269-33.351,8.666-.956.037-1.94.057-2.928.057-2.048,0-4.135-.084-6.203-.249-18.153-1.418-35.154-8.975-48.321-21.398-13.588,9.014-29.289,13.758-45.674,13.758-2.18,0-4.393-.087-6.577-.259-5.632-.438-11.229-1.456-16.632-3.023-37.583-10.866-62.633-47.1-59.562-86.153,1.648-20.945,11.064-40.31,26.514-54.525,15.239-14.022,34.962-21.796,55.586-21.922,4.048-32.032,23.355-59.621,52.351-74.424,13.588-6.943,28.84-10.614,44.105-10.614,2.355,0,4.746.086,7.105.257.125.008.633.046.633.046,20.199,1.582,39.076,9.253,54.59,22.184,21.606,17.979,34.229,43.907,35.087,71.733,9.198.819,18.127,3.086,26.544,6.741,33.581,14.58,54.218,48.919,51.353,85.447-1.973,25.045-14.759,47.891-35.083,62.682-14.752,10.735-32.171,16.409-50.375,16.409Z"/>
        <path class="cls-8" d="m183.808,247.619c2.248,0,4.512.082,6.79.247.19.01.37.03.56.04,19.78,1.55,37.61,9.23,51.78,21.04,20.9,17.39,33.83,43.73,33.32,72.59,1.21.04,2.42.11,3.65.21,9.18.72,17.88,2.95,25.87,6.42,30.77,13.36,51.13,45.15,48.36,80.47-1.93,24.51-14.6,45.61-33.04,59.03-13.401,9.752-29.853,15.452-47.434,15.452-2.124,0-4.262-.083-6.416-.252-5.43-.43-10.69-1.38-15.73-2.81-9.79-2.77-18.77-7.31-26.62-13.24-10.14,5.73-21.7,9.14-33.92,9.56-.912.036-1.829.053-2.749.053-1.924,0-3.863-.078-5.811-.233-19.08-1.49-35.93-10.05-48.16-22.91-13.016,9.622-29.068,15.253-46.232,15.253-2.049,0-4.111-.08-6.188-.243-5.4-.42-10.63-1.39-15.63-2.84-34.79-10.06-58.92-43.45-55.97-80.96,3.214-40.846,37.351-71.841,77.626-71.841,1.325,0,2.656.034,3.994.101v-.03c2.62-33.21,22.48-60.93,50.12-75.04,12.623-6.451,26.865-10.067,41.83-10.067m0-10h0c-16.052,0-32.09,3.86-46.38,11.163-15.295,7.808-28.491,19.439-38.157,33.633-8.245,12.107-13.782,25.913-16.243,40.372-20.302,1.114-39.548,9.221-54.645,23.112-16.382,15.073-26.366,35.605-28.113,57.812-1.596,20.297,3.948,40.645,15.611,57.296,11.502,16.42,28.389,28.515,47.55,34.055,5.726,1.66,11.661,2.739,17.632,3.203,2.307.181,4.652.273,6.963.273,16.067,0,31.514-4.301,45.141-12.507,13.551,11.651,30.476,18.728,48.472,20.133,2.185.175,4.408.264,6.59.264,1.046,0,2.102-.021,3.139-.061,11.266-.387,22.471-3.101,32.734-7.901,7.621,4.961,15.902,8.723,24.694,11.211,5.7,1.617,11.645,2.68,17.663,3.156,2.397.188,4.819.284,7.205.284,19.268,0,37.705-6.005,53.318-17.367,21.507-15.652,35.038-39.828,37.125-66.331,3.032-38.659-18.809-74.997-54.347-90.428-7.581-3.292-15.552-5.52-23.762-6.645-2.015-27.605-15.073-53.123-36.665-71.089-16.307-13.591-36.156-21.658-57.395-23.322l-.129-.01-.08-.004-.045-.004c-.144-.012-.288-.022-.434-.031-2.472-.178-4.976-.269-7.443-.269h0Z"/>
      </g>
      <g>
        <path class="cls-12" d="m124.98,353.767c.34,3.109-7.192,4.987-15.915,5.114-9.018.132-16.213,1.548-16.554-1.562-.34-3.109,6.652-6.425,15.618-7.406,8.966-.981,16.51.745,16.85,3.854Z"/>
        <path class="cls-12" d="m271.746,367.773c-1.135,2.915-9.112,3.077-16.561-1.761-7.564-4.913-15.011-7.172-13.876-10.087,1.135-2.915,8.868-2.626,17.273.646,8.405,3.272,14.299,8.287,13.164,11.202Z"/>
        <path class="cls-3" d="m94.513,372.753c1.357-1.715,6.785-8.159,16.45-9.999,8.809-1.677,15.661,1.512,17.74,2.58"/>
        <path class="cls-3" d="m261.916,382.979c-.967-2.325-4.914-11.112-13.776-14.808-8.077-3.369-15.216-.416-17.401.605"/>
        <path d="m161.427,387.429c-26.025-5.191-34.606-23.499-47.826-20.408-7.928,1.854-13.453,10.451-14.264,17.492-2.263,19.663,30.635,41.15,60.831,47.375,35.854,7.391,82.54-3.715,93.555-28.79,4.729-10.766,3.665-25.89-4.615-30.247-10.216-5.377-23.496,9.807-58.314,14.213-11.143,1.41-19.087,2.415-29.367.364Z"/>
        <g class="cls-4">
          <path class="cls-12" d="m185.199,416.791c-13.445-2.682-17.878-12.14-24.708-10.543-4.096.958-6.95,5.399-7.369,9.037-1.169,10.159,1.718,20.379,17.318,23.595,18.523,3.819,70.565-4.975,76.255-17.929,2.443-5.562,15.901-18.563,11.623-20.814-5.278-2.778-39.96,14.191-57.948,16.467-5.757.728-9.861,1.248-15.172.188Z"/>
        </g>
        <g>
          <g>
            <path id="Tracé_43" data-name="Tracé 43" class="cls-8" d="m159.72,321.708c8.45.892,13.858,15.325,12.074,32.231-1.784,16.906-10.086,29.892-18.535,29-8.45-.892-13.865-15.319-12.08-32.231.223-2.117,8.526-3.748,8.526-3.748,0,0-6.455-6.82-5.685-9.177,3.1-9.605,9.355-16.744,15.701-16.074Z"/>
            <path id="Tracé_46" data-name="Tracé 46" d="m159.72,321.711c8.45.892,4.532,13.71,2.748,30.615-1.784,16.906-.76,31.507-9.209,30.616s-13.865-15.319-12.08-32.231c.223-2.117,8.526-3.748,8.526-3.748,0,0-6.455-6.82-5.685-9.177,3.1-9.605,9.355-16.744,15.701-16.074Z"/>
          </g>
          <path class="cls-3" d="m141.32,324.413c-.244,2.482.96,4.798,3.021,5.85,2.224,1.135,4.479.306,4.847.164"/>
          <path class="cls-3" d="m143.982,321.144c-.615,2.417.227,4.888,2.106,6.238,2.027,1.457,4.382.977,4.767.892"/>
          <path class="cls-3" d="m147.946,317.892c-1.068,2.254-.718,4.84.867,6.526,1.709,1.82,4.112,1.801,4.506,1.792"/>
        </g>
        <path class="cls-3" d="m197.703,316.59c1.726,1.8,2.213,4.364,1.243,6.465-1.046,2.267-3.331,3.01-3.708,3.126"/>
        <path class="cls-3" d="m206.052,320.679c1.017,2.277.607,4.855-1.015,6.505-1.75,1.78-4.152,1.707-4.546,1.689"/>
        <path class="cls-3" d="m202.492,318.42c1.348,2.098,1.332,4.708-.024,6.584-1.462,2.023-3.848,2.313-4.24,2.355"/>
        <g>
          <path id="Tracé_43-2" data-name="Tracé 43" class="cls-8" d="m192.191,320.909c8.45.892,13.858,15.325,12.074,32.231-1.784,16.906-10.086,29.892-18.535,29s-13.865-15.319-12.08-32.231c.223-2.117,8.526-3.748,8.526-3.748,0,0-6.455-6.82-5.685-9.177,3.1-9.605,9.355-16.744,15.701-16.074Z"/>
          <path id="Tracé_46-2" data-name="Tracé 46" d="m192.191,320.912c8.45.892,4.532,13.71,2.748,30.615-1.784,16.906-.76,31.507-9.209,30.616-8.45-.892-13.865-15.319-12.08-32.231.223-2.117,8.526-3.748,8.526-3.748,0,0-6.455-6.82-5.685-9.177,3.1-9.605,9.355-16.744,15.701-16.074Z"/>
        </g>
        <path id="nez" class="cls-11" d="m174.784,375.491c-7.561-9.036-16.577-12.192-22.036-8.552-.461.307-3.491,2.393-3.857,5.798-.811,7.531,11.817,17.777,21.531,15.069,1.83-.51,3.204-1.382,3.972-1.931"/>
      </g>
      <g>
        <path class="cls-6" d="m781.905,522.351c-7.146,0-14.305-.936-21.276-2.78-17.92-4.744-33.692-15.34-44.841-30.033-2.095.932-4.218,1.77-6.348,2.505-8.36,2.898-17.081,4.369-25.912,4.37-6.861,0-13.734-.899-20.431-2.673-3.889-1.031-7.641-2.329-11.154-3.857-9.92-4.25-18.7-10.366-26.123-18.195-7.497,2.092-15.21,3.151-22.973,3.151-3.434,0-6.904-.212-10.315-.629-3.849-.461-7.783-1.218-11.683-2.249-45.734-12.117-73.091-59.181-60.984-104.913,8.703-32.86,36.024-57.518,69.603-62.819,4.386-.693,8.858-1.044,13.295-1.044,7.091,0,14.193.891,21.124,2.648,5.173-13.373,13.295-25.531,23.678-35.392,14.837-14.088,34.142-23.318,54.358-25.991,4.193-.556,8.467-.838,12.699-.838,8.385,0,16.784,1.097,24.965,3.261,4.393,1.17,8.674,2.623,12.732,4.322,21.492,8.983,39.076,25.474,49.51,46.431,9.834,19.751,12.636,42.195,8.037,63.698,18.771,6.703,34.363,19.821,44.242,37.334,10.682,18.939,13.5,40.947,7.933,61.97-1.408,5.298-3.323,10.435-5.692,15.27-13.79,28.218-43.012,46.454-74.443,46.454Z"/>
        <path class="cls-8" d="m714.622,248.612c7.822,0,15.771,1.001,23.686,3.095,4.17,1.11,8.21,2.48,12.08,4.1,41.89,17.51,65.5,63.68,53.55,108.81l-.01.03c40.33,11.88,64.11,53.8,53.28,94.7-1.34,5.04-3.14,9.84-5.35,14.35-13.075,26.755-40.431,43.654-69.953,43.654-6.604,0-13.312-.845-19.997-2.614-18.89-5-34.31-16.52-44.5-31.51-3.1,1.58-6.3,2.95-9.6,4.09-7.71,2.672-15.905,4.095-24.281,4.095-6.323,0-12.748-.81-19.149-2.505-3.62-.96-7.11-2.16-10.44-3.61-10.41-4.46-19.39-11.13-26.54-19.3-7.834,2.505-16.109,3.841-24.551,3.841-3.217,0-6.458-.194-9.709-.591-3.67-.44-7.34-1.15-11.01-2.12-43.14-11.43-68.85-55.66-57.43-98.8,8.46-31.94,34.89-54.32,65.55-59.16,4.107-.649,8.291-.983,12.516-.983,6.846,0,13.802.877,20.734,2.713,1.19.31,2.36.65,3.52,1.01,4.91-14.84,13.29-27.68,23.99-37.84,14.07-13.36,32.13-22.09,51.57-24.66,3.965-.526,7.987-.795,12.044-.795m0-10c-4.452,0-8.946.297-13.359.882-21.25,2.809-41.545,12.513-57.141,27.322-9.87,9.371-17.797,20.719-23.247,33.2-5.963-1.215-12.04-1.832-18.111-1.832-4.697,0-9.433.372-14.077,1.106-35.533,5.609-64.446,31.703-73.656,66.477-12.812,48.398,16.139,98.204,64.535,111.027,4.129,1.091,8.293,1.892,12.381,2.382,3.588.439,7.263.662,10.899.662,7.226,0,14.411-.867,21.435-2.581,7.428,7.304,16.046,13.084,25.691,17.22,3.734,1.624,7.718,3.002,11.842,4.096,7.116,1.884,14.42,2.839,21.712,2.839,9.39,0,18.661-1.563,27.556-4.647,1.049-.362,2.097-.749,3.142-1.157,11.633,13.998,27.386,24.101,45.124,28.796,7.388,1.956,14.977,2.947,22.556,2.947,16.387,0,32.441-4.6,46.427-13.304,14.042-8.738,25.284-21.173,32.51-35.96,2.508-5.119,4.539-10.563,6.03-16.171,5.905-22.299,2.917-45.634-8.409-65.715-9.762-17.306-24.788-30.565-42.9-38.042,3.633-21.309.44-43.282-9.259-62.762-10.969-22.032-29.458-39.369-52.06-48.817-4.263-1.785-8.761-3.312-13.364-4.537-8.612-2.279-17.442-3.432-26.258-3.432h0Z"/>
      </g>
      <g>
        <g>
          <path id="Tracé_46-3" data-name="Tracé 46" class="cls-8" d="m715.098,299.475c8.45.892,13.858,15.325,12.074,32.231-1.784,16.906-10.086,29.892-18.535,29-8.45-.892-13.865-15.319-12.08-32.231.223-2.117,8.526-3.748,8.526-3.748,0,0-6.455-6.82-5.685-9.177,3.1-9.605,9.355-16.744,15.701-16.074Z"/>
          <path id="Tracé_46-4" data-name="Tracé 46" class="cls-5" d="m715.098,299.476c8.45.892,4.532,13.71,2.748,30.615-1.784,16.906-.76,31.507-9.209,30.616-8.45-.892-13.865-15.319-12.08-32.231.223-2.117,8.526-3.748,8.526-3.748,0,0-6.455-6.82-5.685-9.177,3.1-9.605,9.355-16.744,15.701-16.074Z"/>
        </g>
        <g>
          <path id="Tracé_43-3" data-name="Tracé 43" class="cls-8" d="m678.059,299.475c8.45.892,13.858,15.325,12.074,32.231-1.784,16.906-10.086,29.892-18.535,29-8.45-.892-13.865-15.319-12.08-32.231.223-2.117,8.526-3.748,8.526-3.748,0,0-6.455-6.82-5.685-9.177,3.1-9.605,9.355-16.744,15.701-16.074Z"/>
          <path id="Tracé_46-5" data-name="Tracé 46" class="cls-5" d="m678.059,299.478c8.45.892,4.532,13.71,2.748,30.615-1.784,16.906-.76,31.507-9.209,30.616s-13.865-15.319-12.08-32.231c.223-2.117,8.526-3.748,8.526-3.748,0,0-6.455-6.82-5.685-9.177,3.1-9.605,9.355-16.744,15.701-16.074Z"/>
        </g>
        <path class="cls-12" d="m729.874,341.198c-.644,3.061,6.553,3.889,15.221,4.873,8.962,1.017,16.097,4.914,16.741,1.853.644-3.061-5.989-7.048-14.815-8.905-8.826-1.857-16.503-.882-17.147,2.179Z"/>
        <path class="cls-12" d="m611.896,361.85c.127,4.467,5.416-1.169,11.842-7.301,6.526-6.226,19.481-5.508,17.827-8.163s-14.099-4.393-21.755.376c-7.656,4.768-8.004,11.962-7.915,15.088Z"/>
        <path id="nez-2" data-name="nez" class="cls-7" d="m695.391,352.248c-7.561-9.036-16.577-12.192-22.036-8.552-.461.307-3.491,2.393-3.857,5.798-.811,7.531,11.817,17.777,21.531,15.069,1.83-.51,3.204-1.382,3.972-1.931"/>
        <path class="cls-3" d="m760.991,360.771c-1.152-1.859-5.807-8.881-15.199-11.815-8.559-2.674-15.731-.289-17.919.535"/>
        <path class="cls-3" d="m619.108,373.847c.484-2.973,2.585-14.22,10.212-19.254,6.952-4.588,14.173-1.162,16.404.033"/>
        <path class="cls-5" d="m701.354,369.848c21.69-3.265,29.492-18.044,40.285-14.974,6.472,1.841,10.697,9.156,11.09,15.001,1.098,16.323-26.905,32.772-52.08,36.728-29.891,4.697-50.681-2.594-64.688-19.148-6.278-7.419-9.678-20.374-4.075-26.706,6.323-7.146,16.663,2.644,45.236,7.646,9.144,1.601,15.663,2.742,24.231,1.452Z"/>
        <g class="cls-2">
          <path class="cls-12" d="m730.026,389.965c-9.98-5.367-11.2-13.914-16.985-14.301-3.469-.232-6.798,2.589-8.007,5.364-3.378,7.748-3.563,16.524,7.992,22.833,13.72,7.492,56.981,13.108,64.607,4.243,3.274-3.807,17.052-10.833,14.214-13.646-3.501-3.47-35.014,1.567-49.783-.978-4.726-.814-8.096-1.395-12.038-3.515Z"/>
        </g>
      </g>
    </g>
  </g>
</svg>