<?xml version="1.0" encoding="UTF-8"?>
<svg id="Calque_2" data-name="Calque 2" xmlns="http://www.w3.org/2000/svg" viewBox="0 0 994.037 188.088">
  <defs>
    <style>
      .cls-1 {
        fill: #fff;
      }

      .cls-2 {
        fill: #ff97e4;
      }

      .cls-3 {
        fill: #24293a;
      }
    </style>
  </defs>
  <g id="assets">
    <g id="rhum">
      <g>
        <path class="cls-3" d="m35.069,5h923.899c16.595,0,30.068,13.473,30.068,30.068v117.951c0,16.595-13.473,30.068-30.068,30.068H35.069c-16.596,0-30.069-13.474-30.069-30.069V35.07c0-16.596,13.474-30.069,30.069-30.069Z"/>
        <path class="cls-1" d="m958.968,10c13.845,0,25.069,11.224,25.069,25.069v117.95c0,13.845-11.224,25.069-25.069,25.069H35.069c-13.845,0-25.069-11.224-25.069-25.069V35.069c0-13.845,11.224-25.069,25.069-25.069h923.899m0-10H35.069C15.732,0,0,15.732,0,35.069v117.95c0,19.337,15.732,35.069,35.069,35.069h923.899c19.337,0,35.069-15.732,35.069-35.069V35.069c0-19.337-15.732-35.069-35.069-35.069h0Z"/>
      </g>
      <g>
        <path class="cls-2" d="m774.643,137.172h-90.708l16.655-86.256h85.355l17.249,48.304h4.461l17.547-48.304h85.058l16.952,86.256h-91.006l15.169-52.247-4.462-.246-26.468,42.019h-30.039l-26.171-42.019-4.759.246,15.167,52.247Z"/>
        <path class="cls-2" d="m155.749,103.409h-21.116l8.029,33.763h-75.838V50.916h107.66c58.291.412,87.438,8.995,87.438,25.754,0,6.737-7.19,12.076-21.562,16.019-14.378,3.943-35.344,5.914-62.901,5.914v1.479h18.439c23.793,0,41.535,3.369,53.235,10.104,11.697,6.737,16.159,15.732,13.384,26.986h-85.355c5.353-8.213,6.292-15.896,2.825-23.042-3.472-7.147-11.553-10.721-24.238-10.721Zm14.572-17.374h-35.688v8.502h35.391c15.265,0,22.901-1.396,22.901-4.189,0-2.875-7.538-4.313-22.604-4.313Z"/>
        <path class="cls-2" d="m355.604,137.172h-79.407V50.916h79.407l-10.112,33.763h57.102l-10.112-33.763h78.813v86.256h-78.813l10.112-34.626h-57.102l10.112,34.626Z"/>
        <path class="cls-2" d="m583.412,139.02c-30.336,0-53.932-3.081-70.783-9.242-16.854-6.161-25.28-14.991-25.28-26.493v-52.37h74.351l-6.543,34.996c-.994,4.765.939,8.524,5.799,11.275,4.856,2.753,12.342,4.128,22.455,4.128,10.306,0,17.891-1.375,22.752-4.128,4.856-2.751,6.788-6.51,5.799-11.275l-6.544-34.996h74.351v52.37c0,11.419-8.429,20.23-25.278,26.432-16.854,6.203-40.55,9.303-71.08,9.303Z"/>
      </g>
    </g>
  </g>
</svg>