<?xml version="1.0" encoding="UTF-8"?>
<svg id="Calque_2" data-name="Calque 2" xmlns="http://www.w3.org/2000/svg" viewBox="0 0 1036.798 233.82">
  <defs>
    <style>
      .cls-1 {
        fill: #fff;
      }

      .cls-2 {
        fill: #ff316f;
      }
    </style>
  </defs>
  <g id="assets">
    <g id="rouges">
      <rect class="cls-2" y="38.368" width="1036.798" height="157.085" rx="45.545" ry="45.545"/>
      <g>
        <path class="cls-1" d="m138.157,108.86h-18.144l6.9,70.018H61.751V0h92.506c50.086.854,75.129,18.654,75.129,53.408,0,13.971-6.177,25.043-18.527,33.22-12.354,8.177-30.369,12.266-54.047,12.266v3.067h15.844c20.443,0,35.688,6.987,45.742,20.954,10.05,13.971,13.883,32.625,11.499,55.963h-73.34c4.6-17.033,5.406-32.965,2.428-47.786-2.983-14.821-9.927-22.232-20.827-22.232Zm12.521-36.031h-30.665v17.632h30.41c13.116,0,19.676-2.895,19.676-8.688,0-5.961-6.476-8.944-19.421-8.944Z"/>
        <path class="cls-1" d="m307.581,182.711c-22.831,0-40.719-6.005-53.664-18.016-12.948-12.01-19.421-28.577-19.421-49.703s6.473-37.692,19.421-49.703c12.945-12.01,30.833-18.016,53.664-18.016,22.998,0,41.014,6.005,54.047,18.016,13.032,12.011,19.549,28.581,19.549,49.703s-6.517,37.692-19.549,49.703c-13.033,12.011-31.049,18.016-54.047,18.016Zm0-57.752c17.033,0,25.554-3.322,25.554-9.966,0-6.812-8.521-10.222-25.554-10.222-16.698,0-25.043,3.41-25.043,10.222,0,6.644,8.345,9.966,25.043,9.966Z"/>
        <path class="cls-1" d="m430.494,182.711c-14.821,0-25.471-4.384-31.942-13.16-6.477-8.772-9.711-21.933-9.711-39.481V51.108h60.052l-5.11,46.764c-2.216,16.187,2.468,24.276,14.055,24.276,5.622,0,10.006-2.428,13.16-7.283,3.15-4.855,4.385-11.284,3.705-19.293l-3.833-44.464h57.753v127.771h-58.264l4.6-48.553h-3.322c-1.533,15.165-5.877,27.686-13.032,37.564-7.155,9.882-16.526,14.821-28.109,14.821Z"/>
        <path class="cls-1" d="m571.549,233.82c-14.993,0-26.62-6.049-34.881-18.144-8.262-12.098-9.411-27.003-3.45-44.72l13.033-42.419,32.965,7.155,1.021-2.811c-13.799-2.556-24.575-7.239-32.325-14.055-7.755-6.812-11.628-15.416-11.628-25.81,0-13.799,6.685-24.871,20.061-33.22,13.372-8.345,30.876-12.521,52.514-12.521,21.977,0,51.02,1.278,87.139,3.833v56.219l-36.798-33.987-1.788,2.044c9.878,7.155,14.821,16.782,14.821,28.876,0,11.076-5.538,19.804-16.61,26.193-11.076,6.388-26.664,9.583-46.764,9.583h-18.654l-4.089,8.944c-2.216,5.794-2.472,10.094-.767,12.905,1.7,2.811,4.6,4.217,8.688,4.217,4.767,0,9.794-1.957,15.076-5.877,5.279-3.917,11.284-7.834,18.016-11.755,6.729-3.917,14.183-5.877,22.36-5.877,40.375,0,52.896,29.131,37.564,87.395h-54.431c6.983-18.059,6.133-27.087-2.555-27.087-3.238,0-6.732,1.617-10.478,4.855-3.749,3.234-7.243,6.772-10.478,10.605-3.238,3.833-8.177,7.367-14.821,10.605-6.644,3.234-14.227,4.855-22.743,4.855Zm21.722-111.288c3.577,1.789,8.517,2.683,14.821,2.683s11.243-.895,14.821-2.683c3.577-1.789,5.366-4.128,5.366-7.027,0-6.644-6.732-9.966-20.188-9.966-6.305,0-11.244.895-14.821,2.684-3.578,1.789-5.367,4.216-5.367,7.283,0,2.899,1.789,5.239,5.367,7.027Z"/>
        <path class="cls-1" d="m776.751,182.711c-24.532,0-43.441-6.089-56.729-18.271-13.288-12.178-19.933-28.832-19.933-49.958,0-20.783,6.345-37.181,19.038-49.192,12.688-12.01,29.683-18.016,50.98-18.016,21.465,0,38.115,5.71,49.958,17.121,11.839,11.416,17.76,27.004,17.76,46.764,0,3.921-.427,7.411-1.277,10.477h-85.606c.168,3.578,3.617,6.305,10.35,8.177,6.728,1.877,15.033,2.811,24.915,2.811,16.354,0,30.665-2.979,42.931-8.944l1.533,49.064c-14.821,6.644-32.797,9.966-53.919,9.966Zm-26.065-70.785h39.099c-.344-4.939-2.301-8.772-5.878-11.5-3.577-2.723-8.094-4.088-13.544-4.088-11.076,0-17.632,5.199-19.677,15.588Z"/>
        <path class="cls-1" d="m905.029,182.711c-8.177,0-18.614-.854-31.304-2.555-12.693-1.701-22.959-3.662-30.793-5.877v-58.519c8.517,4.089,18.184,7.371,29.004,9.838,10.816,2.472,20.228,3.706,28.237,3.706,8.517,0,14.395-.295,17.633-.895,3.234-.595,4.855-2.172,4.855-4.728,0-1.701-2.728-2.851-8.178-3.45-5.454-.595-12.099-1.234-19.933-1.917-7.838-.679-15.676-1.873-23.51-3.578-7.838-1.701-14.481-5.151-19.932-10.35-5.454-5.194-8.178-11.966-8.178-20.315,0-11.583,5.79-20.611,17.377-27.087,11.583-6.472,28.193-9.71,49.831-9.71,18.398,0,35.859,2.644,52.386,7.922l.511,53.408c-12.949-7.667-28.792-11.5-47.53-11.5-7.155,0-12.311.299-15.461.895-3.154.599-4.728,2.004-4.728,4.216,0,1.365,2.724,2.344,8.178,2.938,5.45.599,12.095,1.366,19.933,2.3,7.833.938,15.672,2.428,23.51,4.472,7.833,2.044,14.478,5.71,19.932,10.988,5.45,5.283,8.178,12.01,8.178,20.188,0,12.777-6.134,22.576-18.399,29.387-12.266,6.812-29.475,10.222-51.619,10.222Z"/>
      </g>
    </g>
  </g>
</svg>