<?xml version="1.0" encoding="UTF-8"?>
<svg id="Calque_2" data-name="Calque 2" xmlns="http://www.w3.org/2000/svg" xmlns:xlink="http://www.w3.org/1999/xlink" viewBox="0 0 304.71 225.181">
  <defs>
    <style>
      .cls-1, .cls-2, .cls-3 {
        fill: none;
      }

      .cls-4 {
        fill: #020202;
      }

      .cls-5 {
        fill: #ffe45e;
      }

      .cls-6 {
        fill: #fff;
      }

      .cls-7 {
        fill: #ff97e4;
      }

      .cls-8, .cls-9 {
        fill: #3e67ed;
      }

      .cls-2, .cls-9 {
        stroke: #000;
        stroke-linecap: round;
        stroke-miterlimit: 10;
      }

      .cls-3 {
        clip-path: url(#clippath);
      }
    </style>
    <clipPath id="clippath">
      <path class="cls-1" d="m145.681,108.591c-21.69-3.265-29.492-18.044-40.285-14.974-6.472,1.841-10.697,9.156-11.09,15.001-1.098,16.323,26.905,32.772,52.08,36.728,29.891,4.697,68-6.303,76.11-27.437,3.482-9.074,2.011-21.518-4.996-24.791-8.645-4.038-19.014,9.018-47.587,14.02-9.144,1.601-15.663,2.742-24.231,1.452Z"/>
    </clipPath>
  </defs>
  <g id="assets">
    <g id="square">
      <g>
        <path class="cls-8" d="m237.313,220.181c-.721,0-1.444-.014-2.17-.041L5.184,211.486,10.873,60.317c.561-14.904,6.832-28.84,17.657-39.236,10.796-10.37,24.92-16.08,39.771-16.08.724,0,1.444.014,2.172.041l210.417,7.919c5.203.195,10.029,2.417,13.589,6.255,3.561,3.839,5.412,8.818,5.216,14.021l-4.953,131.627c-.561,14.905-6.832,28.841-17.657,39.238-10.796,10.369-24.92,16.079-39.772,16.079Z"/>
        <path class="cls-5" d="m68.302,10c.659,0,1.32.012,1.983.037l210.417,7.919c8,.301,14.299,7.093,13.998,15.093l-4.954,131.627c-1.06,28.179-24.458,50.506-52.432,50.506-.659,0-1.32-.012-1.983-.037l-224.962-8.466L15.87,60.506c1.06-28.179,24.458-50.505,52.432-50.506m0-10h0c-16.149,0-31.504,6.206-43.235,17.473C13.302,28.773,6.487,43.922,5.877,60.13L.376,206.301l-.376,9.993,9.993.376,224.962,8.466c.783.029,1.576.044,2.359.044,16.149,0,31.504-6.205,43.236-17.473,11.765-11.299,18.58-26.448,19.19-42.656l4.953-131.627c.509-13.53-10.084-24.952-23.615-25.462L70.661.044c-.783-.029-1.576-.044-2.359-.044h0Z"/>
      </g>
      <g>
        <path id="Tracé_46" data-name="Tracé 46" class="cls-6" d="m131.938,38.218c-8.45.892-13.858,15.325-12.074,32.231,1.784,16.906,10.086,29.892,18.535,29,8.45-.892,13.865-15.319,12.08-32.231-.223-2.117-8.526-3.748-8.526-3.748,0,0,6.455-6.82,5.685-9.177-3.1-9.605-9.355-16.744-15.701-16.074Z"/>
        <path id="Tracé_46-2" data-name="Tracé 46" class="cls-4" d="m131.938,38.219c-8.45.892-4.532,13.71-2.748,30.615,1.784,16.906.76,31.507,9.209,30.616s13.865-15.319,12.08-32.231c-.223-2.117-8.526-3.748-8.526-3.748,0,0,6.455-6.82,5.685-9.177-3.1-9.605-9.355-16.744-15.701-16.074Z"/>
      </g>
      <g>
        <path id="Tracé_43" data-name="Tracé 43" class="cls-6" d="m168.977,38.218c-8.45.892-13.858,15.325-12.074,32.231s10.086,29.892,18.535,29c8.45-.892,13.865-15.319,12.08-32.231-.223-2.117-8.526-3.748-8.526-3.748,0,0,6.455-6.82,5.685-9.177-3.1-9.605-9.355-16.744-15.701-16.074Z"/>
        <path id="Tracé_46-3" data-name="Tracé 46" class="cls-4" d="m168.977,38.222c-8.45.892-4.532,13.71-2.748,30.615,1.784,16.906.76,31.507,9.209,30.616,8.45-.892,13.865-15.319,12.08-32.231-.223-2.117-8.526-3.748-8.526-3.748,0,0,6.455-6.82,5.685-9.177-3.1-9.605-9.355-16.744-15.701-16.074Z"/>
      </g>
      <path class="cls-7" d="m235.14,100.593c-.127,4.467-5.416-1.169-11.842-7.301-6.526-6.226-19.481-5.508-17.827-8.163,1.654-2.655,14.099-4.393,21.755.376,7.656,4.768,8.004,11.962,7.915,15.088Z"/>
      <path class="cls-2" d="m86.045,99.514c1.152-1.859,5.807-8.881,15.199-11.815,8.559-2.674,15.731-.289,17.919.535"/>
      <path class="cls-7" d="m117.162,79.941c.644,3.061-6.553,3.889-15.221,4.873-8.962,1.017-16.097,4.914-16.741,1.853-.644-3.061,5.989-7.048,14.815-8.905,8.826-1.857,16.503-.882,17.147,2.179Z"/>
      <path id="nez" class="cls-9" d="m151.645,90.991c7.561-9.036,16.577-12.192,22.036-8.552.461.307,3.491,2.393,3.857,5.798.811,7.531-11.817,17.777-21.531,15.069-1.83-.51-3.204-1.382-3.972-1.931"/>
      <path class="cls-2" d="m227.927,112.59c-.484-2.973-2.585-14.22-10.212-19.254-6.952-4.588-14.173-1.162-16.404.033"/>
      <path class="cls-4" d="m145.681,108.591c-21.69-3.265-29.492-18.044-40.285-14.974-6.472,1.841-10.697,9.156-11.09,15.001-1.098,16.323,26.905,32.772,52.08,36.728,29.891,4.697,50.681-2.594,64.688-19.148,6.278-7.419,9.678-20.374,4.075-26.706-6.323-7.146-16.663,2.644-45.236,7.646-9.144,1.601-15.663,2.742-24.231,1.452Z"/>
      <g class="cls-3">
        <path class="cls-7" d="m117.01,128.708c9.98-5.367,11.2-13.914,16.985-14.301,3.469-.232,6.798,2.589,8.007,5.364,3.378,7.748,3.563,16.524-7.992,22.833-13.72,7.492-56.981,13.108-64.607,4.243-3.274-3.807-17.052-10.833-14.214-13.646,3.501-3.47,35.014,1.567,49.783-.978,4.726-.814,8.096-1.395,12.038-3.515Z"/>
      </g>
    </g>
  </g>
</svg>