<?xml version="1.0" encoding="UTF-8"?>
<svg id="Calque_2" data-name="Calque 2" xmlns="http://www.w3.org/2000/svg" xmlns:xlink="http://www.w3.org/1999/xlink" viewBox="0 0 308.095 310.455">
  <defs>
    <style>
      .cls-1, .cls-2, .cls-3 {
        fill: none;
      }

      .cls-4, .cls-5 {
        fill: #ffe45e;
      }

      .cls-6 {
        fill: #fff;
      }

      .cls-7 {
        fill: #ff97e4;
      }

      .cls-8 {
        fill: #ff6392;
      }

      .cls-2, .cls-5 {
        stroke: #000;
        stroke-linecap: round;
        stroke-miterlimit: 10;
      }

      .cls-3 {
        clip-path: url(#clippath);
      }
    </style>
    <clipPath id="clippath">
      <path class="cls-1" d="m113.491,142.25c-26.025-5.191-34.606-23.499-47.826-20.408-7.928,1.854-13.453,10.451-14.264,17.492-2.263,19.663,30.635,41.15,60.831,47.375,35.854,7.391,82.54-3.715,93.555-28.79,4.729-10.766,3.665-25.89-4.615-30.247-10.216-5.377-23.496,9.807-58.314,14.213-11.143,1.41-19.087,2.415-29.367.364Z"/>
    </clipPath>
  </defs>
  <g id="assets">
    <g id="sunny">
      <g id="Polygone_1" data-name="Polygone 1">
        <path class="cls-4" d="m168.928,306.729c-2.062-.364-4.071-1.004-5.972-1.903l-28.755-13.59c-2.439-1.153-5.023-1.975-7.68-2.445-2.657-.469-5.366-.582-8.052-.335l-31.671,2.916c-2.094.193-4.201.106-6.263-.258-7.601-1.343-14.07-6.329-17.305-13.339l-13.228-28.662c-2.281-4.942-5.856-9.185-10.34-12.27l-26.03-17.91c-8.268-5.689-12.032-16.012-9.364-25.688l8.312-30.151c1.456-5.281,1.453-10.863-.009-16.142l-8.346-30.152c-2.684-9.697,1.087-20.037,9.383-25.73l25.902-17.772c4.505-3.091,8.095-7.348,10.382-12.311l13.134-28.507c4.183-9.08,13.681-14.548,23.635-13.606l31.61,2.992c5.4.511,10.849-.439,15.758-2.748l28.715-13.506c4.428-2.083,9.317-2.734,14.136-1.883,4.819.851,9.188,3.138,12.635,6.612l22.35,22.526c3.821,3.851,8.614,6.61,13.863,7.98l30.722,8.019c9.674,2.525,16.723,10.916,17.543,20.88l2.572,31.282c.448,5.445,2.362,10.675,5.535,15.123l18.246,25.57c5.844,8.191,5.844,19.197,0,27.388l-18.171,25.468c-3.182,4.459-5.097,9.702-5.538,15.162l-2.522,31.174c-.809,10.004-7.882,18.413-17.599,20.925l-30.591,7.908c-5.27,1.362-10.082,4.123-13.918,7.985l-22.247,22.396c-5.441,5.477-13.227,7.945-20.828,6.603Z"/>
        <path class="cls-8" d="m176.291,7.045c-4.131-.73-8.321-.172-12.116,1.614l-28.714,13.506c-5.454,2.565-11.508,3.621-17.509,3.053l-31.61-2.992c-8.531-.807-16.673,3.879-20.258,11.662l-13.134,28.507c-2.54,5.514-6.529,10.244-11.535,13.679l-25.902,17.772c-7.112,4.879-10.344,13.742-8.043,22.054l8.346,30.152c1.624,5.866,1.627,12.068.01,17.936l-8.312,30.151c-2.286,8.293.939,17.142,8.027,22.018l26.03,17.91c4.982,3.428,8.955,8.143,11.489,13.634l13.228,28.662c2.773,6.009,8.318,10.283,14.833,11.434,1.767.312,3.573.387,5.368.221l31.671-2.916c5.97-.55,12.06.526,17.48,3.088l28.755,13.59c1.63.77,3.352,1.319,5.119,1.631,6.515,1.151,13.189-.965,17.853-5.66l22.247-22.396c4.262-4.291,9.61-7.359,15.465-8.872l30.591-7.908c8.329-2.153,14.391-9.361,15.084-17.936l2.522-31.174c.491-6.067,2.619-11.892,6.154-16.847l18.171-25.468c5.009-7.021,5.009-16.455,0-23.475l-18.246-25.57c-3.526-4.942-5.653-10.753-6.151-16.803l-2.572-31.282c-.702-8.541-6.745-15.733-15.037-17.897l-30.722-8.019c-5.832-1.522-11.158-4.588-15.403-8.867l-22.35-22.526c-2.954-2.978-6.699-4.937-10.83-5.667m1.172-6.633c5.356.946,10.426,3.51,14.44,7.556l22.35,22.526c3.398,3.425,7.654,5.875,12.322,7.094l30.722,8.019c11.072,2.89,19.111,12.458,20.049,23.863l2.572,31.282c.398,4.843,2.098,9.487,4.92,13.443l18.246,25.57c6.681,9.364,6.681,21.936,0,31.3l-18.171,25.468c-2.829,3.965-4.53,8.623-4.923,13.478l-2.522,31.174c-.926,11.442-8.999,21.041-20.113,23.914l-30.591,7.908c-4.687,1.212-8.96,3.663-12.372,7.098l-22.247,22.396c-8.042,8.096-20.312,10.248-30.629,5.372l-28.755-13.59c-4.357-2.059-9.186-2.912-13.984-2.47l-31.671,2.916c-11.363,1.046-22.154-5.179-26.935-15.54l-13.228-28.662c-2.028-4.395-5.203-8.163-9.191-10.907l-26.03-17.91c-9.457-6.507-13.753-18.291-10.702-29.358l8.312-30.151c1.294-4.696,1.292-9.654-.008-14.348L.978,117.697c-3.069-11.086,1.239-22.898,10.724-29.406l25.902-17.772c4.006-2.749,7.195-6.53,9.228-10.943l13.134-28.507c4.788-10.393,15.619-16.628,27.011-15.55l31.61,2.992c4.803.455,9.641-.389,14.007-2.442l28.714-13.506c5.157-2.426,10.799-3.098,16.155-2.152Z"/>
      </g>
      <g>
        <g>
          <path id="Tracé_46" data-name="Tracé 46" class="cls-6" d="m148.824,76.529c8.45.892,13.858,15.325,12.074,32.231-1.784,16.906-10.086,29.892-18.535,29s-13.865-15.319-12.08-32.231c.223-2.117,8.526-3.748,8.526-3.748,0,0-6.455-6.82-5.685-9.177,3.1-9.605,9.355-16.744,15.701-16.074Z"/>
          <path id="Tracé_46-2" data-name="Tracé 46" d="m148.824,76.53c8.45.892,4.532,13.71,2.748,30.615-1.784,16.906-.76,31.507-9.209,30.616-8.45-.892-13.865-15.319-12.08-32.231.223-2.117,8.526-3.748,8.526-3.748,0,0-6.455-6.82-5.685-9.177,3.1-9.605,9.355-16.744,15.701-16.074Z"/>
        </g>
        <g>
          <path id="Tracé_43" data-name="Tracé 43" class="cls-6" d="m111.785,76.529c8.45.892,13.858,15.325,12.074,32.231-1.784,16.906-10.086,29.892-18.535,29-8.45-.892-13.865-15.319-12.08-32.231.223-2.117,8.526-3.748,8.526-3.748,0,0-6.455-6.82-5.685-9.177,3.1-9.605,9.355-16.744,15.701-16.074Z"/>
          <path id="Tracé_46-3" data-name="Tracé 46" d="m111.785,76.532c8.45.892,4.532,13.71,2.748,30.615-1.784,16.906-.76,31.507-9.209,30.616s-13.865-15.319-12.08-32.231c.223-2.117,8.526-3.748,8.526-3.748,0,0-6.455-6.82-5.685-9.177,3.1-9.605,9.355-16.744,15.701-16.074Z"/>
        </g>
        <path class="cls-7" d="m77.045,108.587c.34,3.109-7.192,4.987-15.915,5.114-9.018.132-16.213,1.548-16.554-1.562-.34-3.109,6.652-6.425,15.618-7.406,8.966-.981,16.51.745,16.85,3.854Z"/>
        <path class="cls-7" d="m223.811,122.594c-1.135,2.915-9.112,3.077-16.561-1.761-7.564-4.913-15.011-7.172-13.876-10.087,1.135-2.915,8.868-2.626,17.273.646,8.405,3.272,14.299,8.287,13.164,11.202Z"/>
        <path id="nez" class="cls-5" d="m126.849,130.311c-7.561-9.036-16.577-12.192-22.036-8.552-.461.307-3.491,2.393-3.857,5.798-.811,7.531,11.817,17.777,21.531,15.069,1.83-.51,3.204-1.382,3.972-1.931"/>
        <path class="cls-2" d="m46.577,127.574c1.357-1.715,6.785-8.159,16.45-9.999,8.809-1.677,15.661,1.512,17.74,2.58"/>
        <path class="cls-2" d="m213.981,137.8c-.967-2.325-4.914-11.112-13.776-14.808-8.077-3.369-15.216-.416-17.401.605"/>
        <path d="m113.491,142.25c-26.025-5.191-34.606-23.499-47.826-20.408-7.928,1.854-13.453,10.451-14.264,17.492-2.263,19.663,30.635,41.15,60.831,47.375,35.854,7.391,82.54-3.715,93.555-28.79,4.729-10.766,3.665-25.89-4.615-30.247-10.216-5.377-23.496,9.807-58.314,14.213-11.143,1.41-19.087,2.415-29.367.364Z"/>
        <g class="cls-3">
          <path class="cls-7" d="m137.264,171.612c-13.445-2.682-17.878-12.14-24.708-10.543-4.096.958-6.95,5.399-7.369,9.037-1.169,10.159,1.718,20.379,17.318,23.595,18.523,3.819,70.565-4.975,76.255-17.929,2.443-5.562,15.901-18.563,11.623-20.814-5.278-2.778-39.96,14.191-57.948,16.467-5.757.728-9.861,1.248-15.172.188Z"/>
        </g>
      </g>
    </g>
  </g>
</svg>