<?xml version="1.0" encoding="UTF-8"?>
<svg id="Calque_2" data-name="Calque 2" xmlns="http://www.w3.org/2000/svg" xmlns:xlink="http://www.w3.org/1999/xlink" viewBox="0 0 1568.29 734.095">
  <defs>
    <style>
      .cls-1, .cls-2, .cls-3, .cls-4, .cls-5, .cls-6, .cls-7, .cls-8, .cls-9, .cls-10, .cls-11, .cls-12, .cls-13 {
        fill: none;
      }

      .cls-2, .cls-9, .cls-14, .cls-15, .cls-16, .cls-17, .cls-10, .cls-11, .cls-18, .cls-19, .cls-13 {
        stroke-miterlimit: 10;
      }

      .cls-2, .cls-9, .cls-14, .cls-15, .cls-16, .cls-17, .cls-10, .cls-11, .cls-19, .cls-13 {
        stroke: #000;
        stroke-linecap: round;
      }

      .cls-2, .cls-19 {
        stroke-width: 1.061px;
      }

      .cls-3 {
        clip-path: url(#clippath-5);
      }

      .cls-4 {
        clip-path: url(#clippath-3);
      }

      .cls-5 {
        clip-path: url(#clippath-4);
      }

      .cls-6 {
        clip-path: url(#clippath-2);
      }

      .cls-7 {
        clip-path: url(#clippath-1);
      }

      .cls-8 {
        stroke: #fac840;
        stroke-miterlimit: 4;
        stroke-width: 5.431px;
      }

      .cls-20 {
        fill: #020202;
      }

      .cls-21, .cls-16, .cls-17 {
        fill: #ffe45e;
      }

      .cls-22 {
        fill: #fff;
      }

      .cls-23 {
        fill: #ffba28;
      }

      .cls-24 {
        fill: #ff316f;
      }

      .cls-25, .cls-14 {
        fill: #ff50da;
      }

      .cls-26, .cls-18 {
        fill: #ff97e4;
      }

      .cls-27 {
        fill: #ff6392;
      }

      .cls-28, .cls-19 {
        fill: #9bdd50;
      }

      .cls-29, .cls-15 {
        fill: #3e67ed;
      }

      .cls-15, .cls-11 {
        stroke-width: 1.064px;
      }

      .cls-16, .cls-10 {
        stroke-width: 1.024px;
      }

      .cls-17, .cls-13 {
        stroke-width: 1.311px;
      }

      .cls-18 {
        stroke: #fff;
        stroke-width: .764px;
      }

      .cls-12 {
        clip-path: url(#clippath);
      }
    </style>
    <clipPath id="clippath">
      <rect class="cls-1" x="23.012" y="85.544" width="1432.319" height="465.251" transform="translate(-33.265 92.454) rotate(-7)"/>
    </clipPath>
    <clipPath id="clippath-1">
      <path class="cls-1" d="m923.107,566.727c23.182,2.742,35.343-10.236,45.56-4.052,6.127,3.709,8.409,12.404,7.17,18.515-3.459,17.064-36.827,26.082-63.78,23.069-32.003-3.577-68.031-25.576-70.419-49.548-1.025-10.293,3.982-22.654,12.094-24.045,10.009-1.716,16.984,14.599,44.909,27.762,8.937,4.213,15.308,7.216,24.465,8.299Z"/>
    </clipPath>
    <clipPath id="clippath-2">
      <path class="cls-1" d="m215.999,351.794c-27.782-7.437-35.779-27.838-50.293-25.421-8.703,1.449-15.282,10.36-16.651,17.918-3.825,21.107,30.248,46.649,62.469,55.497,38.257,10.505,89.525,1.765,103.193-24.581,5.868-11.312,5.777-27.742-2.872-33.035-10.672-6.53-26.097,8.96-64.061,11.285-12.15.744-20.811,1.275-31.785-1.663Z"/>
    </clipPath>
    <clipPath id="clippath-3">
      <path class="cls-1" d="m1115.984,488.324c-26.644-5.314-35.429-24.058-48.963-20.893-8.116,1.898-13.773,10.699-14.603,17.908-2.317,20.131,31.363,42.129,62.278,48.502,36.707,7.567,84.503-3.803,95.779-29.474,4.841-11.022,3.752-26.506-4.725-30.967-10.459-5.504-24.055,10.041-59.701,14.551-11.408,1.443-19.541,2.472-30.065.373Z"/>
    </clipPath>
    <clipPath id="clippath-4">
      <path class="cls-1" d="m310.758,526.704c-13.009-4.327-19.296-27.773-25.215-22.371-3.549,3.239-5.144,15.189-4.683,24.611,1.289,26.311,19.53,51.582,34.649,56.871,17.951,6.28,38.831-13.047,41.054-47.398.955-14.749-1.372-34.709-5.836-39.676-5.509-6.128-10,15.323-26.039,24.592-5.133,2.967-8.792,5.081-13.931,3.372Z"/>
    </clipPath>
    <clipPath id="clippath-5">
      <path class="cls-1" d="m1365.324,339.341c-26.025-5.191-34.606-23.499-47.826-20.408-7.928,1.854-13.453,10.451-14.264,17.492-2.263,19.663,30.635,41.15,60.831,47.375,35.854,7.391,82.54-3.715,93.555-28.79,4.729-10.766,3.665-25.89-4.615-30.247-10.216-5.377-23.496,9.807-58.314,14.213-11.143,1.41-19.087,2.415-29.367.364Z"/>
    </clipPath>
  </defs>
  <g id="Composistions">
    <g id="all">
      <g id="cicle-star">
        <g class="cls-12">
          <g id="Groupe_53" data-name="Groupe 53">
            <path id="Tracé_40" data-name="Tracé 40" class="cls-23" d="m1425.507,34.892c-6.75-15.784-52.502-13.661-125.874,3.004-.868-.922-1.521-2.024-1.913-3.228-1.504-6.278-2.304-12.704-2.384-19.159.394,6.653.108,13.329-.854,19.924-.317,1.421-.859,2.782-1.604,4.033-131.901,30.888-348.039,106.404-586.618,208.293C327.832,409.394,36.3,576.139,55.138,620.201c18.838,44.062,340.801-51.29,719.262-212.915C1152.861,245.662,1444.347,78.932,1425.506,34.887m-9.071,20.528c-9.756,11.786-20.863,22.384-33.095,31.575-30.355,24.191-75.947,53.685-135.673,87.858-59.726,34.173-130.499,71.235-210.382,110.086-82.693,40.199-171.462,80.614-263.933,120.104-92.471,39.49-183.035,75.712-269.24,107.611-83.216,30.771-158.975,56.329-224.945,75.842s-118.849,32.056-157.288,37.29c-15.098,2.493-30.436,3.205-45.7,2.122-10.516-1.201-16.825-4.126-18.785-8.671-1.959-4.545.317-11.095,6.708-19.556,9.775-11.788,20.9-22.387,33.147-31.581,30.35-24.191,75.987-53.743,135.718-87.916,59.731-34.174,130.502-71.167,210.303-110.003,82.687-40.246,171.451-80.66,263.922-120.155,92.471-39.495,183.067-75.669,269.266-107.614,83.215-30.771,158.975-56.329,224.893-75.835,33.414-9.917,63.536-18.012,90.097-24.254,1.71.804,2.972,2.328,3.444,4.158,1.497,6.297,2.288,12.742,2.359,19.214-.404-6.674-.102-13.371.9-19.982.422-2.139,1.484-4.1,3.046-5.621,21.779-4.958,40.95-8.559,57.511-10.803,15.099-2.501,30.443-3.196,45.706-2.07,10.521,1.201,16.833,4.099,18.79,8.67,1.957,4.571-.317,11.095-6.759,19.568"/>
          </g>
        </g>
      </g>
      <g id="globe">
        <g id="Ellipse_6" data-name="Ellipse 6">
          <ellipse class="cls-22" cx="511.924" cy="462.622" rx="233.565" ry="128.949" transform="translate(-96.712 137.588) rotate(-14)"/>
          <ellipse class="cls-8" cx="511.924" cy="462.622" rx="230.85" ry="126.233" transform="translate(-96.712 137.588) rotate(-14)"/>
        </g>
        <path id="globe-solid" class="cls-24" d="m548.185,452.013c2.248,7.847,4.092,15.805,5.526,23.841l-68.059,19.516c-3.061-7.568-5.714-15.294-7.948-23.147-2.248-7.847-4.092-15.805-5.526-23.841l68.059-19.516c3.061,7.568,5.714,15.294,7.948,23.147Zm3.835-26.525l45.186-12.957c8.384,14.275,13.019,30.439,13.473,46.988l-45.186,12.957c-1.45-8.033-3.306-15.986-5.562-23.831-2.244-7.848-4.884-15.577-7.911-23.157Zm37.965-23.599l-42.837,12.283c-10.397-22.405-23.294-39.934-36.251-49.83,30.789-.603,60.069,13.308,79.051,37.557l.037-.01Zm-54.735,15.695l-64.827,18.589c-1.554-12.488-1.57-25.118-.049-37.61.851-7.843,3.182-15.454,6.869-22.429,1.769-3.7,4.909-6.566,8.755-7.991,4.016-.83,8.198-.063,11.659,2.137,6.825,3.96,12.836,9.178,17.716,15.379,7.932,9.771,14.611,20.495,19.883,31.923h-.005Zm-76.746,22.007l-42.811,12.276c3.261-30.631,20.733-57.947,47.173-73.751-5.744,15.258-7.392,36.958-4.336,61.468l-.026.007Zm-43.296,25.128l45.186-12.957c2.914,16.073,7.427,31.813,13.473,46.988l-45.186,12.957c-8.384-14.275-13.019-30.439-13.473-46.988Zm95.295,73.812c-7.926-9.761-14.603-20.472-19.878-31.885l64.838-18.592c1.556,12.475,1.569,25.095.039,37.573-.852,7.844-3.185,15.456-6.874,22.43-1.747,3.719-4.884,6.605-8.736,8.036-4.016.83-8.198.063-11.659-2.137-6.825-3.96-12.836-9.178-17.716-15.379l-.013-.047Zm-31.763-28.465c10.381,22.409,23.322,39.954,36.256,49.828-30.8.61-60.094-13.296-79.093-37.545l42.837-12.283Zm131.456-37.694c-3.261,30.622-20.721,57.932-47.147,73.744,5.765-15.264,7.366-36.951,4.347-61.471l42.801-12.273Z"/>
      </g>
      <g id="hot_war">
        <g>
          <path class="cls-22" d="m1482.636,677.795c-.816,0-1.637-.061-2.458-.184l-282.581-42.55c-5.829-.878-10.747-4.798-12.901-10.285-2.154-5.487-1.218-11.706,2.457-16.315l178.14-223.447c3.157-3.959,7.923-6.214,12.899-6.214.816,0,1.637.061,2.458.184,5.829.877,10.747,4.798,12.901,10.285l104.441,265.997c2.154,5.487,1.218,11.706-2.457,16.315-3.157,3.959-7.923,6.214-12.899,6.214Z"/>
          <path class="cls-28" d="m1378.193,395.298l104.441,265.997-282.581-42.55,178.14-223.447m-.004-32.998c-9.953,0-19.484,4.508-25.798,12.428l-178.14,223.447c-7.349,9.218-9.222,21.656-4.913,32.629,4.309,10.974,14.144,18.814,25.801,20.57l282.581,42.55c1.641.247,3.286.368,4.917.368,9.953,0,19.484-4.508,25.798-12.428,7.349-9.218,9.222-21.656,4.913-32.629l-104.44-265.998c-4.309-10.973-14.144-18.814-25.802-20.57-1.641-.247-3.286-.368-4.917-.368h0Z"/>
        </g>
        <path class="cls-24" d="m1330.492,480.785c1.908-2.237,5.22-2.583,7.578-.827,8.346,6.231,16.29,13.062,23.839,20.574,2.564-4.277,5.498-8.956,8.795-12.873,1.932-2.267,5.268-2.644,7.66-.836,10.48,7.957,19.837,18.976,26.747,29.662,6.81,10.531,11.788,21.518,12.694,29.558,3.936,34.894-20.031,67.451-53.995,71.282-34.347,3.874-64.583-22.598-68.519-57.491-1.184-10.501,2.237-23.875,8.353-37.415,6.177-13.741,15.437-28.383,26.848-41.634Zm30.822,110.235c6.919-.78,12.828-3.385,18.166-7.865,10.606-9.338,11.882-25.766,3.539-37.62-1.508-2.322-4.671-2.132-6.215.147l-5.988,8.79c-1.57,2.282-4.831,2.594-6.77.625-5.16-5.234-14.384-14.579-19.635-19.885-1.97-1.993-5.254-1.651-6.758.734-7.932,12.665-11.754,20.518-10.826,28.749,2.14,18.729,17.229,28.271,34.485,26.325Z"/>
      </g>
      <g id="square">
        <g>
          <path class="cls-29" d="m799.933,656.098c-15.851-3.704-29.342-13.408-37.986-27.325-8.645-13.917-11.366-30.311-7.662-46.162l31.897-136.508c2.176-9.315,10.708-16.076,20.285-16.076,1.582,0,3.169.183,4.717.545l218.22,50.991c32.846,7.675,53.324,40.641,45.649,73.487l-36.634,156.774-238.486-55.727Z"/>
          <path class="cls-21" d="m806.467,435.349c1.157,0,2.333.131,3.506.405l218.22,50.991c29.913,6.99,48.668,37.182,41.678,67.095l-35.422,151.592-233.304-54.516c-29.913-6.99-48.668-37.183-41.678-67.095l31.898-136.508c1.665-7.124,8.073-11.965,15.104-11.965m0-10.643c-12.218,0-22.69,8.301-25.467,20.187l-31.898,136.507c-8.343,35.704,13.917,71.538,49.62,79.88l233.304,54.516,10.364,2.422,2.422-10.364,35.422-151.592c8.343-35.703-13.917-71.537-49.62-79.879l-218.22-50.991c-1.945-.455-3.939-.685-5.927-.685h0Z"/>
        </g>
        <g>
          <path id="Tracé_46" data-name="Tracé 46" class="cls-22" d="m956.987,498.351c8.423,3.289,9.919,19.624,3.338,36.477-6.581,16.853-18.752,27.851-27.175,24.562s-9.929-19.62-3.345-36.48c.824-2.111,9.805-1.452,9.805-1.452,0,0-4.71-8.814-3.257-11.018,5.881-8.989,14.308-14.559,20.633-12.089Z"/>
          <path id="Tracé_46-2" data-name="Tracé 46" class="cls-20" d="m956.987,498.352c8.423,3.289.8,15.346-5.781,32.199-6.581,16.853-9.632,32.129-18.055,28.84-8.423-3.289-9.929-19.62-3.345-36.48.824-2.111,9.805-1.452,9.805-1.452,0,0-4.71-8.814-3.257-11.018,5.881-8.989,14.308-14.559,20.633-12.089Z"/>
        </g>
        <g>
          <path id="Tracé_43" data-name="Tracé 43" class="cls-22" d="m918.966,487.944c8.423,3.289,9.919,19.624,3.338,36.477-6.581,16.853-18.752,27.851-27.175,24.562-8.423-3.289-9.929-19.62-3.345-36.48.824-2.111,9.805-1.452,9.805-1.452,0,0-4.71-8.814-3.257-11.018,5.881-8.989,14.308-14.559,20.633-12.089Z"/>
          <path id="Tracé_46-3" data-name="Tracé 46" class="cls-20" d="m918.965,487.948c8.423,3.289.8,15.346-5.781,32.199-6.581,16.853-9.632,32.129-18.055,28.84-8.423-3.289-9.929-19.62-3.345-36.48.824-2.111,9.805-1.452,9.805-1.452,0,0-4.71-8.814-3.257-11.018,5.881-8.989,14.308-14.559,20.633-12.089Z"/>
        </g>
        <path class="cls-26" d="m833.524,533.383c-1.124,4.622,5.888.321,14.208-4.167,8.448-4.558,21.545-.18,20.593-3.37-.952-3.19-13.239-8.47-22.437-5.727-9.198,2.744-11.577,10.03-12.364,13.265Z"/>
        <path class="cls-11" d="m986.875,574.166c-.66-2.232-3.466-10.748-12.282-16.398-8.035-5.149-16.067-4.716-18.544-4.486"/>
        <path class="cls-26" d="m960.432,545.332c-1.521,2.961,5.634,5.833,14.256,9.278,8.914,3.562,15.143,9.567,16.664,6.606,1.521-2.961-4.167-8.917-12.706-13.304-8.538-4.386-16.693-5.542-18.214-2.581Z"/>
        <path id="nez" class="cls-15" d="m921.93,546.986c-5.223-11.4-13.591-17.173-20.217-14.97-.559.186-4.256,1.476-5.588,4.867-2.948,7.503,7.135,21.569,17.868,21.518,2.022-.009,3.677-.518,4.62-.866"/>
        <path class="cls-11" d="m837.557,547.725c1.332-2.916,6.648-13.871,15.892-16.895,8.425-2.756,14.875,2.789,16.83,4.643"/>
        <path class="cls-20" d="m923.107,566.727c23.182,2.742,35.343-10.236,45.56-4.052,6.127,3.709,8.409,12.404,7.17,18.515-3.459,17.064-36.827,26.082-63.78,23.069-32.003-3.577-51.295-16.902-61.023-37.831-4.36-9.38-4.21-23.633,3.321-28.559,8.499-5.559,16.361,7.396,44.287,20.558,8.937,4.213,15.308,7.216,24.465,8.299Z"/>
        <g class="cls-7">
          <path class="cls-26" d="m946.887,595.433c-8.737-8.313-7.588-17.429-13.417-19.452-3.495-1.213-7.706.748-9.727,3.256-5.644,7.004-8.3,15.96,1.788,25.684,11.978,11.545,54.808,29.465,65.127,22.507,4.431-2.988,20.548-6.33,18.425-10.014-2.619-4.546-36.383-8.229-50.827-14.991-4.623-2.164-7.918-3.707-11.37-6.99Z"/>
        </g>
      </g>
      <g id="slice">
        <g>
          <path class="cls-21" d="m279.916,531.161c-36.032,0-71.506-9.498-102.587-27.467-47.195-27.285-81.026-71.64-95.261-124.892-14.235-53.252-7.048-108.571,20.237-155.766l3.281-5.676,178.573,103.241,146.486,145.221-4.616,4.656c-19.427,19.596-42.242,34.836-67.812,45.298-24.952,10.209-51.297,15.385-78.302,15.385Z"/>
          <path class="cls-22" d="m107.981,226.317l172.165,99.536,141.229,140.009c-38.266,38.599-89.619,58.743-141.459,58.743-34.083,0-68.369-8.701-99.306-26.587-94.447-54.604-127.233-177.254-72.629-271.701m-4.789-17.914l-6.562,11.352c-14.23,24.613-23.191,51.392-26.633,79.593-3.319,27.187-1.389,54.488,5.738,81.147,7.126,26.659,19.076,51.282,35.518,73.187,17.055,22.722,38.183,41.458,62.795,55.688,32.077,18.545,68.686,28.348,105.868,28.348,27.861,0,55.041-5.341,80.785-15.874,26.39-10.797,49.936-26.526,69.986-46.75l9.231-9.312-9.312-9.231-141.229-140.009-1.203-1.192-1.466-.848-172.165-99.536-11.351-6.562h0Z"/>
        </g>
        <g>
          <g>
            <path id="Tracé_46-4" data-name="Tracé 46" class="cls-22" d="m208.417,258.086c-11.14-.078-20.304,17.934-20.461,40.223-.156,22.289,8.755,40.428,19.895,40.506s20.313-17.925,20.469-40.223c.02-2.792-10.559-6.135-10.559-6.135,0,0,9.412-7.939,8.754-11.124-2.63-12.97-9.733-23.189-18.099-23.248Z"/>
            <path id="Tracé_46-5" data-name="Tracé 46" class="cls-20" d="m208.417,258.087c-11.14-.078-7.916,17.198-8.072,39.487-.156,22.289-3.633,41.164,7.507,41.242,11.14.078,20.313-17.925,20.469-40.223.02-2.792-10.559-6.135-10.559-6.135,0,0,9.412-7.939,8.754-11.124-2.63-12.97-9.733-23.189-18.099-23.248Z"/>
          </g>
          <g>
            <path id="Tracé_43-2" data-name="Tracé 43" class="cls-22" d="m256.678,263.52c-11.14-.078-20.304,17.934-20.461,40.223-.156,22.289,8.755,40.428,19.895,40.506s20.313-17.925,20.469-40.223c.02-2.792-10.559-6.135-10.559-6.135,0,0,9.412-7.939,8.754-11.124-2.63-12.97-9.733-23.189-18.099-23.248Z"/>
            <path id="Tracé_46-6" data-name="Tracé 46" class="cls-20" d="m256.677,263.525c-11.14-.078-7.916,17.198-8.072,39.487-.156,22.289-3.633,41.164,7.507,41.242,11.14.078,20.313-17.925,20.469-40.223.02-2.792-10.559-6.135-10.559-6.135,0,0,9.412-7.939,8.754-11.124-2.63-12.97-9.733-23.189-18.099-23.248Z"/>
          </g>
          <path class="cls-26" d="m183.043,310.281c.39,4.083-9.109,4.105-20.547,4.115-11.826.01-21.695,4.041-22.085-.042-.39-4.083,8.837-8.304,20.61-9.429,11.772-1.125,21.632,1.273,22.022,5.356Z"/>
          <path class="cls-26" d="m333.733,354.5c-.821,5.802-6.885-2.318-14.359-11.251-7.589-9.07-24.575-10.035-22.03-13.252,2.544-3.217,19.015-3.655,28.291,3.682,9.275,7.336,8.673,16.76,8.098,20.821Z"/>
          <path id="nez-2" data-name="nez" class="cls-17" d="m226.352,329.738c11.178-10.664,23.388-13.454,29.967-7.909.555.468,4.197,3.63,4.175,8.12-.049,9.931-18.005,21.429-30.266,16.475-2.309-.933-3.972-2.27-4.892-3.098"/>
          <path class="cls-13" d="m139.627,331.217c1.774-2.253,8.87-10.72,21.537-13.164,11.545-2.228,20.54,1.932,23.269,3.326"/>
          <path class="cls-13" d="m322.575,369.074c-.194-3.945-1.281-18.907-10.481-26.585-8.385-6.998-18.296-3.594-21.379-2.364"/>
          <path class="cls-20" d="m215.999,351.794c-27.782-7.437-35.779-27.838-50.293-25.421-8.703,1.449-15.282,10.36-16.651,17.918-3.825,21.107,30.248,46.649,62.469,55.497,38.257,10.505,66.415,4.056,87.095-15.457,9.269-8.746,15.599-25.126,9.228-34.199-7.19-10.239-22.098,1-60.062,3.325-12.15.744-20.811,1.275-31.785-1.663Z"/>
          <g class="cls-6">
            <path class="cls-26" d="m175.689,373.799c13.791-5.528,16.635-16.486,24.229-16.141,4.554.207,8.477,4.371,9.646,8.164,3.264,10.59,2.218,22.052-13.763,28.578-18.975,7.748-76.166,8.719-84.802-3.952-3.708-5.44-20.628-16.617-16.518-19.866,5.071-4.008,45.392,7.179,65.008,6.03,6.278-.368,10.753-.63,16.201-2.814Z"/>
          </g>
        </g>
      </g>
      <g id="ecto">
        <rect class="cls-22" x="434.154" y="121.111" width="719.549" height="226.41" rx="37.654" ry="37.654" transform="translate(-21.788 93.484) rotate(-6.648)"/>
        <g>
          <path class="cls-29" d="m611.66,238.663l-86.04,7.58,1.154,9.904,63.011-9.792,2.534,21.741-63.574,4.961,1.211,10.387,90.567-14.963,8.249,70.781-145.67,16.977-19.709-169.103,140.355-16.358,7.911,67.882Z"/>
          <path class="cls-29" d="m734.277,330.641c-29.955,3.491-54.469-.956-73.543-13.344-19.072-12.385-30.345-33.474-33.818-63.272-3.491-29.955,2.694-53.203,18.56-69.743,15.863-16.54,38.856-26.566,68.972-30.076,19.968-2.327,38.772-2.07,56.407.772l4.83,79.261c-6.192-2.707-14.121-4.556-23.786-5.553-9.665-.993-19.25-.94-28.751.167-28.506,3.322-42.242,9.415-41.21,18.27.619,5.314,4.941,8.445,12.97,9.384,8.026.943,19.688.522,34.989-1.262,10.146-1.182,20.189-3.577,30.138-7.186,9.943-3.608,17.759-7.617,23.45-12.038l9.802,79.905c-16.31,7.123-35.98,12.029-59.01,14.713Z"/>
          <path class="cls-29" d="m931.322,132.603l9.424,74.562-52.945,3.721,22.885,95.521-64.741,7.545.063-98.195-52.14,8.526-8.217-74.703,145.67-16.977Z"/>
          <path class="cls-29" d="m1107.708,263.613c-14.304,17.338-34.583,27.537-60.832,30.596-26.252,3.06-48.332-2.203-66.237-15.787-17.908-13.585-28.493-34.387-31.759-62.41s2.219-50.614,16.463-67.785c14.241-17.165,34.566-27.29,60.98-30.369,26.411-3.078,48.52,2.101,66.33,15.531,17.806,13.436,28.344,34.16,31.61,62.183,3.266,28.023-2.255,50.703-16.555,68.041Zm-93.134-42.769c6.137,2.222,14.115,2.761,23.939,1.616,9.822-1.145,17.466-3.504,22.926-7.078,5.461-3.575,7.89-7.937,7.289-13.093-.6-5.152-3.968-8.842-10.105-11.066-6.135-2.222-14.118-2.761-23.939-1.616-9.824,1.145-17.465,3.504-22.926,7.078-5.46,3.575-7.888,7.941-7.288,13.093.601,5.156,3.968,8.842,10.103,11.066Z"/>
        </g>
      </g>
      <g id="caen">
        <ellipse class="cls-21" cx="1123.505" cy="302.057" rx="221.412" ry="71.453" transform="translate(-37.523 376.322) rotate(-18.708)"/>
        <g>
          <path class="cls-18" d="m987.218,397.012c-13.315.324-27.745-3.153-40.54-7.286-10.317-3.332-24.429-7.664-28.029-18.296-3.612-10.669,4.976-22.702,11.177-31.641,7.678-11.069,17.022-22.114,27.859-30.43,6.707-5.147,14.476-9.981,22.976-11.354-1.678,16.891-1.104,32.344,2.498,48.916-8.11-.281-15.893.188-23.388,3.04-5.062,1.926-17.127,8.178-15.626,12.48,1.643,4.71,16.459,1.873,22.131.092,8.474-2.66,16.758-7.166,22.927-13.864,6.25,15.911,14.271,29.174,25.171,42.287-8.259,5.137-17.957,5.832-27.157,6.056Z"/>
          <path class="cls-18" d="m1052.916,390.229c-18.744,2.715-40.906-5.003-50.589-22.445-4.41-7.945-4.872-17.632-.545-25.81,5.125-9.686,13.622-14.753,23.161-18.913,5.761-2.512,14.277-3.492,20.504-1.915,6.116,1.55,10.805,4.667,13.74,9.342,1.183-.39,1.776-.586,2.965-.978-.407-1.14-.609-1.712-1.008-2.859-1.94-5.574-6.817-9.343-14.049-11.341-8.005-2.211-16.48-.645-23.487,1.94-10.327,3.81-18.91,10.743-27.242,19.217-3.898-13.761-5.439-28.352-5.088-42.624,10.355-9.763,21.204-18.437,33.487-24.359,15.447-7.448,33.302-11.221,50.617-4.443,16.603,6.499,25.443,22.157,27.527,39.287.815,6.021,1.243,9.055,2.109,15.016,5.841-1.954,8.785-2.944,14.712-4.946,5.725,16.777,11.508,33.534,17.352,50.271-18.5,6.023-37.088,11.424-55.957,16.165-3.744-10.023-7.064-20.081-10.079-30.347-1.35.405-2.024.606-3.367,1.005,3.397,8.197,4.141,17.83,1.009,26.002-2.277,5.941-9.454,11.818-15.772,12.733Zm2.014-40.526c9.65-2.886,13.836-6.429,12.268-10.478-1.567-4.044-7.342-4.461-17.02-1.354-9.541,3.063-13.384,6.465-11.789,10.29,1.597,3.83,7.028,4.387,16.541,1.542Z"/>
          <path class="cls-18" d="m1201.377,343.6c-15.055,7.173-32.888,8.62-48.29.768-16.541-8.433-27.195-24.542-33.007-41.707-5.685-16.79-6.874-35.788.368-52.174,6.517-14.745,19.888-23.451,34.512-27.511,14.883-4.131,31.785-1.996,46.151,4.771,14.474,6.817,26.291,18.46,31.787,33.662,1.184,3.274,1.829,6.35,1.985,9.186-22.629,8.055-45.299,15.99-68.001,23.838,1.254,3.368,5.026,4.93,11.143,4.729,6.918-.227,14.745-2.139,21.066-4.711,11.403-4.639,22.527-10.631,30.841-20.138,4.095,13.934,7.058,27.892,7.966,42.43-10.319,11.665-22.77,20.306-36.52,26.858Zm-37.821-58.371c10.811-3.629,21.625-7.249,32.444-10.855-1.855-4.416-4.754-7.342-8.623-8.872-3.868-1.53-8.07-1.603-12.585-.195-9.163,2.857-12.707,10.739-11.235,19.923Z"/>
          <path class="cls-18" d="m1280.188,264.2c1.741,11.362,1.669,21.169-.036,32.534-10.35,7.244-21.201,13.69-32.161,19.957.389-38.48-10.797-71.544-34.507-101.896,12.666-1.7,25.354-3.188,38.132-3.71,9.007,7.68,15.976,17.734,20.615,28.564.84-.229,1.258-.342,2.09-.568-3.243-7.543-6.975-15.113-9.213-22.939-1.483-5.184.315-6.929,6.315-6.45,8.246.659,16.525,2.816,24.442,5.233,8.406,2.567,17.305,6.115,22.975,13.214,10.01,13.653,1.771,28.811-5.96,40.977-6.804,7.381-14.42,13.717-22.248,19.966,3.93-10.987,7.37-22.273,6.969-34.094.316-6.977-4.308-15.568-12.481-12.968-3.287,1.046-5.296,3.373-6.053,7.356-.756,3.985-.143,8.964,1.12,14.822Z"/>
        </g>
      </g>
      <g id="easy">
        <polygon class="cls-22" points="790.836 583.203 761.867 694.595 650.915 725.204 568.93 644.421 597.899 533.028 708.852 502.42 790.836 583.203"/>
        <g>
          <path class="cls-21" d="m841.462,714.582c-1.042,0-2.097-.063-3.135-.187l-336.151-40.241c-6.977-.835-13.224-4.354-17.591-9.908-4.367-5.554-6.311-12.455-5.476-19.432l10.944-91.422c1.587-13.257,12.853-23.254,26.205-23.254,1.042,0,2.096.063,3.135.187l336.151,40.241c14.449,1.73,24.796,14.892,23.067,29.34l-10.944,91.422c-1.587,13.257-12.853,23.254-26.206,23.254Z"/>
          <path class="cls-22" d="m516.259,536.406c.79,0,1.586.047,2.389.143l336.151,40.241c10.988,1.315,18.902,11.382,17.587,22.371l-10.944,91.422c-1.219,10.186-9.958,17.73-19.98,17.73-.79,0-1.587-.047-2.39-.143l-336.151-40.24c-10.988-1.315-18.903-11.382-17.587-22.371l10.944-91.422c1.219-10.186,9.959-17.729,19.981-17.73m0-12.539h0c-16.524.001-30.466,12.374-32.43,28.779l-10.944,91.422c-1.034,8.64,1.371,17.182,6.772,24.052,5.402,6.871,13.135,11.224,21.774,12.258l336.151,40.24c1.285.154,2.591.232,3.88.232,16.524,0,30.466-12.372,32.43-28.778l10.944-91.422c2.14-17.881-10.666-34.17-28.547-36.311l-336.151-40.241c-1.285-.154-2.59-.232-3.879-.232h0Z"/>
        </g>
        <polygon class="cls-21" points="776.288 589.845 751.763 684.152 657.828 710.066 588.418 641.673 612.943 547.366 706.878 521.452 776.288 589.845"/>
        <g>
          <g>
            <path class="cls-26" d="m538.021,637.771c-13.446-1.61-23.41-6.188-29.894-13.736-6.484-7.547-9.033-17.11-7.646-28.689,1.364-11.391,5.917-19.963,13.662-25.712,7.743-5.75,17.451-7.927,29.124-6.529,11.765,1.408,20.516,5.63,26.258,12.662,5.74,7.033,7.962,15.965,6.666,26.796-.257,2.149-.72,4.033-1.388,5.658l-46.919-5.617c-.144,1.972,1.569,3.693,5.136,5.161,3.564,1.47,8.054,2.527,13.471,3.175,8.964,1.073,17.002.379,24.117-2.085l-2.379,26.992c-8.56,2.669-18.63,3.311-30.207,1.925Zm-9.641-40.507l21.429,2.565c.135-2.729-.685-4.959-2.467-6.688-1.782-1.727-4.167-2.772-7.155-3.13-6.07-.727-10.005,1.693-11.807,7.252Z"/>
            <path class="cls-26" d="m596.146,644.729c-15.967-1.911-23.078-10.15-21.334-24.716.793-6.629,3.836-11.688,9.133-15.173,5.294-3.486,11.91-4.754,19.847-3.804,5.322.637,9.617,2.146,12.884,4.526,3.266,2.38,5.093,5.109,5.484,8.186l1.961.235.201-1.681c.391-3.267-1.347-6.363-5.21-9.29-3.865-2.925-8.786-4.746-14.76-5.461-7.657-.917-15.147-.059-22.47,2.567l3.303-27.592c9.031-1.854,18.588-2.179,28.672-.972,14.752,1.766,25.889,6.249,33.409,13.447,7.52,7.2,9.469,16.028,5.851,26.485l-2.636,7.782,9.104,1.09-3.521,29.412-37.956-4.544,4.908-18.449-2.242-.268c-.915,6.048-3.845,10.763-8.796,14.148-4.951,3.385-10.228,4.742-15.831,4.072Zm17.854-22.156c6.535.782,9.949-.039,10.24-2.468.29-2.427-2.833-4.033-9.368-4.815-6.443-.771-9.81.058-10.1,2.485-.291,2.429,2.785,4.027,9.228,4.798Z"/>
            <path class="cls-26" d="m692.364,656.247c-4.482-.537-10.146-1.689-16.99-3.455-6.845-1.765-12.343-3.513-16.491-5.242l3.839-32.073c4.399,2.8,9.482,5.233,15.251,7.295,5.766,2.064,10.844,3.358,15.234,3.884,4.668.559,7.909.782,9.723.667,1.812-.114,2.803-.872,2.971-2.272.111-.933-1.308-1.741-4.256-2.427-2.95-.684-6.55-1.47-10.798-2.358-4.252-.886-8.469-2.055-12.651-3.503-4.184-1.446-7.6-3.773-10.245-6.98-2.648-3.205-3.697-7.095-3.149-11.671.76-6.348,4.525-10.917,11.301-13.706,6.773-2.787,16.09-3.472,27.949-2.053,10.084,1.207,19.48,3.801,28.192,7.779l-3.224,29.306c-6.594-5.052-15.026-8.192-25.296-9.421-3.922-.469-6.767-.644-8.533-.524-1.768.121-2.723.788-2.868,2.001-.09.748,1.339,1.463,4.289,2.147,2.948.686,6.539,1.542,10.773,2.568,4.232,1.028,8.431,2.359,12.592,3.993,4.159,1.635,7.561,4.08,10.204,7.331,2.641,3.253,3.694,7.119,3.158,11.601-.838,7.003-4.843,11.971-12.013,14.9-7.169,2.928-16.826,3.668-28.963,2.215Z"/>
            <path class="cls-26" d="m745.034,690.965c-4.762-.57-9.993-1.576-15.692-3.015l4.288-29.889c6.455,3.045,12.249,4.876,17.385,5.491,3.733.447,6.692.468,8.871.067,2.179-.403,3.666-1.55,4.461-3.444l1.293-3.681-13.305-1.593-17.162-66.695,39.637,4.745.346,36.268,1.961.235,8.478-35.212,40.057,4.795-36.785,75.864c-.867,1.694-1.626,3.095-2.279,4.202-.653,1.105-2.148,2.702-4.479,4.791-2.334,2.087-4.918,3.696-7.752,4.826-2.834,1.128-6.82,1.976-11.955,2.547-5.136.568-10.924.468-17.367-.303Z"/>
            <path class="cls-26" d="m851.393,670.596c-3.36,2.344-7.279,3.249-11.761,2.712-4.482-.537-8.08-2.341-10.789-5.412-2.711-3.07-3.814-6.707-3.311-10.909.514-4.293,2.45-7.614,5.809-9.959,3.357-2.344,7.279-3.249,11.762-2.712,4.481.537,8.077,2.341,10.788,5.411,2.708,3.072,3.809,6.756,3.294,11.049-.503,4.202-2.436,7.476-5.792,9.82Z"/>
          </g>
          <g>
            <path class="cls-22" d="m533.144,642.141c-13.446-1.61-23.41-6.188-29.895-13.736-6.484-7.547-9.032-17.11-7.646-28.689,1.364-11.391,5.917-19.962,13.662-25.712,7.743-5.75,17.45-7.927,29.124-6.53,11.765,1.408,20.516,5.63,26.258,12.662,5.74,7.033,7.963,15.966,6.666,26.796-.257,2.149-.72,4.033-1.388,5.658l-46.919-5.617c-.143,1.972,1.569,3.693,5.136,5.161,3.564,1.47,8.055,2.527,13.471,3.175,8.964,1.073,17.002.379,24.117-2.085l-2.379,26.992c-8.56,2.669-18.63,3.311-30.206,1.925Zm-9.642-40.507l21.429,2.565c.136-2.73-.685-4.959-2.467-6.688-1.782-1.727-4.167-2.772-7.155-3.13-6.071-.727-10.005,1.693-11.807,7.253Z"/>
            <path class="cls-22" d="m591.268,649.099c-15.967-1.911-23.078-10.15-21.334-24.716.793-6.629,3.836-11.688,9.133-15.173,5.294-3.486,11.91-4.754,19.847-3.804,5.322.637,9.617,2.146,12.883,4.526,3.267,2.38,5.094,5.109,5.484,8.186l1.96.235.201-1.681c.391-3.268-1.346-6.364-5.209-9.29-3.865-2.924-8.786-4.745-14.76-5.46-7.657-.917-15.147-.06-22.47,2.567l3.303-27.592c9.03-1.854,18.588-2.179,28.672-.972,14.752,1.766,25.89,6.249,33.409,13.447,7.52,7.2,9.469,16.028,5.851,26.485l-2.637,7.782,9.104,1.09-3.521,29.412-37.956-4.544,4.908-18.449-2.241-.268c-.915,6.048-3.845,10.763-8.797,14.148-4.951,3.385-10.228,4.742-15.83,4.072Zm17.854-22.156c6.535.782,9.949-.039,10.24-2.468.291-2.427-2.833-4.033-9.368-4.815-6.443-.771-9.81.058-10.1,2.485-.291,2.429,2.785,4.027,9.228,4.798Z"/>
            <path class="cls-22" d="m687.486,660.618c-4.482-.536-10.147-1.69-16.99-3.455-6.845-1.765-12.343-3.513-16.492-5.242l3.839-32.073c4.4,2.8,9.483,5.233,15.251,7.295,5.766,2.065,10.844,3.358,15.234,3.884,4.667.559,7.908.783,9.723.667,1.812-.114,2.803-.872,2.971-2.273.112-.932-1.308-1.741-4.255-2.427-2.951-.684-6.55-1.47-10.799-2.358-4.252-.886-8.469-2.055-12.651-3.503-4.184-1.447-7.6-3.773-10.245-6.98-2.648-3.205-3.697-7.095-3.149-11.671.76-6.348,4.526-10.917,11.302-13.706,6.773-2.787,16.089-3.472,27.949-2.053,10.084,1.207,19.48,3.802,28.192,7.779l-3.224,29.306c-6.594-5.051-15.026-8.192-25.296-9.421-3.922-.469-6.767-.644-8.532-.524-1.769.121-2.723.788-2.868,2.001-.089.748,1.339,1.463,4.289,2.147,2.948.686,6.539,1.542,10.773,2.568,4.232,1.028,8.431,2.359,12.592,3.994,4.16,1.634,7.561,4.079,10.204,7.33,2.641,3.253,3.694,7.119,3.158,11.601-.838,7.003-4.843,11.971-12.013,14.9s-16.826,3.668-28.962,2.216Z"/>
            <path class="cls-22" d="m740.156,695.336c-4.762-.57-9.994-1.576-15.693-3.015l4.288-29.889c6.455,3.046,12.249,4.876,17.386,5.491,3.733.447,6.691.468,8.871.067,2.179-.403,3.666-1.55,4.46-3.444l1.293-3.681-13.305-1.593-17.162-66.695,39.636,4.745.347,36.268,1.961.235,8.478-35.212,40.057,4.795-36.785,75.864c-.866,1.694-1.626,3.095-2.278,4.202-.654,1.105-2.148,2.702-4.48,4.791-2.334,2.087-4.917,3.696-7.752,4.826-2.834,1.128-6.82,1.976-11.954,2.547-5.136.569-10.924.468-17.367-.303Z"/>
            <path class="cls-22" d="m846.515,674.967c-3.359,2.344-7.279,3.249-11.76,2.712-4.482-.536-8.08-2.341-10.789-5.411-2.711-3.07-3.814-6.708-3.311-10.909.514-4.293,2.45-7.614,5.81-9.959,3.357-2.344,7.279-3.248,11.761-2.712,4.482.537,8.077,2.341,10.789,5.411,2.708,3.072,3.809,6.756,3.294,11.049-.503,4.202-2.436,7.476-5.793,9.819Z"/>
          </g>
        </g>
      </g>
      <g id="sunny">
        <g id="Polygone_1" data-name="Polygone 1">
          <path class="cls-21" d="m1172.739,656.715c-2.111-.373-4.168-1.028-6.114-1.948l-29.439-13.914c-2.497-1.18-5.142-2.022-7.862-2.503-2.72-.48-5.494-.596-8.244-.342l-32.424,2.986c-2.143.197-4.301.108-6.412-.265-7.782-1.375-14.405-6.48-17.717-13.657l-13.542-29.344c-2.335-5.06-5.996-9.403-10.586-12.562l-26.649-18.336c-8.465-5.825-12.318-16.393-9.587-26.299l8.509-30.868c1.49-5.406,1.487-11.121-.009-16.526l-8.545-30.869c-2.748-9.928,1.112-20.514,9.607-26.342l26.518-18.194c4.613-3.165,8.288-7.523,10.629-12.604l13.446-29.185c4.283-9.296,14.007-14.894,24.197-13.93l32.362,3.063c5.529.523,11.107-.449,16.132-2.813l29.397-13.827c4.534-2.132,9.538-2.799,14.472-1.927,4.934.872,9.407,3.212,12.936,6.769l22.881,23.062c3.911,3.942,8.819,6.767,14.192,8.17l31.452,8.21c9.904,2.585,17.121,11.176,17.96,21.377l2.633,32.026c.458,5.575,2.418,10.929,5.667,15.482l18.679,26.178c5.983,8.385,5.983,19.653,0,28.039l-18.604,26.073c-3.257,4.565-5.218,9.933-5.67,15.523l-2.582,31.916c-.828,10.242-8.069,18.851-18.017,21.423l-31.318,8.096c-5.395,1.395-10.322,4.221-14.249,8.175l-22.776,22.928c-5.57,5.607-13.541,8.134-21.323,6.76Z"/>
          <path class="cls-27" d="m1180.278,349.904c-4.229-.747-8.518-.176-12.404,1.652l-29.397,13.827c-5.584,2.626-11.782,3.707-17.925,3.126l-32.361-3.063c-8.734-.827-17.069,3.972-20.74,11.94l-13.446,29.185c-2.601,5.645-6.684,10.488-11.81,14.004l-26.518,18.194c-7.281,4.995-10.59,14.069-8.234,22.579l8.545,30.869c1.662,6.005,1.666,12.355.01,18.362l-8.509,30.868c-2.341,8.491.962,17.549,8.217,22.542l26.649,18.336c5.101,3.51,9.168,8.336,11.762,13.958l13.542,29.344c2.839,6.152,8.516,10.528,15.186,11.706,1.809.32,3.658.396,5.496.227l32.424-2.986c6.112-.563,12.347.539,17.896,3.161l29.439,13.913c1.669.789,3.432,1.351,5.241,1.67,6.67,1.178,13.503-.988,18.277-5.795l22.776-22.928c4.363-4.393,9.838-7.534,15.833-9.083l31.318-8.096c8.527-2.204,14.733-9.584,15.443-18.362l2.582-31.916c.502-6.211,2.681-12.175,6.3-17.248l18.604-26.073c5.128-7.188,5.128-16.846,0-24.033l-18.679-26.178c-3.61-5.06-5.788-11.008-6.297-17.203l-2.633-32.026c-.719-8.744-6.905-16.107-15.394-18.323l-31.452-8.21c-5.97-1.558-11.423-4.697-15.769-9.078l-22.881-23.062c-3.025-3.049-6.859-5.055-11.088-5.802m1.2-6.791c5.483.969,10.674,3.594,14.784,7.736l22.881,23.062c3.479,3.507,7.836,6.015,12.615,7.262l31.452,8.209c11.336,2.959,19.566,12.755,20.526,24.431l2.633,32.026c.408,4.958,2.148,9.713,5.037,13.762l18.679,26.178c6.84,9.586,6.84,22.458,0,32.044l-18.604,26.073c-2.896,4.059-4.638,8.828-5.04,13.798l-2.582,31.916c-.948,11.714-9.213,21.541-20.591,24.483l-31.318,8.096c-4.798,1.24-9.173,3.751-12.666,7.267l-22.776,22.928c-8.233,8.288-20.795,10.491-31.358,5.499l-29.439-13.914c-4.46-2.108-9.404-2.981-14.317-2.529l-32.424,2.986c-11.634,1.071-22.68-5.302-27.576-15.91l-13.542-29.344c-2.077-4.5-5.327-8.357-9.41-11.166l-26.649-18.336c-9.682-6.662-14.08-18.726-10.957-30.056l8.509-30.868c1.325-4.807,1.322-9.884-.008-14.69l-8.545-30.869c-3.142-11.35,1.268-23.442,10.979-30.105l26.518-18.194c4.102-2.814,7.366-6.685,9.448-11.203l13.446-29.185c4.902-10.64,15.99-17.024,27.653-15.92l32.361,3.063c4.918.465,9.87-.398,14.34-2.501l29.397-13.827c5.28-2.484,11.056-3.171,16.539-2.203Z"/>
        </g>
        <g>
          <g>
            <path id="Tracé_46-7" data-name="Tracé 46" class="cls-22" d="m1152.157,421.04c8.651.913,14.187,15.689,12.361,32.997-1.826,17.308-10.325,30.603-18.976,29.69-8.651-.913-14.195-15.683-12.368-32.998.229-2.168,8.729-3.837,8.729-3.837,0,0-6.609-6.982-5.82-9.396,3.174-9.834,9.578-17.142,16.074-16.456Z"/>
            <path id="Tracé_46-8" data-name="Tracé 46" d="m1152.157,421.041c8.651.913,4.639,14.036,2.813,31.343-1.826,17.308-.778,32.257-9.428,31.344-8.651-.913-14.195-15.683-12.368-32.998.229-2.168,8.729-3.837,8.729-3.837,0,0-6.609-6.982-5.82-9.396,3.174-9.834,9.578-17.142,16.074-16.456Z"/>
          </g>
          <g>
            <path id="Tracé_43-3" data-name="Tracé 43" class="cls-22" d="m1114.237,421.04c8.651.913,14.187,15.689,12.361,32.997-1.826,17.308-10.325,30.603-18.976,29.69-8.651-.913-14.195-15.683-12.368-32.998.229-2.168,8.729-3.837,8.729-3.837,0,0-6.609-6.982-5.82-9.396,3.174-9.834,9.578-17.142,16.074-16.456Z"/>
            <path id="Tracé_46-9" data-name="Tracé 46" d="m1114.237,421.044c8.651.913,4.639,14.036,2.813,31.343-1.826,17.308-.778,32.257-9.428,31.344-8.651-.913-14.195-15.683-12.368-32.998.229-2.168,8.729-3.837,8.729-3.837,0,0-6.609-6.982-5.82-9.396,3.174-9.834,9.578-17.142,16.074-16.456Z"/>
          </g>
          <path class="cls-26" d="m1078.671,453.861c.348,3.183-7.363,5.105-16.293,5.236-9.233.135-16.599,1.584-16.947-1.599-.348-3.183,6.811-6.578,15.99-7.582,9.179-1.004,16.903.762,17.251,3.946Z"/>
          <path class="cls-26" d="m1228.928,468.201c-1.162,2.984-9.328,3.151-16.955-1.803-7.744-5.03-15.368-7.342-14.206-10.326,1.162-2.984,9.079-2.688,17.684.662,8.605,3.35,14.639,8.484,13.477,11.468Z"/>
          <path id="nez-3" data-name="nez" class="cls-16" d="m1129.659,476.102c-7.741-9.251-16.971-12.482-22.56-8.755-.472.314-3.574,2.45-3.949,5.935-.83,7.71,12.098,18.2,22.043,15.428,1.873-.522,3.281-1.414,4.066-1.977"/>
          <path class="cls-10" d="m1047.479,473.3c1.389-1.755,6.946-8.353,16.841-10.237,9.018-1.717,16.034,1.548,18.162,2.642"/>
          <path class="cls-10" d="m1218.863,483.768c-.99-2.38-5.031-11.376-14.104-15.161-8.269-3.449-15.577-.425-17.814.619"/>
          <path d="m1115.984,488.324c-26.644-5.314-35.429-24.058-48.963-20.893-8.116,1.898-13.773,10.699-14.603,17.908-2.317,20.131,31.363,42.129,62.278,48.502,36.707,7.567,84.503-3.803,95.779-29.474,4.841-11.022,3.752-26.506-4.725-30.967-10.459-5.504-24.055,10.041-59.701,14.551-11.408,1.443-19.541,2.472-30.065.373Z"/>
          <g class="cls-4">
            <path class="cls-26" d="m1140.322,518.385c-13.765-2.746-18.303-12.429-25.296-10.794-4.193.98-7.116,5.528-7.544,9.252-1.197,10.4,1.759,20.863,17.73,24.156,18.964,3.909,72.243-5.093,78.069-18.356,2.501-5.694,16.279-19.004,11.9-21.309-5.403-2.844-40.911,14.528-59.326,16.858-5.894.746-10.095,1.277-15.532.193Z"/>
          </g>
        </g>
      </g>
      <g id="hexa">
        <g>
          <path class="cls-28" d="m202.019,705.815c-1.776,0-3.443-.89-4.429-2.384l-87.877-133.132c-1.045-1.583-1.166-3.602-.317-5.298l71.358-142.67c.848-1.696,2.537-2.81,4.429-2.924l159.234-9.538c.106-.006.213-.01.318-.01,1.776,0,3.443.89,4.429,2.384l87.877,133.132c1.045,1.583,1.166,3.602.317,5.298l-71.357,142.67c-.848,1.696-2.537,2.81-4.429,2.924l-159.235,9.537c-.106.006-.213.01-.318.01Z"/>
          <path class="cls-22" d="m344.734,415.168l87.877,133.132-71.357,142.67-159.235,9.538-87.877-133.132,71.357-142.67,159.234-9.538m.002-10.615c-.212,0-.424.006-.636.019l-159.234,9.538c-3.785.227-7.163,2.456-8.859,5.848l-71.357,142.67c-1.696,3.392-1.455,7.431.635,10.596l87.876,133.132c1.972,2.987,5.306,4.768,8.857,4.768.212,0,.424-.006.636-.019l159.235-9.538c3.785-.227,7.163-2.456,8.859-5.848l71.357-142.67c1.697-3.392,1.455-7.431-.635-10.596l-87.877-133.132c-1.972-2.987-5.306-4.768-8.857-4.768h0Z"/>
        </g>
        <g>
          <g>
            <path id="Tracé_46-10" data-name="Tracé 46" class="cls-22" d="m288.821,444.276c-8.684,2.437-11.774,18.503-6.898,35.877,4.876,17.374,15.875,29.486,24.558,27.049,8.684-2.437,11.783-18.498,6.905-35.879-.611-2.176-9.589-2.405-9.589-2.405,0,0,5.542-8.286,4.316-10.616-4.954-9.5-12.77-15.857-19.291-14.027Z"/>
            <path id="Tracé_46-11" data-name="Tracé 46" class="cls-20" d="m288.822,444.278c-8.684,2.437-2.302,15.153,2.574,32.527,4.876,17.374,6.403,32.836,15.086,30.399,8.684-2.437,11.783-18.498,6.905-35.879-.611-2.176-9.589-2.405-9.589-2.405,0,0,5.542-8.286,4.316-10.616-4.954-9.5-12.77-15.857-19.291-14.027Z"/>
          </g>
          <g>
            <path id="Tracé_43-4" data-name="Tracé 43" class="cls-22" d="m327.582,437.684c-8.684,2.437-11.774,18.503-6.898,35.877,4.876,17.374,15.875,29.486,24.558,27.049,8.684-2.437,11.783-18.498,6.905-35.879-.611-2.176-9.589-2.405-9.589-2.405,0,0,5.542-8.286,4.316-10.616-4.954-9.5-12.77-15.857-19.291-14.027Z"/>
            <path id="Tracé_46-12" data-name="Tracé 46" class="cls-20" d="m327.582,437.688c-8.684,2.437-2.302,15.153,2.574,32.527,4.876,17.374,6.403,32.836,15.086,30.399,8.684-2.437,11.783-18.498,6.905-35.879-.611-2.176-9.589-2.405-9.589-2.405,0,0,5.542-8.286,4.316-10.616-4.954-9.5-12.77-15.857-19.291-14.027Z"/>
          </g>
          <path class="cls-26" d="m280.832,493.62c3.8,2.858-5.948,3.006-11.576,8.411-5.819,5.588-2.035,17.597-5.835,14.74-3.8-2.858-2.982-10.357,1.826-16.75,4.808-6.393,11.786-9.259,15.586-6.401Z"/>
          <path class="cls-26" d="m366.51,512.714c-.77,2.738-3.162-1.56-6.181-6.34-3.065-4.854-11.175-6.415-9.743-7.798,1.432-1.383,9.384-.53,13.373,3.599,3.988,4.129,3.09,8.623,2.551,10.54Z"/>
          <path id="nez-4" data-name="nez" class="cls-19" d="m318.837,495.994c6.304-10.801,15.177-15.71,21.538-12.871.537.239,4.079,1.883,5.068,5.38,2.189,7.737-9.202,20.707-19.85,19.602-2.006-.208-3.599-.875-4.5-1.313"/>
          <path class="cls-2" d="m270.804,526.635c-.754-3.205-3.358-15.401,1.547-22.597,4.471-6.559,12.401-4.887,14.906-4.228"/>
          <path class="cls-2" d="m360.2,519.005c.162-1.91.605-9.179-3.325-13.467-3.582-3.908-8.57-2.911-10.132-2.518"/>
          <path class="cls-20" d="m310.758,526.704c-13.009-4.327-19.296-27.773-25.215-22.371-3.549,3.239-5.144,15.189-4.683,24.611,1.289,26.311,19.53,51.582,34.649,56.871,17.951,6.28,29.19-6.339,35.386-33.573,2.777-12.206,3.226-33.196-.783-43.144-4.524-11.228-9.385,4.966-25.424,14.235-5.133,2.967-8.792,5.081-13.931,3.372Z"/>
          <g class="cls-5">
            <path class="cls-26" d="m300.301,564.088c10.186.34,18.698,6.256,22.094,4.425,2.036-1.098,1.187-4.417-.732-6.925-5.36-7.004-13.344-13.605-25.226-14.07-14.108-.552-42.012,11.11-37.855,20.503,1.785,4.033,1.016,14.309,5.097,15.364,5.035,1.301,16.955-13.99,27.059-17.504,3.234-1.125,5.539-1.926,9.562-1.792Z"/>
          </g>
        </g>
      </g>
      <g id="cloud">
        <g>
          <path class="cls-25" d="m1477.562,460.03c-2.257,0-4.547-.09-6.808-.268-15.288-1.201-29.863-6.42-42.355-15.139-11.157,5.716-23.588,8.724-36.156,8.724-2.094,0-4.219-.083-6.317-.248-18.162-1.427-35.164-8.984-48.332-21.401-13.587,9.015-29.286,13.758-45.671,13.758-2.18,0-4.394-.087-6.579-.259-45.594-3.582-79.773-43.589-76.192-89.183,1.645-20.94,11.059-40.302,26.507-54.518,15.242-14.027,34.969-21.802,55.597-21.924,2.896-22.79,13.661-43.696,30.628-59.311,18.033-16.596,41.413-25.736,65.834-25.736,2.561,0,5.159.102,7.724.304,49.623,3.898,88.154,44.708,89.679,93.92,46.707,4.169,81.58,45.325,77.899,92.187-1.702,21.666-11.441,41.698-27.424,56.407-15.896,14.629-36.506,22.686-58.034,22.686Z"/>
          <path class="cls-22" d="m1387.718,199.526c2.427,0,4.872.095,7.333.288,48.946,3.845,85.97,45.191,85.102,93.637,1.209.039,2.427.109,3.65.205,44.492,3.495,77.727,42.397,74.232,86.889-3.326,42.338-38.717,74.485-80.473,74.485-2.124,0-4.262-.083-6.415-.252-15.954-1.253-30.463-7.064-42.351-16.046-10.86,6.142-23.363,9.615-36.551,9.615-1.962,0-3.937-.077-5.927-.233-19.086-1.499-35.928-10.054-48.165-22.912-13.015,9.623-29.066,15.254-46.229,15.254-2.048,0-4.111-.08-6.188-.243-42.913-3.371-74.97-40.894-71.599-83.807,3.208-40.834,37.342-71.835,77.613-71.835,1.331,0,2.664.034,4.007.102l.002-.031c3.801-48.382,44.241-85.115,91.958-85.116m.003-10v10-10h-.003c-25.679,0-50.262,9.609-69.22,27.057-16.789,15.451-27.801,35.826-31.576,58.12-20.303,1.113-39.551,9.221-54.649,23.114-16.38,15.074-26.361,35.603-28.105,57.806-3.798,48.342,32.442,90.761,80.785,94.559,2.314.182,4.659.274,6.971.274,16.068,0,31.514-4.301,45.141-12.508,13.551,11.645,30.476,18.722,48.47,20.135,2.227.175,4.485.264,6.71.264,12.363,0,24.601-2.738,35.758-7.962,12.658,8.231,27.177,13.169,42.36,14.362,2.39.188,4.812.283,7.198.283,22.786,0,44.598-8.526,61.42-24.007,16.915-15.567,27.221-36.767,29.022-59.694,1.9-24.181-5.731-47.654-21.487-66.097-14.595-17.083-34.544-27.955-56.625-30.974-3.661-49.783-43.352-90.43-94.058-94.413-2.694-.212-5.424-.319-8.113-.319h0Z"/>
        </g>
        <g>
          <path class="cls-26" d="m1328.878,305.679c.34,3.109-7.192,4.987-15.915,5.114-9.018.132-16.213,1.548-16.554-1.562-.34-3.109,6.652-6.425,15.618-7.406,8.966-.981,16.51.745,16.85,3.854Z"/>
          <path class="cls-26" d="m1475.644,319.685c-1.135,2.915-9.112,3.077-16.561-1.761-7.564-4.913-15.011-7.172-13.876-10.087,1.135-2.915,8.868-2.626,17.273.646,8.405,3.272,14.299,8.287,13.164,11.202Z"/>
          <path class="cls-9" d="m1298.41,324.666c1.357-1.715,6.785-8.159,16.45-9.999,8.809-1.677,15.661,1.512,17.74,2.58"/>
          <path class="cls-9" d="m1465.813,334.891c-.967-2.325-4.914-11.112-13.776-14.808-8.077-3.369-15.216-.416-17.401.605"/>
          <path d="m1365.324,339.341c-26.025-5.191-34.606-23.499-47.826-20.408-7.928,1.854-13.453,10.451-14.264,17.492-2.263,19.663,30.635,41.15,60.831,47.375,35.854,7.391,82.54-3.715,93.555-28.79,4.729-10.766,3.665-25.89-4.615-30.247-10.216-5.377-23.496,9.807-58.314,14.213-11.143,1.41-19.087,2.415-29.367.364Z"/>
          <g class="cls-3">
            <path class="cls-26" d="m1389.097,368.704c-13.445-2.682-17.878-12.14-24.708-10.543-4.096.958-6.95,5.399-7.369,9.037-1.169,10.159,1.718,20.379,17.318,23.595,18.523,3.819,70.565-4.975,76.255-17.929,2.443-5.562,15.901-18.563,11.623-20.814-5.278-2.778-39.96,14.191-57.948,16.467-5.757.728-9.861,1.248-15.172.188Z"/>
          </g>
          <g>
            <g>
              <path id="Tracé_43-5" data-name="Tracé 43" class="cls-22" d="m1363.617,273.62c8.45.892,13.858,15.325,12.074,32.231-1.784,16.906-10.086,29.892-18.535,29s-13.865-15.319-12.08-32.231c.223-2.117,8.526-3.748,8.526-3.748,0,0-6.455-6.82-5.685-9.177,3.1-9.605,9.355-16.744,15.701-16.074Z"/>
              <path id="Tracé_46-13" data-name="Tracé 46" d="m1363.617,273.624c8.45.892,4.532,13.71,2.748,30.615-1.784,16.906-.76,31.507-9.209,30.616-8.45-.892-13.865-15.319-12.08-32.231.223-2.117,8.526-3.748,8.526-3.748,0,0-6.455-6.82-5.685-9.177,3.1-9.605,9.355-16.744,15.701-16.074Z"/>
            </g>
            <path class="cls-9" d="m1345.217,276.325c-.244,2.482.96,4.798,3.021,5.85,2.224,1.135,4.479.306,4.847.164"/>
            <path class="cls-9" d="m1347.879,273.056c-.615,2.417.227,4.888,2.106,6.238,2.027,1.457,4.382.977,4.767.892"/>
            <path class="cls-9" d="m1351.843,269.804c-1.068,2.254-.718,4.84.867,6.526,1.709,1.82,4.112,1.801,4.506,1.792"/>
          </g>
          <path class="cls-9" d="m1401.6,268.502c1.726,1.8,2.213,4.364,1.243,6.465-1.046,2.267-3.331,3.01-3.708,3.126"/>
          <path class="cls-9" d="m1409.95,272.591c1.017,2.277.607,4.855-1.015,6.505-1.75,1.78-4.152,1.707-4.546,1.689"/>
          <path class="cls-9" d="m1406.39,270.332c1.348,2.098,1.332,4.708-.024,6.584-1.462,2.023-3.848,2.313-4.24,2.355"/>
          <g>
            <path id="Tracé_43-6" data-name="Tracé 43" class="cls-22" d="m1396.089,272.821c8.45.892,13.858,15.325,12.074,32.231-1.784,16.906-10.086,29.892-18.535,29-8.45-.892-13.865-15.319-12.08-32.231.223-2.117,8.526-3.748,8.526-3.748,0,0-6.455-6.82-5.685-9.177,3.1-9.605,9.355-16.744,15.701-16.074Z"/>
            <path id="Tracé_46-14" data-name="Tracé 46" d="m1396.089,272.824c8.45.892,4.532,13.71,2.748,30.615-1.784,16.906-.76,31.507-9.209,30.616-8.45-.892-13.865-15.319-12.08-32.231.223-2.117,8.526-3.748,8.526-3.748,0,0-6.455-6.82-5.685-9.177,3.1-9.605,9.355-16.744,15.701-16.074Z"/>
          </g>
          <path id="nez-5" data-name="nez" class="cls-14" d="m1378.682,327.403c-7.561-9.036-16.577-12.192-22.036-8.552-.461.307-3.491,2.393-3.857,5.798-.811,7.531,11.817,17.777,21.531,15.069,1.83-.51,3.204-1.382,3.972-1.931"/>
        </g>
      </g>
    </g>
  </g>
</svg>