<?xml version="1.0" encoding="UTF-8"?>
<svg id="Calque_2" data-name="Calque 2" xmlns="http://www.w3.org/2000/svg" xmlns:xlink="http://www.w3.org/1999/xlink" viewBox="0 0 644.114 733.692">
  <defs>
    <style>
      .cls-1, .cls-2, .cls-3 {
        fill: none;
      }

      .cls-4, .cls-5 {
        fill: #ffe45e;
      }

      .cls-6 {
        fill: #fff;
      }

      .cls-7, .cls-8 {
        fill: #ff97e4;
      }

      .cls-9 {
        fill: #ff6392;
      }

      .cls-5, .cls-8, .cls-2 {
        stroke-miterlimit: 10;
      }

      .cls-5, .cls-2 {
        stroke: #000;
        stroke-linecap: round;
        stroke-width: 1.806px;
      }

      .cls-8 {
        stroke: #fff;
        stroke-width: 1.062px;
      }

      .cls-3 {
        clip-path: url(#clippath);
      }
    </style>
    <clipPath id="clippath">
      <path class="cls-1" d="m439.182,429.963c46.994-9.373,62.488-42.432,86.36-36.85,14.315,3.347,24.293,18.871,25.756,31.586,4.087,35.506-55.317,74.305-109.843,85.546-64.742,13.347-149.043-6.707-168.931-51.986-8.539-19.44-6.618-46.749,8.333-54.618,18.447-9.709,42.426,17.709,105.298,25.664,20.121,2.546,34.465,4.361,53.028.658Z"/>
    </clipPath>
  </defs>
  <g id="Composistions">
    <g id="caen-sunny">
      <g id="caen">
        <ellipse class="cls-4" cx="305.014" cy="107.548" rx="307.775" ry="99.323" transform="translate(-12.14 44.194) rotate(-8.126)"/>
        <g>
          <path class="cls-8" d="m94.55,202.504c-18.276-2.956-37.106-11.391-53.535-20.304-13.247-7.187-31.424-16.708-33.628-32.155-2.212-15.5,12.595-29.75,23.35-40.382,13.317-13.165,28.905-25.872,45.834-34.468,10.479-5.321,22.328-9.943,34.294-9.649-6.605,22.652-9.765,43.914-9.074,67.477-11.01-2.454-21.765-3.8-32.734-1.816-7.408,1.34-25.49,6.802-24.537,13.064,1.043,6.855,22.012,6.761,30.217,5.776,12.259-1.472,24.728-5.513,34.866-13.091,4.479,23.336,12.053,43.506,23.6,64.207-12.597,4.911-26.025,3.385-38.653,1.342Z"/>
          <path class="cls-8" d="m186.052,210.007c-26.305-1.075-54.618-17.278-63.396-43.583-3.998-11.981-2.156-25.337,5.844-35.406,9.475-11.927,22.379-16.682,36.476-19.931,8.513-1.962,20.399-1.127,28.506,2.618,7.961,3.679,13.572,9.135,16.389,16.273,1.716-.231,2.577-.347,4.302-.58-.265-1.662-.395-2.495-.647-4.163-1.229-8.111-6.929-14.507-16.302-19.083-10.373-5.064-22.354-5.088-32.589-3.345-15.083,2.569-28.581,9.852-42.129,19.305-1.814-19.799-.194-40.13,3.928-59.541,16.642-10.697,33.68-19.779,51.975-24.736,23.008-6.233,48.369-6.832,70.298,6.85,21.028,13.119,29.11,36.771,27.584,60.709-.423,8.435-.613,12.691-.952,21.056,8.479-1.179,12.755-1.78,21.366-3.002,3.54,24.386,7.165,48.759,10.877,73.12-26.816,3.508-53.594,6.142-80.587,7.804-2.558-14.652-4.526-29.242-6.026-44.039-1.948.208-2.92.311-4.857.514,2.549,12.068,1.107,25.42-5.259,35.788-4.627,7.537-15.935,13.735-24.801,13.373Zm13.097-54.862c13.922-1.481,20.547-5.253,19.438-11.186-1.108-5.926-8.893-7.97-22.911-6.195-13.819,1.75-19.938,5.417-18.736,11.052,1.204,5.641,8.484,7.789,22.208,6.329Z"/>
          <path class="cls-8" d="m400.814,184.191c-22.402,5.958-47.14,3.383-66.18-11.278-20.45-15.746-30.895-40.477-34.454-65.414-3.482-24.393-.256-50.656,13.822-71.197,12.669-18.484,33.161-26.967,54.18-28.781,21.39-1.846,43.941,5.387,61.843,18.3,18.037,13.01,31.212,31.935,34.841,54.11.782,4.776.878,9.144.367,13.058-32.977,5.229-65.979,10.286-99.003,15.213.853,4.922,5.609,8.019,14.018,9.306,9.51,1.456,20.694.841,29.988-1.059,16.766-3.428,33.495-8.776,47.282-19.644,2.039,20.085,2.524,39.914.054,60.01-17.078,13.305-36.296,21.934-56.758,27.376Zm-36.778-89.414c15.699-2.199,31.4-4.385,47.103-6.551-1.408-6.507-4.622-11.246-9.518-14.325-4.895-3.078-10.618-4.25-17.147-3.479-13.249,1.565-20.105,11.43-20.438,24.354Z"/>
          <path class="cls-8" d="m528.773,95.816c-.522,15.969-3.124,29.351-8.354,44.446-15.992,7.256-32.464,13.294-49.039,19.06,10.354-52.48,3.51-100.515-21.139-148.04,17.741.91,35.458,2.116,53.051,4.664,10.347,12.793,17.302,28.31,20.878,44.293,1.207-.098,1.807-.147,3.001-.242-2.505-11.135-5.673-22.432-6.734-33.697-.702-7.462,2.199-9.388,10.276-7.201,11.1,3.005,21.861,8.066,32.061,13.39,10.831,5.654,22.085,12.774,28.021,23.921,10.192,21.211-4.934,39.819-18.605,54.47-11.182,8.349-23.205,15.062-35.496,21.603,8.174-14.01,15.756-28.552,18.226-44.808,2.213-9.453-1.913-22.372-13.744-20.906-4.758.59-8.098,3.257-10.148,8.507-2.051,5.252-2.484,12.212-2.253,20.539Z"/>
        </g>
      </g>
      <g id="sunny">
        <g id="Polygone_1" data-name="Polygone 1">
          <path class="cls-4" d="m339.081,726.962c3.723-.657,7.351-1.814,10.784-3.436l51.923-24.54c4.404-2.082,9.07-3.567,13.867-4.414,4.797-.847,9.689-1.051,14.54-.604l57.188,5.266c3.781.348,7.586.191,11.309-.467,13.725-2.425,25.407-11.429,31.248-24.087l23.885-51.756c4.118-8.924,10.575-16.585,18.671-22.156l47.002-32.341c14.93-10.273,21.725-28.914,16.909-46.385l-15.008-54.444c-2.629-9.536-2.623-19.615.016-29.148l15.071-54.446c4.847-17.51-1.962-36.181-16.944-46.461l-46.771-32.09c-8.136-5.582-14.618-13.269-18.746-22.23l-23.715-51.476c-7.554-16.396-24.705-26.27-42.677-24.569l-57.078,5.403c-9.751.923-19.59-.793-28.454-4.961l-51.85-24.387c-7.996-3.761-16.823-4.937-25.525-3.399-8.702,1.537-16.591,5.666-22.815,11.939l-40.357,40.676c-6.899,6.953-15.555,11.936-25.032,14.41l-55.475,14.48c-17.468,4.559-30.198,19.711-31.677,37.703l-4.644,56.486c-.808,9.833-4.265,19.276-9.995,27.307l-32.946,46.172c-10.553,14.79-10.553,34.664,0,49.454l32.812,45.987c5.745,8.052,9.203,17.519,10.001,27.378l4.553,56.291c1.461,18.064,14.232,33.248,31.778,37.784l55.238,14.28c9.515,2.46,18.206,7.446,25.132,14.418l40.172,40.44c9.824,9.89,23.884,14.347,37.609,11.923Z"/>
          <path class="cls-9" d="m325.784,185.823c7.459-1.318,15.024-.31,21.878,2.914l51.85,24.387c9.848,4.632,20.781,6.538,31.616,5.513l57.078-5.403c15.405-1.458,30.106,7.005,36.581,21.059l23.715,51.476c4.587,9.957,11.79,18.498,20.829,24.7l46.771,32.09c12.841,8.811,18.678,24.814,14.523,39.823l-15.071,54.446c-2.932,10.592-2.938,21.791-.017,32.386l15.008,54.444c4.128,14.975-1.696,30.953-14.494,39.758l-47.002,32.341c-8.996,6.19-16.17,14.703-20.746,24.618l-23.885,51.756c-5.007,10.85-15.02,18.568-26.784,20.646-3.191.564-6.452.698-9.694.4l-57.188-5.266c-10.78-.993-21.777.95-31.564,5.576l-51.922,24.54c-2.943,1.391-6.053,2.382-9.244,2.946-11.764,2.078-23.815-1.743-32.237-10.22l-40.172-40.44c-7.696-7.747-17.352-13.287-27.925-16.021l-55.237-14.28c-15.04-3.888-25.986-16.903-27.238-32.386l-4.553-56.291c-.886-10.954-4.728-21.474-11.112-30.42l-32.812-45.987c-9.045-12.677-9.045-29.712,0-42.389l32.946-46.172c6.368-8.924,10.208-19.416,11.106-30.341l4.644-56.486c1.268-15.422,12.179-28.409,27.152-32.317l55.475-14.48c10.53-2.749,20.148-8.285,27.813-16.011l40.357-40.676c5.335-5.377,12.097-8.915,19.556-10.233m-2.116-11.978c-9.671,1.708-18.826,6.338-26.075,13.644l-40.357,40.676c-6.136,6.185-13.821,10.608-22.251,12.809l-55.474,14.48c-19.993,5.219-34.509,22.496-36.202,43.09l-4.644,56.486c-.719,8.744-3.789,17.131-8.885,24.273l-32.946,46.172c-12.065,16.908-12.065,39.61,0,56.519l32.812,45.987c5.108,7.16,8.181,15.57,8.89,24.336l4.553,56.291c1.671,20.661,16.249,37.994,36.317,43.182l55.238,14.28c8.463,2.188,16.18,6.615,22.34,12.816l40.172,40.44c14.522,14.619,36.678,18.504,55.307,9.699l51.923-24.54c7.867-3.718,16.587-5.259,25.251-4.461l57.188,5.266c20.519,1.889,40.003-9.352,48.637-28.061l23.885-51.756c3.663-7.937,9.396-14.74,16.597-19.695l47.002-32.341c17.076-11.75,24.833-33.028,19.325-53.011l-15.008-54.444c-2.337-8.479-2.332-17.433.014-25.909l15.071-54.446c5.541-20.018-2.237-41.346-19.364-53.098l-46.771-32.09c-7.234-4.964-12.992-11.791-16.663-19.76l-23.715-51.476c-8.646-18.767-28.203-30.026-48.774-28.079l-57.078,5.403c-8.674.821-17.409-.702-25.293-4.41l-51.85-24.387c-9.313-4.38-19.5-5.593-29.171-3.885Z"/>
        </g>
        <g>
          <g>
            <path id="Tracé_46" data-name="Tracé 46" class="cls-6" d="m375.383,311.29c-15.257,1.61-25.023,27.672-21.801,58.199,3.221,30.527,18.212,53.976,33.469,52.366,15.257-1.61,25.036-27.661,21.813-58.2-.403-3.823-15.395-6.768-15.395-6.768,0,0,11.657-12.314,10.265-16.572-5.598-17.345-16.893-30.234-28.351-29.025Z"/>
            <path id="Tracé_46-2" data-name="Tracé 46" d="m375.383,311.292c-15.257,1.61-8.183,24.755-4.961,55.282,3.221,30.527,1.372,56.893,16.629,55.283,15.257-1.61,25.036-27.661,21.813-58.2-.403-3.823-15.395-6.768-15.395-6.768,0,0,11.657-12.314,10.265-16.572-5.598-17.345-16.893-30.234-28.351-29.025Z"/>
          </g>
          <g>
            <path id="Tracé_43" data-name="Tracé 43" class="cls-6" d="m442.264,311.29c-15.257,1.61-25.023,27.672-21.801,58.199,3.221,30.527,18.212,53.976,33.469,52.366,15.257-1.61,25.036-27.661,21.813-58.2-.403-3.823-15.395-6.768-15.395-6.768,0,0,11.657-12.314,10.265-16.572-5.598-17.345-16.893-30.234-28.351-29.025Z"/>
            <path id="Tracé_46-3" data-name="Tracé 46" d="m442.264,311.296c-15.257,1.61-8.183,24.755-4.961,55.282,3.221,30.527,1.372,56.893,16.629,55.283,15.257-1.61,25.036-27.661,21.813-58.2-.403-3.823-15.395-6.768-15.395-6.768,0,0,11.657-12.314,10.265-16.572-5.598-17.345-16.893-30.234-28.351-29.025Z"/>
          </g>
          <path class="cls-7" d="m504.994,369.178c-.614,5.615,12.987,9.005,28.737,9.234,16.285.238,29.276,2.794,29.891-2.82.614-5.614-12.012-11.602-28.202-13.373-16.19-1.771-29.812,1.344-30.426,6.959Z"/>
          <path class="cls-7" d="m239.978,394.47c2.049,5.263,16.453,5.557,29.904-3.181,13.658-8.872,27.105-12.95,25.057-18.213-2.049-5.263-16.013-4.741-31.19,1.167-15.177,5.908-25.819,14.964-23.771,20.227Z"/>
          <path id="nez" class="cls-5" d="m415.063,408.405c13.653-16.316,29.933-22.016,39.79-15.442.832.555,6.303,4.322,6.965,10.469,1.464,13.599-21.338,32.1-38.879,27.211-3.304-.921-5.786-2.495-7.172-3.486"/>
          <path class="cls-2" d="m560.009,403.463c-2.45-3.096-12.252-14.732-29.704-18.055-15.906-3.029-28.279,2.731-32.034,4.659"/>
          <path class="cls-2" d="m257.729,421.927c1.746-4.199,8.873-20.065,24.875-26.74,14.585-6.084,27.475-.75,31.42,1.092"/>
          <path d="m439.182,429.963c46.994-9.373,62.488-42.432,86.36-36.85,14.315,3.347,24.293,18.871,25.756,31.586,4.087,35.506-55.317,74.305-109.843,85.546-64.742,13.347-149.043-6.707-168.931-51.986-8.539-19.44-6.618-46.749,8.333-54.618,18.447-9.709,42.426,17.709,105.298,25.664,20.121,2.546,34.465,4.361,53.028.658Z"/>
          <g class="cls-3">
            <path class="cls-7" d="m396.256,482.982c24.278-4.842,32.283-21.921,44.615-19.038,7.395,1.729,12.55,9.749,13.306,16.318,2.112,18.343-3.102,36.798-31.272,42.605-33.447,6.895-127.42-8.983-137.694-32.375-4.411-10.043-28.712-33.519-20.988-37.584,9.53-5.016,72.156,25.624,104.637,29.734,10.395,1.315,17.805,2.253,27.395.34Z"/>
          </g>
        </g>
      </g>
    </g>
  </g>
</svg>