<?xml version="1.0" encoding="UTF-8"?>
<svg id="Calque_2" data-name="Calque 2" xmlns="http://www.w3.org/2000/svg" viewBox="0 0 321.806 385.758">
  <defs>
    <style>
      .cls-1 {
        fill: #fff;
      }

      .cls-2 {
        fill: #3e67ed;
      }
    </style>
  </defs>
  <g id="Composistions">
    <g id="double-star">
      <path id="star" class="cls-1" d="m260.44,0c-2.55,30.028.972,60.262,10.355,88.9,11.896,27.689,29.244,52.699,51.011,73.541-30.028-2.55-60.262.972-88.9,10.355-27.709,11.88-52.741,29.219-73.604,50.983,2.55-30.028-.972-60.262-10.355-88.9-11.865-27.693-29.182-52.715-50.92-73.575,30.019,2.56,60.247-.948,88.882-10.316,27.683-11.89,52.69-29.23,73.53-50.988Z"/>
      <path id="start-blue" class="cls-2" d="m90.213,205.281c7.381,20.882,18.891,40.063,33.843,56.402,16.347,14.943,35.536,26.441,56.421,33.811-20.882,7.381-40.063,18.891-56.402,33.843-14.961,16.343-26.477,35.531-33.862,56.421-7.381-20.882-18.891-40.063-33.843-56.402-16.328-14.955-35.499-26.471-56.37-33.862,20.879-7.372,40.061-18.87,56.402-33.811,14.941-16.342,26.439-35.523,33.811-56.402Z"/>
    </g>
  </g>
</svg>