<?xml version="1.0" encoding="UTF-8"?>
<svg id="Calque_2" data-name="Calque 2" xmlns="http://www.w3.org/2000/svg" xmlns:xlink="http://www.w3.org/1999/xlink" viewBox="0 0 888.716 865.116">
  <defs>
    <style>
      .cls-1, .cls-2, .cls-3 {
        fill: none;
      }

      .cls-4 {
        fill: #020202;
      }

      .cls-5 {
        fill: #ffe45e;
      }

      .cls-6 {
        fill: #fff;
      }

      .cls-7 {
        fill: #ff316f;
      }

      .cls-8 {
        fill: #ff97e4;
      }

      .cls-9, .cls-10 {
        fill: #9bdd50;
      }

      .cls-11 {
        fill: #3e67ed;
      }

      .cls-10, .cls-2 {
        stroke: #000;
        stroke-linecap: round;
        stroke-miterlimit: 10;
        stroke-width: 1.917px;
      }

      .cls-3 {
        clip-path: url(#clippath);
      }
    </style>
    <clipPath id="clippath">
      <path class="cls-1" d="m507.141,238.721c21.853-11.644,25.946-55.294,38.121-47.469,7.301,4.692,13.759,25.486,15.791,42.403,5.672,47.238-19.154,97.758-44.472,111.754-30.061,16.618-73.092-11.471-87.454-71.962-6.166-25.972-8.069-62.217-1.624-72.413,7.952-12.58,22.447,24.254,53.812,35.902,10.038,3.728,17.194,6.385,25.826,1.785Z"/>
    </clipPath>
  </defs>
  <g id="Composistions">
    <g id="green-easy">
      <g id="hexa">
        <g>
          <path class="cls-9" d="m466.976,556.083c-3.034,0-5.915-1.441-7.732-3.921l-170.262-232.422c-2.023-2.763-2.42-6.395-1.039-9.53L404.095,46.548c1.381-3.134,4.328-5.293,7.733-5.665l286.414-31.24c.348-.038.695-.057,1.04-.057,3.034,0,5.915,1.441,7.732,3.921l170.262,232.422c2.023,2.763,2.42,6.395,1.039,9.53l-116.152,263.662c-1.381,3.134-4.328,5.293-7.733,5.665l-286.414,31.24c-.348.038-.695.057-1.04.057Z"/>
          <path class="cls-6" d="m699.282,19.172l170.262,232.422-116.152,263.662-286.414,31.24-170.262-232.422L412.868,50.413l286.414-31.24m.003-19.172c-.691,0-1.385.038-2.082.113l-286.415,31.24c-6.809.743-12.705,5.062-15.466,11.33l-116.152,263.662c-2.762,6.268-1.969,13.533,2.079,19.059l170.262,232.422c3.634,4.96,9.396,7.843,15.463,7.843.691,0,1.385-.038,2.082-.113l286.414-31.24c6.81-.743,12.705-5.062,15.466-11.33l116.152-263.662c2.762-6.268,1.969-13.533-2.079-19.059L714.748,7.843c-3.634-4.96-9.396-7.843-15.463-7.843h0Z"/>
        </g>
        <g>
          <g>
            <path id="Tracé_46" data-name="Tracé 46" class="cls-6" d="m521.239,85.31c16.2,1.709,26.568,29.38,23.148,61.792-3.42,32.412-19.336,57.309-35.536,55.6-16.2-1.709-26.582-29.369-23.16-61.794.428-4.06,16.346-7.186,16.346-7.186,0,0-12.376-13.075-10.899-17.595,5.944-18.416,17.936-32.101,30.102-30.817Z"/>
            <path id="Tracé_46-2" data-name="Tracé 46" class="cls-4" d="m521.239,85.312c16.2,1.709,8.688,26.284,5.268,58.696-3.42,32.412-1.456,60.406-17.656,58.696-16.2-1.709-26.582-29.369-23.16-61.794.428-4.06,16.346-7.186,16.346-7.186,0,0-12.376-13.075-10.899-17.595,5.944-18.416,17.936-32.101,30.102-30.817Z"/>
          </g>
          <g>
            <path id="Tracé_43" data-name="Tracé 43" class="cls-6" d="m450.228,85.31c16.2,1.709,26.568,29.38,23.148,61.792-3.42,32.412-19.336,57.309-35.536,55.6-16.2-1.709-26.582-29.369-23.16-61.794.428-4.06,16.346-7.186,16.346-7.186,0,0-12.376-13.075-10.899-17.595,5.944-18.416,17.936-32.101,30.102-30.817Z"/>
            <path id="Tracé_46-3" data-name="Tracé 46" class="cls-4" d="m450.228,85.316c16.2,1.709,8.688,26.284,5.268,58.696-3.42,32.412-1.456,60.406-17.656,58.696-16.2-1.709-26.582-29.369-23.16-61.794.428-4.06,16.346-7.186,16.346-7.186,0,0-12.376-13.075-10.899-17.595,5.944-18.416,17.936-32.101,30.102-30.817Z"/>
          </g>
          <path class="cls-8" d="m550.408,170.75c-5.9,6.239,11.501,3.552,23.159,11.471,12.054,8.187,8.953,30.717,14.854,24.478,5.9-6.239,2.174-19.344-8.323-29.271-10.497-9.927-23.79-12.916-29.69-6.677Z"/>
          <path class="cls-8" d="m403.637,230.695c2.2,4.642,5.158-3.735,9.086-13.161,3.988-9.57,17.954-14.806,14.986-16.836-2.968-2.029-16.87,1.898-22.721,10.457-5.851,8.559-2.891,16.29-1.351,19.539Z"/>
          <path id="nez" class="cls-10" d="m483.457,186.487c-14.496-17.323-31.782-23.375-42.247-16.396-.883.589-6.692,4.588-7.395,11.115-1.554,14.438,22.655,34.082,41.28,28.891,3.508-.978,6.143-2.649,7.615-3.701"/>
          <path class="cls-2" d="m578.262,226.499c.371-5.935,1.316-28.439-9.598-39.766-9.947-10.324-23.56-4.945-27.821-3.015"/>
          <path class="cls-2" d="m416.776,239.985c-.866-3.352-3.857-16.16,1.842-24.985,5.194-8.043,14.378-7.778,17.279-7.552"/>
          <path class="cls-4" d="m507.141,238.721c21.853-11.644,25.946-55.294,38.121-47.469,7.301,4.692,13.759,25.486,15.791,42.403,5.672,47.238-19.154,97.758-44.472,111.754-30.061,16.618-53.893-2.448-73.174-49.063-8.642-20.893-15.796-58.13-11.671-77.058,4.655-21.362,18.215,6,49.58,17.648,10.038,3.728,17.194,6.385,25.826,1.785Z"/>
          <g class="cls-3">
            <path class="cls-8" d="m537.083,302.118c-18.035,3.69-31.399,16.801-38,14.57-3.958-1.338-3.452-7.505-.794-12.553,7.422-14.095,19.64-28.266,40.656-32.693,24.953-5.256,78.17,7.06,73.613,25.043-1.957,7.721,2.524,25.787-4.424,28.9-8.572,3.841-34.427-19.775-53.481-22.973-6.098-1.023-10.445-1.753-17.569-.295Z"/>
          </g>
        </g>
      </g>
      <g id="easy">
        <polygon class="cls-6" points="532.401 525.863 541.541 727.97 371.081 836.939 191.481 743.801 182.341 541.694 352.801 432.725 532.401 525.863"/>
        <g>
          <path class="cls-5" d="m86.492,829.124c-22.432,0-41.634-16.007-45.658-38.062l-29.051-159.218c-4.591-25.163,12.146-49.37,37.309-53.962l585.428-106.816c2.738-.5,5.532-.753,8.303-.753,22.433,0,41.635,16.007,45.658,38.062l29.051,159.217c2.218,12.151-.451,24.469-7.514,34.683-7.062,10.215-17.644,17.061-29.795,19.278l-585.427,106.816c-2.739.5-5.533.753-8.304.753Z"/>
          <path class="cls-6" d="m642.822,481.333c16.734,0,31.713,12.005,34.817,29.02l29.05,159.217c3.492,19.137-9.309,37.651-28.445,41.143l-585.427,106.816c-2.122.387-4.238.574-6.325.574-16.734,0-31.713-12.005-34.818-29.02l-29.05-159.217c-3.492-19.137,9.309-37.651,28.446-41.143l585.427-106.816c2.122-.387,4.238-.574,6.325-.574m0-22.04h0c-3.433,0-6.892.313-10.282.932L47.114,567.042c-15.047,2.745-28.145,11.216-36.881,23.852-8.736,12.636-12.036,27.881-9.29,42.928l29.05,159.217c4.979,27.294,28.741,47.104,56.5,47.104,3.433,0,6.892-.313,10.282-.932l585.427-106.816c31.141-5.682,51.853-35.64,46.171-66.781l-29.05-159.217c-4.98-27.294-28.741-47.104-56.498-47.104h0Z"/>
        </g>
        <polygon class="cls-5" points="511.415 544.565 519.153 715.673 374.838 807.929 222.784 729.076 215.046 557.968 359.361 465.712 511.415 544.565"/>
        <g>
          <g>
            <path class="cls-8" d="m136.123,748.668c-23.416,4.272-42.527,1.753-57.334-7.561-14.805-9.31-24.047-24.049-27.727-44.214-3.619-19.838-.42-36.596,9.605-50.271,10.02-13.675,25.195-22.366,45.525-26.075,20.49-3.739,37.377-1.189,50.668,7.642,13.289,8.835,21.654,22.683,25.096,41.545.684,3.742.885,7.148.605,10.223l-81.713,14.909c.783,3.386,4.551,5.388,11.303,6.003,6.75.62,14.84.065,24.271-1.656,15.611-2.848,28.752-8.184,39.422-16.014l10.008,46.565c-12.99,8.924-29.568,15.226-49.73,18.904Zm-37.209-63.027l37.32-6.809c-1.188-4.654-3.723-7.973-7.613-9.953-3.889-1.976-8.438-2.493-13.639-1.544-10.572,1.929-15.926,8.034-16.068,18.306Z"/>
            <path class="cls-8" d="m237.349,730.199c-27.807,5.074-44.025-5.074-48.654-30.441-2.105-11.544.381-21.619,7.467-30.221,7.082-8.602,17.535-14.164,31.359-16.686,9.27-1.691,17.264-1.385,23.984.917,6.723,2.302,11.205,5.938,13.457,10.903l3.414-.623-.533-2.927c-1.039-5.69-5.562-9.989-13.568-12.899-8.01-2.906-17.219-3.411-27.623-1.513-13.336,2.433-25.471,7.758-36.404,15.967l-8.768-48.052c14.203-7.798,30.086-13.303,47.648-16.507,25.691-4.688,46.721-2.937,63.084,5.25,16.365,8.19,24.219,22.006,23.568,41.445l-.391,14.438,15.855-2.893,9.346,51.223-66.104,12.061-1.328-33.531-3.902.712c1.6,10.632-.875,20.07-7.436,28.324-6.559,8.254-14.715,13.271-24.473,15.052Zm18.488-46.473c11.381-2.076,16.689-5.227,15.918-9.458-.771-4.227-6.852-5.303-18.232-3.227-11.219,2.047-16.443,5.186-15.672,9.413.771,4.23,6.768,5.319,17.986,3.271Z"/>
            <path class="cls-8" d="m404.92,699.624c-7.807,1.424-17.918,2.426-30.326,3.013-12.414.587-22.553.503-30.416-.247l-10.193-55.858c8.842,2.42,18.641,3.869,29.4,4.34,10.754.476,19.951.014,27.598-1.381,8.129-1.483,13.688-2.789,16.674-3.924,2.984-1.131,4.258-2.919,3.812-5.358-.297-1.624-3.1-2.246-8.406-1.869-5.311.382-11.764.93-19.359,1.642-7.602.717-15.289.943-23.064.68-7.777-.259-14.721-2.394-20.828-6.408-6.111-4.008-9.891-9.998-11.344-17.967-2.018-11.056,1.936-20.682,11.867-28.882,9.93-8.196,25.221-14.179,45.875-17.948,17.562-3.204,34.689-3.722,51.383-1.562l9.791,50.891c-13.695-5.062-29.488-5.961-47.373-2.698-6.83,1.246-11.697,2.429-14.602,3.546-2.906,1.12-4.164,2.736-3.779,4.848.238,1.303,3.008,1.762,8.318,1.38,5.307-.377,11.783-.803,19.426-1.275,7.641-.47,15.383-.413,23.221.173,7.834.587,14.814,2.929,20.939,7.018,6.121,4.093,9.896,10.04,11.322,17.845,2.225,12.196-1.924,22.617-12.445,31.256-10.521,8.638-26.354,14.89-47.49,18.747Z"/>
            <path class="cls-8" d="m511.386,730.606c-8.293,1.513-17.6,2.538-27.918,3.078l-8.305-52.422c12.42,1.767,23.102,1.834,32.047.203,6.502-1.187,11.48-2.686,14.934-4.489,3.449-1.807,5.352-4.505,5.705-8.098l.262-6.853-23.172,4.228-63.426-103.107,69.029-12.595,19.398,60.731,3.416-.623-4.031-63.535,69.762-12.729-22.42,146.494c-.576,3.295-1.125,6.042-1.646,8.24-.525,2.195-2.207,5.652-5.039,10.371-2.838,4.716-6.342,8.758-10.516,12.126-4.176,3.365-10.43,6.857-18.756,10.479-8.33,3.619-18.104,6.454-29.324,8.501Z"/>
            <path class="cls-8" d="m679.443,641.217c-4.428,5.679-10.539,9.232-18.346,10.657-7.805,1.424-14.783.259-20.926-3.491-6.146-3.75-9.885-9.286-11.221-16.604-1.363-7.478.164-14.058,4.59-19.74,4.422-5.679,10.539-9.232,18.346-10.656,7.805-1.424,14.777-.259,20.926,3.491,6.143,3.754,9.9,9.37,11.266,16.848,1.334,7.318-.213,13.818-4.635,19.497Z"/>
          </g>
          <g>
            <path class="cls-6" d="m130.197,758.54c-23.416,4.272-42.527,1.754-57.332-7.561-14.805-9.31-24.047-24.049-27.727-44.215-3.621-19.837-.42-36.596,9.604-50.271,10.021-13.675,25.195-22.366,45.525-26.075,20.49-3.739,37.377-1.188,50.668,7.642,13.289,8.834,21.656,22.682,25.098,41.544.684,3.742.883,7.148.605,10.223l-81.713,14.909c.781,3.387,4.549,5.389,11.303,6.003,6.748.62,14.838.065,24.271-1.656,15.611-2.848,28.752-8.184,39.422-16.015l10.008,46.566c-12.99,8.923-29.57,15.225-49.732,18.903Zm-37.207-63.026l37.318-6.81c-1.188-4.655-3.723-7.973-7.611-9.953-3.891-1.976-8.439-2.493-13.641-1.544-10.572,1.929-15.926,8.033-16.066,18.307Z"/>
            <path class="cls-6" d="m231.423,740.07c-27.807,5.074-44.025-5.074-48.652-30.441-2.107-11.545.379-21.619,7.465-30.221,7.084-8.602,17.535-14.163,31.359-16.686,9.27-1.691,17.264-1.386,23.986.917,6.721,2.302,11.203,5.938,13.455,10.903l3.416-.623-.535-2.927c-1.037-5.69-5.562-9.989-13.568-12.899-8.008-2.906-17.217-3.411-27.621-1.513-13.336,2.433-25.471,7.758-36.406,15.968l-8.768-48.053c14.203-7.797,30.086-13.303,47.648-16.507,25.691-4.688,46.721-2.937,63.086,5.25,16.365,8.19,24.219,22.006,23.566,41.445l-.391,14.438,15.855-2.893,9.346,51.223-66.102,12.061-1.33-33.531-3.902.712c1.602,10.632-.873,20.07-7.434,28.324-6.561,8.255-14.717,13.271-24.475,15.052Zm18.49-46.473c11.379-2.076,16.688-5.227,15.916-9.457-.771-4.227-6.852-5.304-18.23-3.227-11.221,2.047-16.445,5.187-15.674,9.413.771,4.23,6.768,5.318,17.988,3.271Z"/>
            <path class="cls-6" d="m398.994,709.495c-7.807,1.424-17.918,2.427-30.326,3.013-12.412.587-22.553.503-30.416-.248l-10.191-55.858c8.842,2.42,18.641,3.869,29.398,4.339,10.754.476,19.953.014,27.598-1.381,8.129-1.483,13.688-2.789,16.676-3.924,2.984-1.131,4.256-2.919,3.811-5.358-.297-1.624-3.1-2.246-8.406-1.869-5.311.382-11.764.929-19.359,1.642-7.6.717-15.289.943-23.064.68-7.777-.259-14.721-2.395-20.828-6.408-6.111-4.008-9.889-9.998-11.344-17.967-2.018-11.057,1.938-20.682,11.869-28.882,9.93-8.195,25.221-14.18,45.875-17.948,17.561-3.204,34.688-3.722,51.383-1.562l9.789,50.891c-13.695-5.062-29.486-5.962-47.373-2.698-6.83,1.246-11.697,2.429-14.602,3.546-2.906,1.121-4.162,2.736-3.777,4.848.238,1.303,3.008,1.763,8.316,1.38,5.307-.377,11.783-.803,19.428-1.275,7.641-.469,15.381-.412,23.219.174,7.834.587,14.814,2.928,20.939,7.017,6.123,4.093,9.898,10.04,11.322,17.845,2.225,12.196-1.924,22.617-12.445,31.256-10.521,8.638-26.354,14.89-47.49,18.747Z"/>
            <path class="cls-6" d="m505.463,740.477c-8.293,1.514-17.602,2.539-27.92,3.078l-8.305-52.422c12.422,1.767,23.102,1.834,32.047.203,6.502-1.187,11.48-2.687,14.934-4.49,3.451-1.807,5.352-4.505,5.705-8.098l.262-6.853-23.172,4.228-63.424-103.107,69.029-12.595,19.398,60.731,3.414-.623-4.031-63.535,69.762-12.729-22.418,146.494c-.576,3.295-1.127,6.042-1.648,8.239-.523,2.195-2.205,5.652-5.039,10.372-2.836,4.715-6.34,8.757-10.516,12.126-4.174,3.364-10.43,6.857-18.756,10.479-8.328,3.619-18.102,6.454-29.322,8.5Z"/>
            <path class="cls-6" d="m673.517,651.088c-4.426,5.679-10.539,9.232-18.344,10.657-7.807,1.424-14.783.259-20.928-3.491-6.146-3.75-9.885-9.286-11.219-16.604-1.365-7.479.162-14.058,4.588-19.741,4.424-5.679,10.539-9.232,18.346-10.656,7.805-1.424,14.779-.259,20.926,3.491,6.143,3.755,9.9,9.37,11.266,16.848,1.336,7.317-.213,13.818-4.635,19.496Z"/>
          </g>
        </g>
      </g>
      <path id="star" class="cls-7" d="m158.954,137.701c14.728,22.278,33.79,41.364,56.05,56.119,23.486,12.714,49.291,20.57,75.877,23.1-22.278,14.728-41.364,33.79-56.119,56.05-12.737,23.486-20.613,49.296-23.16,75.892-14.728-22.278-33.79-41.364-56.05-56.119-23.467-12.735-49.256-20.616-75.832-23.174,22.278-14.716,41.367-33.765,56.128-56.013,12.713-23.478,20.571-49.276,23.106-75.855Z"/>
      <path id="star-2" data-name="star" class="cls-11" d="m73.348,339.338c10.999,8.489,23.595,14.676,37.036,18.194,13.701,2.307,27.726,1.831,41.24-1.398-8.489,10.999-14.676,23.595-18.194,37.036-2.318,13.705-1.852,27.736,1.371,41.257-10.999-8.489-23.595-14.676-37.036-18.194-13.695-2.32-27.717-1.86-41.23,1.353,8.491-10.993,14.682-23.583,18.204-37.019,2.307-13.697,1.834-27.719-1.391-41.23Z"/>
    </g>
  </g>
</svg>