<?xml version="1.0" encoding="UTF-8"?>
<svg id="Calque_2" data-name="Calque 2" xmlns="http://www.w3.org/2000/svg" xmlns:xlink="http://www.w3.org/1999/xlink" viewBox="0 0 832.099 767.041">
  <defs>
    <style>
      .cls-1, .cls-2, .cls-3, .cls-4, .cls-5 {
        fill: none;
      }

      .cls-6, .cls-7 {
        fill: #ffe45e;
      }

      .cls-6, .cls-3 {
        stroke-width: 1.745px;
      }

      .cls-6, .cls-3, .cls-4, .cls-8 {
        stroke: #000;
        stroke-linecap: round;
        stroke-miterlimit: 10;
      }

      .cls-2 {
        clip-path: url(#clippath-1);
      }

      .cls-9 {
        fill: #fac840;
      }

      .cls-10 {
        fill: #020202;
      }

      .cls-11 {
        fill: #fff;
      }

      .cls-12 {
        fill: #ff316f;
      }

      .cls-13 {
        fill: #ff97e4;
      }

      .cls-14 {
        fill: #ff6392;
      }

      .cls-15, .cls-8 {
        fill: #9bdd50;
      }

      .cls-16 {
        fill: #3e67ed;
      }

      .cls-5 {
        clip-path: url(#clippath);
      }
    </style>
    <clipPath id="clippath">
      <path class="cls-1" d="m362.15,595.207c10.307-7.784,8.85-30.605,15.761-27.568,4.144,1.821,9.17,12.005,11.598,20.554,6.781,23.872-1.881,51.926-13.781,61.204-14.129,11.016-38.591.061-50.931-29.928-5.298-12.876-9.239-31.392-6.752-37.171,3.069-7.13,13.545,10.661,30.654,14.099,5.476,1.1,9.379,1.885,13.45-1.19Z"/>
    </clipPath>
    <clipPath id="clippath-1">
      <path class="cls-1" d="m493.451,264.244c-46.312-.261-67.087-28.782-88.712-19.101-12.968,5.806-19.583,22.369-18.636,34.702,2.645,34.441,66.138,60.342,119.941,60.991,63.882.77,140.188-33.745,150.741-80.361,4.531-20.015-2.309-45.574-17.94-50.293-19.287-5.823-37.003,24.597-95.198,43.695-18.624,6.112-31.901,10.469-50.195,10.366Z"/>
    </clipPath>
  </defs>
  <g id="Composistions">
    <g id="hexa-sunny">
      <g id="hexa">
        <g>
          <path class="cls-15" d="m366.601,762.041c-1.302,0-2.573-.509-3.521-1.45l-106.698-105.825c-1.269-1.258-1.769-3.097-1.314-4.824l38.298-145.316c.455-1.727,1.797-3.081,3.521-3.55l144.997-39.491c.434-.118.875-.176,1.314-.176,1.301,0,2.572.509,3.521,1.45l106.698,105.826c1.269,1.258,1.769,3.097,1.314,4.824l-38.299,145.316c-.455,1.727-1.797,3.081-3.521,3.55l-144.997,39.49c-.434.118-.875.176-1.313.176Z"/>
          <path class="cls-11" d="m443.198,466.409l106.698,105.825-38.299,145.316-144.997,39.49-106.698-105.825,38.299-145.316,144.997-39.49m0-10c-.876,0-1.759.115-2.627.352l-144.997,39.49c-3.447.939-6.131,3.646-7.042,7.1l-38.299,145.316c-.911,3.455.091,7.133,2.628,9.649l106.698,105.825c1.898,1.882,4.439,2.9,7.043,2.9.876,0,1.759-.115,2.627-.352l144.997-39.49c3.447-.939,6.132-3.646,7.042-7.1l38.299-145.316c.91-3.455-.091-7.133-2.628-9.649l-106.698-105.825c-1.898-1.882-4.439-2.9-7.043-2.9h0Z"/>
        </g>
        <g>
          <g>
            <path id="Tracé_46" data-name="Tracé 46" class="cls-11" d="m356.881,515.024c8.485-.443,16.087,12.965,16.972,29.942s-5.28,31.103-13.765,31.545c-8.485.443-16.093-12.958-16.979-29.942-.111-2.126,7.834-5.037,7.834-5.037,0,0-7.444-5.725-7.052-8.174,1.558-9.972,6.618-18.002,12.99-18.335Z"/>
            <path id="Tracé_46-2" data-name="Tracé 46" class="cls-10" d="m356.881,515.025c8.485-.443,6.623,12.831,7.508,29.807.886,16.977,4.184,31.237-4.301,31.68-8.485.443-16.093-12.958-16.979-29.942-.111-2.126,7.834-5.037,7.834-5.037,0,0-7.444-5.725-7.052-8.174,1.558-9.972,6.618-18.002,12.99-18.335Z"/>
          </g>
          <g>
            <path id="Tracé_43" data-name="Tracé 43" class="cls-11" d="m320.299,520.825c8.485-.443,16.087,12.965,16.972,29.942.886,16.977-5.28,31.103-13.765,31.545-8.485.443-16.093-12.958-16.979-29.942-.111-2.126,7.834-5.037,7.834-5.037,0,0-7.444-5.725-7.052-8.174,1.558-9.972,6.618-18.002,12.99-18.335Z"/>
            <path id="Tracé_46-3" data-name="Tracé 46" class="cls-10" d="m320.299,520.828c8.485-.443,6.623,12.831,7.508,29.807.886,16.977,4.184,31.237-4.301,31.68-8.485.443-16.093-12.958-16.979-29.942-.111-2.126,7.834-5.037,7.834-5.037,0,0-7.444-5.725-7.052-8.174,1.558-9.972,6.618-18.002,12.99-18.335Z"/>
          </g>
          <path class="cls-13" d="m378.887,556.657c-2.53,3.696,6.215.89,12.868,4.017,6.878,3.233,7.122,15.093,9.652,11.397,2.53-3.696-.46-10.143-6.679-14.399-6.218-4.256-13.311-4.711-15.84-1.015Z"/>
          <path class="cls-13" d="m308.173,599.527c1.513,2.212,2.352-2.346,3.606-7.522,1.273-5.256,8.04-9.094,6.345-9.897s-8.535,2.356-10.851,7.243c-2.315,4.887-.159,8.628.9,10.176Z"/>
          <path id="nez" class="cls-8" d="m345.682,570.233c-8.883-7.74-18.282-9.446-23.103-4.995-.407.376-3.073,2.91-2.902,6.33.379,7.565,14.455,15.707,23.626,11.511,1.727-.79,2.948-1.866,3.621-2.529"/>
          <path class="cls-4" d="m397.79,583.101c-.294-3.088-1.645-14.758-8.193-19.702-5.967-4.506-12.541-.623-14.579.72"/>
          <path class="cls-4" d="m315.701,603.24c-.72-1.656-3.307-8.01-1.092-13.022,2.019-4.568,6.771-5.181,8.284-5.302"/>
          <path class="cls-10" d="m362.15,595.207c10.307-7.784,8.85-30.605,15.761-27.568,4.144,1.821,9.17,12.005,11.598,20.554,6.781,23.872-1.881,51.926-13.781,61.204-14.129,11.016-27.964,3.142-41.704-19.298-6.159-10.057-12.886-28.656-12.307-38.744.653-11.385,9.874,1.603,26.983,5.041,5.476,1.1,9.379,1.885,13.45-1.19Z"/>
          <g class="cls-5">
            <path class="cls-13" d="m382.753,625.421c-8.989,3.374-14.803,11.22-18.386,10.61-2.148-.366-2.391-3.584-1.434-6.402,2.672-7.867,7.809-16.166,18.273-20.163,12.425-4.746,40.847-2.749,39.968,6.888-.377,4.138,3.407,13.078.082,15.249-4.102,2.679-19.351-7.375-29.428-7.466-3.225-.029-5.524-.05-9.075,1.283Z"/>
          </g>
        </g>
      </g>
      <g id="sunny">
        <g id="Polygone_1" data-name="Polygone 1">
          <path class="cls-7" d="m642.994,527.663c-3.653.06-7.309-.37-10.864-1.279l-53.775-13.746c-4.562-1.166-9.261-1.718-13.969-1.641-4.708.077-9.387.783-13.908,2.098l-53.295,15.502c-3.523,1.025-7.162,1.575-10.816,1.635-13.468.221-26.207-6.177-34.075-17.114l-32.172-44.721c-5.547-7.711-13.081-13.794-21.787-17.593l-50.539-22.052c-16.054-7.005-25.926-23.444-24.566-40.906l4.239-54.417c.742-9.531-1.114-19.093-5.369-27.654l-24.302-48.892c-7.816-15.724-4.785-34.691,7.542-47.197l38.483-39.041c6.694-6.791,11.433-15.276,13.704-24.537l13.046-53.2c4.155-16.946,18.615-29.465,35.981-31.152l55.151-5.359c9.422-.916,18.443-4.351,26.087-9.935l44.718-32.665c6.897-5.038,15.055-7.775,23.595-7.915,8.539-.14,16.784,2.328,23.842,7.137l45.765,31.181c7.823,5.33,16.952,8.468,26.399,9.074l55.297,3.548c17.412,1.117,32.274,13.155,36.983,29.956l14.783,52.743c2.573,9.181,7.588,17.506,14.501,24.074l39.743,37.758c12.73,12.095,16.381,30.952,9.085,46.924l-22.686,49.663c-3.972,8.696-5.514,18.314-4.46,27.815l6.021,54.248c1.932,17.408-7.396,34.162-23.211,41.69l-49.789,23.697c-8.577,4.082-15.907,10.409-21.198,18.298l-30.688,45.752c-7.505,11.189-20.027,18.001-33.495,18.222Z"/>
          <path class="cls-14" d="m556.198,11.76c-7.32.12-14.313,2.466-20.224,6.784l-44.718,32.665c-8.494,6.204-18.517,10.022-28.986,11.039l-55.151,5.359c-14.885,1.447-27.279,12.177-30.841,26.702l-13.046,53.2c-2.523,10.29-7.789,19.718-15.226,27.263l-38.483,39.041c-10.566,10.719-13.164,26.976-6.464,40.454l24.302,48.892c4.728,9.512,6.791,20.137,5.966,30.727l-4.239,54.417c-1.166,14.968,7.296,29.058,21.056,35.062l50.539,22.052c9.673,4.221,18.044,10.98,24.207,19.548l32.172,44.721c6.744,9.375,17.663,14.859,29.207,14.67,3.131-.051,6.25-.523,9.271-1.402l53.295-15.502c10.046-2.922,20.837-3.099,30.974-.508l53.775,13.746c3.048.779,6.181,1.148,9.312,1.097,11.544-.189,22.277-6.029,28.71-15.62l30.688-45.751c5.879-8.765,14.024-15.795,23.554-20.331l49.789-23.697c13.556-6.452,21.551-20.812,19.895-35.734l-6.021-54.248c-1.172-10.557.542-21.244,4.955-30.906l22.686-49.663c6.254-13.69,3.124-29.854-7.788-40.221l-39.743-37.758c-7.681-7.298-13.253-16.547-16.112-26.749l-14.783-52.743c-4.036-14.4-16.775-24.719-31.7-25.676l-55.297-3.548c-10.497-.673-20.64-4.16-29.332-10.082l-45.765-31.181c-6.05-4.122-13.116-6.237-20.436-6.117m-.193-11.754c9.49-.156,19.028,2.556,27.247,8.156l45.765,31.181c6.959,4.741,15.063,7.527,23.466,8.066l55.297,3.548c19.929,1.279,36.877,15.006,42.266,34.235l14.783,52.743c2.288,8.165,6.742,15.559,12.89,21.399l39.743,37.758c14.554,13.827,18.724,35.368,10.383,53.628l-22.686,49.663c-3.532,7.732-4.902,16.276-3.964,24.725l6.021,54.248c2.21,19.911-8.438,39.036-26.527,47.645l-49.789,23.697c-7.628,3.631-14.137,9.249-18.843,16.265l-30.688,45.751c-11.094,16.539-31.402,24.296-50.697,19.364l-53.775-13.746c-8.147-2.083-16.704-1.942-24.779.406l-53.295,15.502c-19.122,5.562-39.675-1.525-51.304-17.691l-32.172-44.721c-4.933-6.858-11.623-12.26-19.366-15.638l-50.539-22.052c-18.361-8.012-29.631-26.777-28.075-46.75l4.239-54.417c.66-8.475-.989-16.969-4.773-24.581l-24.302-48.892c-8.935-17.976-5.473-39.643,8.619-53.939l38.483-39.041c5.953-6.039,10.161-13.575,12.181-21.81l13.046-53.2c4.756-19.395,21.245-33.671,41.121-35.603l55.151-5.359c8.381-.814,16.389-3.864,23.189-8.831l44.718-32.665C537.072,3.185,546.515.162,556.006.006Z"/>
        </g>
        <g>
          <g>
            <path id="Tracé_46-4" data-name="Tracé 46" class="cls-11" d="m532.186,139.921c14.773-1.275,28.826,21.66,31.378,51.217,2.551,29.557-7.364,54.561-22.137,55.836s-28.837-21.647-31.39-51.216c-.32-3.702,13.364-9.25,13.364-9.25,0,0-13.323-9.543-12.785-13.838,2.126-17.486,10.475-31.791,21.569-32.749Z"/>
            <path id="Tracé_46-5" data-name="Tracé 46" d="m532.186,139.923c14.773-1.275,12.312,21.986,14.863,51.543,2.551,29.557,9.15,54.235-5.623,55.51-14.773,1.275-28.837-21.647-31.39-51.216-.32-3.702,13.364-9.25,13.364-9.25,0,0-13.323-9.543-12.785-13.838,2.126-17.486,10.475-31.791,21.569-32.749Z"/>
          </g>
          <g>
            <path id="Tracé_43-2" data-name="Tracé 43" class="cls-11" d="m468.725,152.208c14.773-1.275,28.826,21.66,31.378,51.217,2.551,29.557-7.364,54.561-22.137,55.836-14.773,1.275-28.837-21.647-31.39-51.216-.32-3.702,13.364-9.25,13.364-9.25,0,0-13.323-9.543-12.785-13.838,2.126-17.486,10.475-31.791,21.569-32.749Z"/>
            <path id="Tracé_46-6" data-name="Tracé 46" d="m468.727,152.213c14.773-1.275,12.312,21.986,14.863,51.543,2.551,29.557,9.15,54.235-5.623,55.51-14.773,1.275-28.837-21.647-31.39-51.216-.32-3.702,13.364-9.25,13.364-9.25,0,0-13.323-9.543-12.785-13.838,2.126-17.486,10.475-31.791,21.569-32.749Z"/>
          </g>
          <path class="cls-13" d="m419.839,218.659c1.614,5.215-10.668,10.93-25.571,14.041-15.408,3.217-27.266,8.03-28.88,2.815-1.614-5.214,9.266-13.215,24.303-17.87,15.036-4.655,28.534-4.201,30.148,1.013Z"/>
          <path class="cls-13" d="m675.946,193.971c-.977,5.371-14.591,8.295-28.959,2.476-14.589-5.909-28.098-7.308-27.121-12.679.977-5.371,14.323-7.44,29.809-4.623,15.486,2.817,27.248,9.455,26.271,14.826Z"/>
          <path id="nez-2" data-name="nez" class="cls-6" d="m512.376,239.359c-15.952-12.973-32.447-15.391-40.592-7.343-.687.679-5.187,5.258-4.685,11.213,1.109,13.172,26.144,26.538,41.889,18.676,2.966-1.481,5.032-3.43,6.165-4.625"/>
          <path class="cls-3" d="m373.936,261.297c1.756-3.388,8.919-16.229,24.868-22.589,14.536-5.796,27.335-2.604,31.251-1.464"/>
          <path class="cls-3" d="m664.147,223.285c-2.428-3.663-12.105-17.408-28.515-20.802-14.956-3.093-26.207,4.335-29.613,6.809"/>
          <path d="m493.451,264.244c-46.312-.261-67.087-28.782-88.712-19.101-12.968,5.806-19.583,22.369-18.636,34.702,2.645,34.441,66.138,60.342,119.941,60.991,63.882.77,140.188-33.745,150.741-80.361,4.531-20.015-2.309-45.574-17.94-50.293-19.287-5.823-37.003,24.597-95.198,43.695-18.624,6.112-31.901,10.469-50.195,10.366Z"/>
          <g class="cls-2">
            <path class="cls-13" d="m543.922,306.666c-23.926-.135-34.659-14.869-45.831-9.868-6.7,2.999-10.117,11.556-9.628,17.928,1.366,17.793,9.704,34.346,37.499,34.681,33.003.398,119.252-31.932,124.704-56.015,2.341-10.34,21.086-37.079,13.01-39.517-9.964-3.008-63.758,37.569-93.823,47.436-9.622,3.158-16.481,5.409-25.932,5.355Z"/>
          </g>
        </g>
      </g>
      <path id="star-green" class="cls-15" d="m298.734,34.399c.578,7.296,2.619,14.4,6.001,20.89,3.946,6.163,9.093,11.469,15.134,15.601-7.296.578-14.4,2.619-20.89,6.001-6.169,3.943-11.48,9.089-15.617,15.129-.578-7.296-2.619-14.4-6.001-20.89-3.939-6.165-9.079-11.475-15.113-15.612,7.294-.575,14.397-2.612,20.887-5.99,6.162-3.945,11.467-9.089,15.599-15.127Z"/>
      <path id="star-yellow" class="cls-9" d="m127.072,185.778c5.303,7.073,11.976,13.007,19.62,17.446,8.01,3.741,16.691,5.832,25.525,6.147-7.073,5.303-13.007,11.976-17.446,19.62-3.749,8.01-5.846,16.693-6.166,25.531-5.303-7.073-11.976-13.007-19.62-17.446-8.004-3.748-16.68-5.848-25.512-6.173,7.073-5.299,13.008-11.968,17.45-19.608,3.741-8.007,5.833-16.686,6.149-25.518Z"/>
      <path id="star-pink" class="cls-12" d="m156.286,346.676c1.845,5.221,4.723,10.017,8.461,14.102,4.087,3.736,8.885,6.611,14.106,8.453-5.221,1.845-10.017,4.723-14.102,8.461-3.741,4.086-6.62,8.884-8.466,14.106-1.845-5.221-4.723-10.017-8.461-14.102-4.082-3.739-8.875-6.618-14.094-8.466,5.22-1.843,10.016-4.718,14.102-8.453,3.735-4.086,6.61-8.882,8.453-14.102Z"/>
      <path id="star" class="cls-11" d="m208.025,214.204c.79,4.945,2.568,9.679,5.227,13.922,3.026,3.989,6.825,7.329,11.169,9.819-4.945.79-9.679,2.568-13.922,5.227-3.993,3.025-7.336,6.822-9.83,11.167-.79-4.945-2.568-9.679-5.227-13.922-3.021-3.991-6.815-7.334-11.156-9.828,4.944-.788,9.678-2.564,13.921-5.22,3.989-3.025,7.328-6.822,9.818-11.165Z"/>
      <path id="start-blue" class="cls-16" d="m18.473,455.613c4.554,5.729,10.214,10.483,16.644,13.978,6.716,2.909,13.948,4.436,21.266,4.49-5.729,4.554-10.483,10.214-13.978,16.644-2.915,6.716-4.447,13.95-4.506,21.272-4.554-5.729-10.214-10.483-16.644-13.978-6.711-2.915-13.94-4.449-21.256-4.511,5.729-4.55,10.484-10.207,13.981-16.634,2.909-6.714,4.436-13.944,4.492-21.26Z"/>
    </g>
  </g>
</svg>