<?xml version="1.0" encoding="UTF-8"?>
<svg id="Calque_2" data-name="Calque 2" xmlns="http://www.w3.org/2000/svg" xmlns:xlink="http://www.w3.org/1999/xlink" viewBox="0 0 1077.614 888.566">
  <defs>
    <style>
      .cls-1, .cls-2, .cls-3 {
        fill: none;
      }

      .cls-4 {
        fill: #fac840;
      }

      .cls-5 {
        fill: #020202;
      }

      .cls-6 {
        fill: #ffe45e;
      }

      .cls-7 {
        fill: #fff;
      }

      .cls-8 {
        fill: #ff316f;
      }

      .cls-9, .cls-10 {
        fill: #ff97e4;
      }

      .cls-11, .cls-12 {
        fill: #3e67ed;
      }

      .cls-12, .cls-2 {
        stroke: #000;
        stroke-linecap: round;
        stroke-width: 2.513px;
      }

      .cls-12, .cls-2, .cls-10 {
        stroke-miterlimit: 10;
      }

      .cls-10 {
        stroke: #fff;
        stroke-width: 1.062px;
      }

      .cls-3 {
        clip-path: url(#clippath);
      }
    </style>
    <clipPath id="clippath">
      <path class="cls-1" d="m670.643,485.261c52.293-17.411,65.252-57.352,93.293-54.393,16.815,1.775,30.42,18.066,33.907,32.368,9.737,39.938-52.515,92.703-113.137,113.321-71.98,24.481-171.053,13.638-200.219-35.195-12.522-20.966-14.231-52.407,1.707-63.523,19.666-13.715,50.949,14.149,123.837,14.246,23.327.031,39.956.053,60.612-6.825Z"/>
    </clipPath>
  </defs>
  <g id="Composistions">
    <g id="square-ecto-caen">
      <g id="ecto">
        <rect class="cls-7" x="7.998" y="44.687" width="874.103" height="275.041" rx="45.741" ry="45.741" transform="translate(-18.101 52.746) rotate(-6.648)"/>
        <g>
          <path class="cls-11" d="m223.631,187.488l-104.521,9.208,1.402,12.032,76.545-11.895,3.078,26.411-77.229,6.027,1.471,12.619,110.02-18.177,10.021,85.985-176.959,20.624-23.942-205.425,170.503-19.872,9.611,82.463Z"/>
          <path class="cls-11" d="m372.586,299.222c-36.389,4.241-66.169-1.161-89.339-16.21-23.169-15.045-36.863-40.664-41.082-76.862-4.241-36.389,3.273-64.63,22.547-84.724,19.271-20.093,47.202-32.272,83.787-36.536,24.257-2.827,47.1-2.514,68.523.938l5.868,96.285c-7.522-3.288-17.154-5.535-28.895-6.746-11.741-1.206-23.384-1.142-34.927.203-34.629,4.036-51.316,11.437-50.062,22.195.752,6.456,6.002,10.259,15.756,11.4,9.749,1.146,23.917.634,42.505-1.532,12.325-1.436,24.526-4.345,36.611-8.729,12.079-4.383,21.573-9.254,28.487-14.623l11.908,97.068c-19.814,8.653-43.708,14.613-71.685,17.874Z"/>
          <path class="cls-11" d="m611.954,58.647l11.449,90.578-64.317,4.521,27.801,116.038-78.647,9.166.077-119.287-63.339,10.357-9.982-90.749,176.959-20.624Z"/>
          <path class="cls-11" d="m826.227,217.796c-17.377,21.062-42.011,33.452-73.898,37.168-31.891,3.717-58.714-2.676-80.464-19.177-21.755-16.502-34.613-41.773-38.581-75.815-3.967-34.042,2.696-61.486,19.999-82.345,17.299-20.852,41.991-33.152,74.078-36.892,32.084-3.739,58.942,2.552,80.578,18.867,21.63,16.321,34.432,41.497,38.4,75.539,3.967,34.042-2.74,61.593-20.111,82.656Zm-113.138-51.955c7.455,2.7,17.147,3.354,29.081,1.963,11.931-1.391,21.218-4.257,27.851-8.599,6.634-4.343,9.585-9.642,8.855-15.905-.729-6.258-4.82-10.741-12.275-13.443-7.453-2.7-17.15-3.354-29.081-1.963-11.935,1.391-21.217,4.257-27.851,8.599-6.632,4.343-9.583,9.647-8.853,15.905.73,6.263,4.82,10.741,12.274,13.443Z"/>
        </g>
      </g>
      <g id="square">
        <g>
          <path class="cls-11" d="m467.215,803.044c-67.834-.003-127.3-48.104-141.397-114.373l-68.866-323.731c-2.723-12.798-.278-25.923,6.884-36.956s18.155-18.608,30.953-21.331l517.512-110.088c9.847-2.095,19.914-3.157,29.921-3.157,67.833,0,127.3,48.101,141.397,114.373l79.09,371.793-565.574,120.312c-9.846,2.095-19.911,3.157-29.913,3.157h-.009Z"/>
          <path class="cls-6" d="m842.223,205.973c60.868,0,115.965,42.638,129.109,104.423l76.476,359.504-553.286,117.698c-9.153,1.947-18.29,2.882-27.307,2.882-60.868,0-115.965-42.638-129.109-104.423l-68.866-323.731c-4.186-19.676,8.488-39.198,28.163-43.383l517.512-110.088c9.153-1.947,18.29-2.882,27.307-2.882m0-25.127c-10.884,0-21.831,1.154-32.535,3.432l-517.513,110.088c-16.081,3.421-29.887,12.931-38.877,26.778-8.99,13.848-12.056,30.33-8.635,46.411l68.866,323.731c7.508,35.293,27.239,67.181,55.558,89.79,27.893,22.269,62.743,34.532,98.128,34.532,10.884,0,21.831-1.155,32.535-3.432l553.286-117.698,24.577-5.228-5.228-24.577-76.476-359.504c-7.508-35.293-27.239-67.181-55.558-89.79-27.893-22.269-62.742-34.533-98.128-34.533h0Z"/>
        </g>
        <g>
          <path id="Tracé_46" data-name="Tracé 46" class="cls-7" d="m674.404,305.133c21.302-1.426,40.897,31.979,43.75,74.599,2.853,42.62-12.114,78.339-33.416,79.766-21.302,1.426-40.912-31.961-43.767-74.598-.357-5.338,19.495-12.945,19.495-12.945,0,0-18.914-14.107-18.02-20.276,3.545-25.113,15.96-45.475,31.957-46.546Z"/>
          <path id="Tracé_46-2" data-name="Tracé 46" class="cls-5" d="m674.405,305.136c21.302-1.426,17.114,31.991,19.968,74.611,2.853,42.62,11.668,78.328-9.633,79.754s-40.912-31.961-43.767-74.598c-.357-5.338,19.495-12.945,19.495-12.945,0,0-18.914-14.107-18.02-20.276,3.545-25.113,15.96-45.475,31.957-46.546Z"/>
        </g>
        <g>
          <path id="Tracé_43" data-name="Tracé 43" class="cls-7" d="m582.709,321.061c21.302-1.426,40.897,31.979,43.75,74.599,2.853,42.62-12.114,78.339-33.416,79.766-21.302,1.426-40.912-31.961-43.767-74.598-.357-5.338,19.495-12.945,19.495-12.945,0,0-18.914-14.107-18.02-20.276,3.545-25.113,15.96-45.475,31.957-46.546Z"/>
          <path id="Tracé_46-3" data-name="Tracé 46" class="cls-5" d="m582.71,321.069c21.302-1.426,17.114,31.991,19.968,74.611,2.853,42.62,11.668,78.328-9.633,79.754-21.302,1.426-40.912-31.961-43.767-74.598-.357-5.338,19.495-12.945,19.495-12.945,0,0-18.914-14.107-18.02-20.276,3.545-25.113,15.96-45.475,31.957-46.546Z"/>
        </g>
        <path class="cls-9" d="m445.735,503.931c2.236,11.005,12.904-5.224,26.178-23.168,13.478-18.22,45.859-22.013,40.624-27.875-5.236-5.862-36.794-4.811-53.696,10.286-16.902,15.097-14.671,33.055-13.105,40.757Z"/>
        <path class="cls-2" d="m814.378,437.145c-3.651-4.106-18.196-19.489-42.707-22.713-22.339-2.939-39.069,6.05-44.131,9.029"/>
        <path class="cls-9" d="m728.926,402.071c-.278,7.855,17.896,6.809,39.777,5.517,22.624-1.335,41.963,5.243,42.242-2.611.278-7.854-17.857-14.873-40.506-15.675-22.649-.803-41.235,4.914-41.513,12.769Z"/>
        <path id="nez" class="cls-12" d="m648.31,444.255c-22.604-19.118-46.282-23.056-58.231-11.695-1.008.958-7.613,7.426-7.056,16.011,1.232,18.993,36.899,38.928,59.784,28.047,4.31-2.049,7.339-4.798,9.003-6.488"/>
        <path class="cls-2" d="m468.751,530.53c-.081-7.568.284-36.315,17.002-52.057,15.237-14.347,34.587-8.972,40.625-6.972"/>
        <path class="cls-5" d="m670.643,485.261c52.293-17.411,65.252-57.352,93.293-54.393,16.815,1.775,30.42,18.066,33.907,32.368,9.737,39.938-52.515,92.703-113.137,113.321-71.98,24.481-126.583,15.372-168.379-19.586-18.733-15.668-32.72-46.277-21.572-64.362,12.581-20.41,42.387-.62,115.276-.524,23.327.031,39.956.053,60.612-6.825Z"/>
        <g class="cls-3">
          <path class="cls-9" d="m750.274,522.734c-27.016-8.994-33.711-29.629-48.198-28.1-8.687.917-15.715,9.334-17.517,16.722-5.03,20.633-1.716,42.439,29.603,53.09,37.187,12.647,146.701,7.949,161.768-17.279,6.469-10.832,37.555-34.152,29.321-39.895-10.16-7.085-86.009,18.936-123.664,18.987-12.051.016-20.642.028-31.313-3.525Z"/>
        </g>
      </g>
      <g id="caen">
        <ellipse class="cls-6" cx="469.861" cy="784.969" rx="99.323" ry="307.775" transform="translate(-358.453 1173.353) rotate(-84.218)"/>
        <g>
          <path class="cls-10" d="m242.742,826.552c-17.03-7.263-33.28-19.976-47.085-32.577-11.131-10.16-26.487-23.771-24.913-39.296,1.579-15.577,19.377-25.85,32.372-33.585,16.091-9.578,34.276-18.165,52.776-22.44,11.451-2.646,24.063-4.284,35.608-1.123-11.856,20.4-20.034,40.279-25.027,63.318-10.097-5.029-20.213-8.921-31.338-9.631-7.513-.48-26.377.476-26.958,6.783-.636,6.904,19.741,11.853,27.943,12.87,12.253,1.518,25.328.592,36.991-4.327-1.262,23.728,1.242,45.128,7.474,67.997-13.408,1.739-26.075-2.97-37.843-7.989Z"/>
          <path class="cls-10" d="m329.758,855.83c-25.275-7.366-48.863-29.9-51.061-57.544-1.001-12.591,3.998-25.112,14.183-32.963,12.064-9.299,25.733-10.813,40.198-10.579,8.735.142,20.072,3.809,27.041,9.394,6.844,5.485,10.979,12.129,11.997,19.735,1.721.188,2.585.283,4.315.471.142-1.677.217-2.517.372-4.197.757-8.169-3.239-15.747-11.237-22.442-8.852-7.409-20.476-10.312-30.829-11.08-15.259-1.131-30.112,2.693-45.534,8.612,2.998-19.654,9.458-39,18.125-56.851,18.725-6.383,37.446-11.104,56.397-11.517,23.832-.52,48.593,4.995,66.591,23.547,17.258,17.789,19.418,42.69,12.183,65.56-2.439,8.086-3.645,12.171-5.985,20.21,8.514.894,12.809,1.338,21.461,2.221-2.425,24.523-4.766,49.052-7.018,73.591-26.873-3.041-53.499-6.921-80.1-11.796,1.039-14.837,2.636-29.473,4.736-44.196-1.941-.266-2.909-.4-4.838-.669-.426,12.327-5.035,24.941-13.707,33.474-6.303,6.203-18.769,9.502-27.288,7.019Zm25.9-50.105c13.87,1.909,21.208-.16,21.557-6.185.349-6.018-6.717-9.874-20.75-11.521-13.834-1.623-20.656.465-20.843,6.224-.187,5.765,6.363,9.6,20.036,11.482Z"/>
          <path class="cls-10" d="m544.429,882.393c-23.178.399-46.571-8.047-61.529-26.856-16.065-20.2-20.26-46.716-17.721-71.778,2.484-24.515,11.927-49.233,30.531-65.787,16.74-14.897,38.671-18.206,59.51-14.914,21.207,3.35,41.358,15.791,55.631,32.629,14.381,16.964,22.62,38.502,20.813,60.898-.389,4.824-1.345,9.087-2.783,12.764-33.267-2.851-66.517-5.876-99.757-9.03-.355,4.983,3.518,9.132,11.371,12.403,8.881,3.699,19.885,5.791,29.363,6.18,17.098.702,34.622-.467,50.618-7.703-2.849,19.986-7.144,39.351-14.373,58.264-19.775,8.81-40.504,12.566-61.674,12.93Zm-14.207-95.633c15.767,1.639,31.533,3.291,47.297,4.964.198-6.655-1.783-12.027-5.796-16.192-4.012-4.164-9.285-6.678-15.808-7.499-13.237-1.666-22.263,6.263-25.693,18.728Z"/>
          <path class="cls-10" d="m689.879,827.367c-4.345,15.375-10.087,27.74-18.793,41.135-17.268,3.199-34.708,5.101-52.183,6.713,22.665-48.453,27.568-96.724,15.066-148.781,17.002,5.148,33.91,10.577,50.374,17.279,6.968,14.905,9.99,31.639,9.619,48.013,1.195.195,1.789.292,2.971.486.245-11.411-.115-23.138,1.564-34.327,1.112-7.412,4.391-8.584,11.705-4.52,10.052,5.585,19.281,13.084,27.903,20.704,9.154,8.091,18.367,17.708,21.449,29.955,4.795,23.039-14.361,37.466-31.152,48.401-12.861,5.416-26.145,9.042-39.648,12.437,11.302-11.635,22.157-23.928,28.462-39.113,4.42-8.644,3.521-22.176-8.316-23.596-4.76-.571-8.644,1.215-11.895,5.818-3.253,4.605-5.347,11.257-7.124,19.396Z"/>
        </g>
      </g>
      <path id="star" class="cls-7" d="m310.298,709.669c-15.707-3.033-31.865-2.873-47.509.47-15.284,4.723-29.462,12.476-41.686,22.794,3.033-15.707,2.873-31.865-.47-47.509-4.714-15.294-12.46-29.482-22.776-41.718,15.707,3.033,31.865,2.873,47.509-.47,15.285-4.707,29.467-12.442,41.7-22.744-3.038,15.702-2.885,31.856.451,47.498,4.721,15.281,12.469,29.456,22.783,41.679Z"/>
      <path id="star-2" data-name="star" class="cls-4" d="m282.255,637.995c-25.472,1.459-50.389,8.032-73.267,19.326-21.781,13.286-40.665,30.821-55.526,51.56-1.459-25.472-8.032-50.389-19.326-73.267-13.275-21.8-30.805-40.703-51.544-55.582,25.472-1.459,50.389-8.032,73.267-19.326,21.789-13.26,40.686-30.771,55.565-51.488,1.45,25.466,8.01,50.38,19.291,73.257,13.28,21.777,30.808,40.658,51.539,55.519Z"/>
      <path id="star-pink" class="cls-8" d="m135.572,726.826c3.922,11.094,10.036,21.285,17.98,29.966,8.685,7.939,18.88,14.048,29.976,17.963-11.094,3.922-21.285,10.036-29.966,17.98-7.949,8.683-14.067,18.878-17.99,29.976-3.922-11.094-10.036-21.285-17.98-29.966-8.675-7.946-18.86-14.064-29.949-17.99,11.093-3.917,21.284-10.026,29.966-17.963,7.938-8.682,14.047-18.873,17.963-29.966Z"/>
    </g>
  </g>
</svg>