<?xml version="1.0" encoding="UTF-8"?>
<svg id="Calque_2" data-name="Calque 2" xmlns="http://www.w3.org/2000/svg" xmlns:xlink="http://www.w3.org/1999/xlink" viewBox="0 0 1258.028 754.583">
  <defs>
    <style>
      .cls-1, .cls-2, .cls-3, .cls-4 {
        fill: none;
      }

      .cls-5 {
        fill: #fac840;
      }

      .cls-6 {
        fill: #020202;
      }

      .cls-7 {
        fill: #ffe45e;
      }

      .cls-8 {
        fill: #fff;
      }

      .cls-9 {
        fill: #ff316f;
      }

      .cls-10 {
        fill: #ff97e4;
      }

      .cls-11, .cls-12 {
        fill: #3e67ed;
      }

      .cls-2 {
        stroke: #fac840;
        stroke-miterlimit: 4;
        stroke-width: 8.69px;
      }

      .cls-12, .cls-3 {
        stroke: #000;
        stroke-linecap: round;
        stroke-miterlimit: 10;
        stroke-width: 2.513px;
      }

      .cls-4 {
        clip-path: url(#clippath);
      }
    </style>
    <clipPath id="clippath">
      <path class="cls-1" d="m891.972,378.093c54.501-8.205,74.105-45.339,101.226-37.624,16.263,4.626,26.879,23.006,27.867,37.693,2.758,41.015-67.606,82.348-130.862,92.287-75.108,11.801-170.864-15.838-191.242-68.941-8.75-22.8-5.053-54.07,12.553-62.293,21.723-10.147,47.776,22.66,119.572,35.229,22.977,4.023,39.358,6.89,60.886,3.649Z"/>
    </clipPath>
  </defs>
  <g id="Composistions">
    <g id="square-globe">
      <g id="globe">
        <g id="Ellipse_6" data-name="Ellipse 6">
          <ellipse class="cls-8" cx="366.092" cy="534.802" rx="373.705" ry="206.318" transform="translate(-118.506 104.451) rotate(-14)"/>
          <ellipse class="cls-2" cx="366.092" cy="534.802" rx="369.36" ry="201.973" transform="translate(-118.506 104.451) rotate(-14)"/>
        </g>
        <path id="globe-solid" class="cls-9" d="m424.109,517.826c3.597,12.556,6.548,25.288,8.841,38.146l-108.894,31.225c-4.898-12.109-9.143-24.471-12.717-37.034-3.597-12.556-6.548-25.288-8.841-38.146l108.894-31.225c4.898,12.109,9.143,24.471,12.717,37.034Zm6.137-42.441l72.298-20.731c13.414,22.84,20.83,48.703,21.558,75.18l-72.298,20.731c-2.32-12.852-5.29-25.578-8.899-38.129-3.59-12.557-7.815-24.923-12.658-37.051Zm60.744-37.759l-68.539,19.653c-16.634-35.848-37.27-63.895-58.001-79.728,49.263-.965,96.111,21.292,126.482,60.091l.058-.017Zm-87.577,25.112l-103.724,29.742c-2.486-19.98-2.513-40.19-.079-60.176,1.361-12.549,5.091-24.727,10.99-35.886,2.83-5.92,7.854-10.506,14.007-12.786,6.426-1.328,13.117-.101,18.654,3.42,10.92,6.336,20.538,14.685,28.345,24.607,12.691,15.634,23.378,32.792,31.813,51.076l-.008.002Zm-122.794,35.211l-68.498,19.641c5.218-49.009,33.173-92.714,75.477-118.002-9.191,24.413-11.828,59.133-6.938,98.349l-.042.012Zm-69.273,40.204l72.298-20.731c4.662,25.716,11.884,50.901,21.558,75.18l-72.298,20.731c-13.414-22.84-20.83-48.703-21.558-75.18Zm152.472,118.099c-12.681-15.617-23.365-32.754-31.805-51.015l103.74-29.747c2.49,19.961,2.511,40.152.062,60.118-1.363,12.551-5.096,24.729-10.999,35.888-2.796,5.951-7.814,10.568-13.977,12.858-6.426,1.328-13.117.101-18.654-3.42-10.92-6.336-20.538-14.685-28.345-24.607l-.022-.075Zm-50.821-45.545c16.609,35.855,37.315,63.927,58.009,79.726-49.279.976-96.15-21.274-126.549-60.072l68.539-19.653Zm210.329-60.311c-5.218,48.995-33.154,92.691-75.436,117.99,9.224-24.423,11.786-59.121,6.955-98.354l68.481-19.637Z"/>
      </g>
      <g id="square">
        <g>
          <path class="cls-11" d="m661.725,658.487c-37.318,0-72.809-14.349-99.936-40.404-27.2-26.125-42.957-61.139-44.366-98.594l-12.447-330.741c-1.019-27.075,20.181-49.931,47.255-50.95l528.718-19.897c1.812-.068,3.647-.103,5.456-.103,37.318,0,72.81,14.349,99.937,40.403,27.199,26.125,42.955,61.14,44.365,98.594l14.295,379.843-577.82,21.745c-1.812.068-3.647.103-5.456.103Z"/>
          <path class="cls-7" d="m1086.404,130.361c70.29,0,129.083,56.1,131.748,126.906l13.822,367.289-565.266,21.273c-1.668.063-3.328.094-4.984.094-70.29,0-129.082-56.1-131.747-126.906l-12.447-330.741c-.757-20.101,15.071-37.167,35.172-37.923l528.718-19.897c1.668-.063,3.327-.094,4.983-.094m0-25.127c-1.966,0-3.96.038-5.928.112l-528.718,19.897c-16.429.618-31.659,7.625-42.886,19.73s-17.069,27.819-16.451,44.248l12.447,330.74c1.532,40.726,18.656,78.791,48.218,107.183,29.479,28.313,68.06,43.906,108.639,43.906,1.966,0,3.961-.038,5.929-.112l565.265-21.273,25.109-.945-.945-25.109-13.822-367.289c-1.532-40.726-18.657-78.791-48.218-107.183-29.479-28.313-68.061-43.906-108.639-43.906h0Z"/>
        </g>
        <g>
          <path id="Tracé_46" data-name="Tracé 46" class="cls-8" d="m926.505,201.266c21.231,2.241,34.82,38.507,30.338,80.986-4.483,42.48-25.342,75.11-46.574,72.87-21.231-2.241-34.839-38.492-30.354-80.988.561-5.32,21.423-9.418,21.423-9.418,0,0-16.221-17.136-14.285-23.06,7.791-24.136,23.507-42.072,39.452-40.39Z"/>
          <path id="Tracé_46-2" data-name="Tracé 46" class="cls-6" d="m926.505,201.269c21.231,2.241,11.387,34.448,6.904,76.928-4.483,42.48-1.909,79.169-23.14,76.928-21.231-2.241-34.839-38.492-30.354-80.988.561-5.32,21.423-9.418,21.423-9.418,0,0-16.221-17.136-14.285-23.06,7.791-24.136,23.507-42.072,39.452-40.39Z"/>
        </g>
        <g>
          <path id="Tracé_43" data-name="Tracé 43" class="cls-8" d="m833.437,201.266c21.231,2.241,34.82,38.507,30.338,80.986-4.483,42.48-25.342,75.11-46.574,72.87-21.231-2.241-34.839-38.492-30.354-80.988.561-5.32,21.423-9.418,21.423-9.418,0,0-16.221-17.136-14.285-23.06,7.791-24.136,23.507-42.072,39.452-40.39Z"/>
          <path id="Tracé_46-3" data-name="Tracé 46" class="cls-6" d="m833.437,201.275c21.231,2.241,11.387,34.448,6.904,76.928-4.483,42.48-1.909,79.169-23.14,76.928-21.231-2.241-34.839-38.492-30.354-80.988.561-5.32,21.423-9.418,21.423-9.418,0,0-16.221-17.136-14.285-23.06,7.791-24.136,23.507-42.072,39.452-40.39Z"/>
        </g>
        <path class="cls-10" d="m667.187,357.997c.32,11.225,13.608-2.938,29.757-18.346,16.397-15.645,48.95-13.84,44.795-20.511-4.155-6.671-35.428-11.037-54.664.944-19.237,11.982-20.111,30.056-19.887,37.913Z"/>
        <path class="cls-3" d="m1041.821,355.285c-2.895-4.67-14.593-22.316-38.19-29.687-21.507-6.718-39.528-.725-45.025,1.343"/>
        <path class="cls-10" d="m963.633,306.105c-1.618,7.691,16.466,9.771,38.246,12.243,22.519,2.556,40.447,12.348,42.065,4.657,1.618-7.691-15.048-17.709-37.225-22.376-22.177-4.667-41.468-2.215-43.086,5.476Z"/>
        <path id="nez" class="cls-12" d="m876.987,333.87c-18.999-22.704-41.654-30.636-55.37-21.489-1.157.772-8.771,6.014-9.692,14.568-2.037,18.923,29.693,44.669,54.102,37.865,4.598-1.282,8.052-3.471,9.98-4.851"/>
        <path class="cls-3" d="m685.311,388.142c1.215-7.47,6.494-35.731,25.66-48.379,17.468-11.528,35.612-2.92,41.219.083"/>
        <path class="cls-6" d="m891.972,378.093c54.501-8.205,74.105-45.339,101.226-37.624,16.263,4.626,26.879,23.006,27.867,37.693,2.758,41.015-67.606,82.348-130.862,92.287-75.108,11.801-127.346-6.518-162.542-48.113-15.775-18.643-24.317-51.194-10.239-67.104,15.889-17.956,41.868,6.643,113.665,19.212,22.977,4.023,39.358,6.89,60.886,3.649Z"/>
        <g class="cls-4">
          <path class="cls-10" d="m964.016,428.641c-25.078-13.485-28.143-34.961-42.678-35.934-8.716-.583-17.081,6.506-20.12,13.478-8.487,19.467-8.953,41.519,20.081,57.373,34.474,18.824,143.176,32.938,162.339,10.66,8.227-9.565,42.846-27.221,35.716-34.288-8.798-8.72-87.98,3.938-125.089-2.457-11.876-2.046-20.342-3.505-30.248-8.832Z"/>
        </g>
      </g>
      <path id="star" class="cls-8" d="m495.897,0c14.728,22.278,33.79,41.364,56.05,56.119,23.486,12.714,49.291,20.57,75.877,23.1-22.278,14.728-41.364,33.79-56.119,56.05-12.737,23.486-20.613,49.296-23.16,75.892-14.728-22.278-33.79-41.364-56.05-56.119-23.467-12.735-49.256-20.616-75.832-23.174,22.278-14.716,41.367-33.765,56.128-56.013,12.713-23.478,20.571-49.276,23.106-75.855Z"/>
      <path id="star-2" data-name="star" class="cls-5" d="m383.267,183.429c10.873,9.902,23.629,17.514,37.507,22.382,14.256,3.613,29.094,4.319,43.628,2.075-9.902,10.873-17.514,23.629-22.382,37.507-3.625,14.259-4.341,29.102-2.105,43.644-10.873-9.902-23.629-17.514-37.507-22.382-14.249-3.626-29.081-4.347-43.614-2.121,9.904-10.867,17.519-23.616,22.392-37.488,3.613-14.252,4.321-29.086,2.081-43.617Z"/>
    </g>
  </g>
</svg>