<?xml version="1.0" encoding="UTF-8"?>
<svg id="Calque_2" data-name="Calque 2" xmlns="http://www.w3.org/2000/svg" viewBox="0 0 914.415 182.711">
  <defs>
    <style>
      .cls-1 {
        fill: #fac840;
      }

      .cls-2 {
        fill: #fff;
      }
    </style>
  </defs>
  <g id="assets">
    <g id="blancs">
      <rect class="cls-1" x="0" y="12.813" width="914.415" height="157.085" rx="42.772" ry="42.772"/>
      <g>
        <path class="cls-2" d="m147.241,178.878H42.725V0h97.872c20.443,0,36.754,3.833,48.936,11.5,12.179,7.666,18.271,18.826,18.271,33.476,0,12.777-4.688,22.703-14.055,29.771-9.371,7.071-22.487,10.605-39.354,10.605v4.089c40.032,0,60.052,13.459,60.052,40.375,0,15.333-6.049,27.343-18.143,36.031-12.099,8.688-28.453,13.033-49.064,13.033Zm-46.508-112.438v15.844h33.731c9.538,0,14.31-2.639,14.31-7.922s-5.026-7.922-15.076-7.922h-32.965Zm0,28.109v17.377h36.031c9.878,0,14.821-2.895,14.821-8.688s-4.943-8.688-14.821-8.688h-36.031Z"/>
        <path class="cls-2" d="m276.8,120.104h24.021v58.774h-77.429V0h61.074l-7.666,120.104Z"/>
        <path class="cls-2" d="m347.838,182.711c-29.132,0-43.697-13.288-43.697-39.864,0-12.094,4.384-21.849,13.16-29.259,8.772-7.411,20.399-11.116,34.882-11.116,9.71,0,17.76,1.789,24.148,5.367,6.389,3.577,10.262,8.093,11.627,13.543h3.577v-3.066c0-5.961-3.793-11.156-11.371-15.588-7.582-4.428-16.826-6.644-27.727-6.644-13.971,0-27.259,3.154-39.864,9.455v-50.341c15.844-5.278,32.965-7.922,51.364-7.922,26.915,0,47.913,5.666,62.99,16.994,15.077,11.332,20.483,26.792,16.227,46.38l-3.066,14.566h16.61v53.664h-69.251l4.854-34.243h-4.088c-.344,11.076-4.6,20.188-12.777,27.343-8.178,7.155-17.377,10.732-27.599,10.732Zm27.343-43.697c11.923,0,17.888-2.212,17.888-6.644s-5.965-6.644-17.888-6.644c-11.755,0-17.632,2.216-17.632,6.644s5.877,6.644,17.632,6.644Z"/>
        <path class="cls-2" d="m517.771,134.415l3.577,44.464h-57.752V51.108h58.519l-4.6,48.553h3.322c1.361-14.989,5.622-27.47,12.776-37.437,7.155-9.966,16.522-14.949,28.109-14.949,14.822,0,25.467,4.388,31.943,13.161,6.472,8.776,9.71,21.937,9.71,39.481l-.255,78.962h-59.541l5.11-46.764c1.873-16.183-2.898-24.276-14.311-24.276-5.621,0-9.966,2.388-13.032,7.155-3.066,4.771-4.261,11.244-3.577,19.421Z"/>
        <path class="cls-2" d="m684.636,182.711c-22.659,0-40.591-6.173-53.791-18.526-13.204-12.35-19.805-28.749-19.805-49.192,0-20.611,6.601-37.053,19.805-49.319,13.2-12.266,31.216-18.399,54.047-18.399,18.738,0,33.898,1.877,45.486,5.622l-3.322,59.03c-10.565-4.428-21.977-6.644-34.242-6.644-19.933,0-29.898,3.066-29.898,9.2,0,6.476,11.072,9.71,33.22,9.71,14.311,0,27-2.639,38.076-7.922v59.541c-12.777,4.6-29.304,6.899-49.575,6.899Z"/>
        <path class="cls-2" d="m801.671,182.711c-8.177,0-18.614-.854-31.304-2.555-12.693-1.701-22.959-3.662-30.793-5.877v-58.519c8.517,4.089,18.184,7.371,29.004,9.838,10.816,2.472,20.228,3.706,28.237,3.706,8.517,0,14.395-.295,17.633-.895,3.234-.595,4.855-2.172,4.855-4.728,0-1.701-2.728-2.851-8.178-3.45-5.454-.595-12.099-1.234-19.933-1.917-7.838-.679-15.676-1.873-23.51-3.578-7.838-1.701-14.481-5.151-19.932-10.35-5.454-5.194-8.178-11.966-8.178-20.315,0-11.583,5.79-20.611,17.377-27.087,11.583-6.472,28.193-9.71,49.831-9.71,18.398,0,35.859,2.644,52.386,7.922l.511,53.408c-12.949-7.667-28.792-11.5-47.53-11.5-7.155,0-12.311.299-15.461.895-3.154.599-4.728,2.004-4.728,4.216,0,1.365,2.724,2.344,8.178,2.938,5.45.599,12.095,1.366,19.933,2.3,7.833.938,15.672,2.428,23.51,4.472,7.833,2.044,14.478,5.71,19.932,10.988,5.45,5.283,8.178,12.01,8.178,20.188,0,12.777-6.134,22.576-18.399,29.387-12.266,6.812-29.475,10.222-51.619,10.222Z"/>
      </g>
    </g>
  </g>
</svg>