<?xml version="1.0" encoding="UTF-8"?>
<svg id="Calque_2" data-name="Calque 2" xmlns="http://www.w3.org/2000/svg" viewBox="0 0 1580.247 237.653">
  <defs>
    <style>
      .cls-1 {
        fill: #fff;
      }

      .cls-2 {
        fill: #9bdd50;
      }
    </style>
  </defs>
  <g id="assets">
    <g id="champagnes">
      <rect class="cls-2" y="40.284" width="1580.247" height="157.085" rx="56.228" ry="56.228"/>
      <g>
        <path class="cls-1" d="m157.41,186.544c-31.688,0-56.73-7.622-75.129-22.871-18.399-15.245-27.599-38.627-27.599-70.146,0-31.687,9.283-55.197,27.854-70.529C101.103,7.666,126.318,0,158.177,0c21.122,0,40.715,2.555,58.774,7.666l-4.6,83.306c-6.133-3.577-14.183-6.472-24.148-8.688-9.967-2.212-19.977-3.322-30.026-3.322-30.154,0-45.23,4.688-45.23,14.055,0,5.622,4.128,9.415,12.394,11.372,8.261,1.96,20.483,2.939,36.67,2.939,10.732,0,21.505-1.278,32.326-3.833,10.816-2.555,19.461-5.79,25.938-9.71l.511,84.584c-17.888,5.45-39.014,8.177-63.374,8.177Z"/>
        <path class="cls-1" d="m290.291,182.711h-56.729V3.833h62.352l-9.455,99.661h3.322c1.361-15.332,5.622-27.894,12.777-37.692,7.155-9.794,16.949-14.694,29.387-14.694,14.311,0,24.616,4.472,30.921,13.416,6.301,8.944,9.455,22.021,9.455,39.226v78.962h-60.053l5.111-45.997c2.212-16.694-2.3-25.043-13.544-25.043-6.133,0-10.692,2.643-13.671,7.921-2.983,5.283-4.133,11.5-3.45,18.655l3.577,44.464Z"/>
        <path class="cls-1" d="m422.914,186.544c-29.132,0-43.697-13.288-43.697-39.864,0-12.094,4.384-21.849,13.16-29.259,8.772-7.411,20.399-11.116,34.882-11.116,9.71,0,17.76,1.789,24.148,5.367,6.389,3.577,10.262,8.093,11.627,13.543h3.577v-3.066c0-5.961-3.793-11.156-11.371-15.588-7.582-4.428-16.826-6.644-27.727-6.644-13.971,0-27.259,3.154-39.864,9.455v-50.341c15.844-5.278,32.965-7.922,51.364-7.922,26.915,0,47.913,5.666,62.99,16.994,15.077,11.332,20.483,26.792,16.227,46.38l-3.066,14.566h16.61v53.664h-69.251l4.854-34.243h-4.088c-.344,11.076-4.6,20.188-12.777,27.343-8.178,7.155-17.377,10.732-27.599,10.732Zm27.343-43.697c11.923,0,17.888-2.212,17.888-6.644s-5.965-6.644-17.888-6.644c-11.755,0-17.632,2.216-17.632,6.644s5.877,6.644,17.632,6.644Z"/>
        <path class="cls-1" d="m594.381,182.711h-55.708V54.941h56.219l-4.6,48.553h3.066c1.533-15.161,5.833-27.682,12.904-37.564,7.067-9.878,16.228-14.821,27.471-14.821,13.456,0,22.911,4.432,28.365,13.288,5.45,8.86,8.006,21.893,7.666,39.098h3.066c1.362-14.989,5.706-27.47,13.033-37.437,7.322-9.966,16.61-14.949,27.854-14.949,14.311,0,24.316,4.304,30.026,12.905,5.706,8.604,8.561,21.849,8.561,39.737l-.256,78.962h-58.263l5.621-46.764c1.873-16.183-2.555-24.276-13.288-24.276-10.904,0-16.099,8.86-15.588,26.576l2.045,44.464h-58.008l4.855-46.764c1.7-16.183-2.728-24.276-13.288-24.276-5.622,0-9.799,2.344-12.521,7.027-2.728,4.688-3.75,11.204-3.066,19.549l3.833,44.464Z"/>
        <path class="cls-1" d="m824.62,233.819h-62.096V54.941h58.263l-6.899,42.675h3.578c2.044-14.649,7.366-26.065,15.971-34.242,8.601-8.177,18.95-12.266,31.049-12.266,14.821,0,26.703,6.049,35.647,18.144,8.944,12.098,13.416,28.621,13.416,49.575s-4.472,37.481-13.416,49.575c-8.944,12.098-20.826,18.143-35.647,18.143-12.609,0-23.299-4.556-32.07-13.671-8.776-9.111-13.928-21.933-15.461-38.459h-3.321l10.987,99.405Zm14.822-106.816c15.16,0,22.743-3.234,22.743-9.71s-7.583-9.71-22.743-9.71c-15.505,0-23.255,3.238-23.255,9.71s7.75,9.71,23.255,9.71Z"/>
        <path class="cls-1" d="m960.569,186.544c-29.132,0-43.697-13.288-43.697-39.864,0-12.094,4.384-21.849,13.16-29.259,8.772-7.411,20.399-11.116,34.882-11.116,9.71,0,17.76,1.789,24.148,5.367,6.389,3.577,10.262,8.093,11.627,13.543h3.577v-3.066c0-5.961-3.793-11.156-11.371-15.588-7.582-4.428-16.826-6.644-27.727-6.644-13.971,0-27.259,3.154-39.864,9.455v-50.341c15.844-5.278,32.965-7.922,51.364-7.922,26.915,0,47.913,5.666,62.99,16.994,15.077,11.332,20.483,26.792,16.227,46.38l-3.066,14.566h16.61v53.664h-69.251l4.854-34.243h-4.088c-.344,11.076-4.6,20.188-12.777,27.343-8.178,7.155-17.377,10.732-27.599,10.732Zm27.343-43.697c11.923,0,17.888-2.212,17.888-6.644s-5.965-6.644-17.888-6.644c-11.755,0-17.632,2.216-17.632,6.644s5.877,6.644,17.632,6.644Z"/>
        <path class="cls-1" d="m1108.014,237.653c-14.993,0-26.62-6.049-34.881-18.144-8.262-12.098-9.411-27.003-3.45-44.72l13.033-42.419,32.965,7.155,1.021-2.811c-13.799-2.556-24.575-7.239-32.325-14.055-7.755-6.812-11.628-15.416-11.628-25.81,0-13.799,6.685-24.871,20.061-33.22,13.372-8.345,30.876-12.521,52.514-12.521,21.977,0,51.02,1.278,87.139,3.833v56.219l-36.798-33.987-1.788,2.044c9.878,7.155,14.821,16.782,14.821,28.876,0,11.076-5.538,19.804-16.61,26.193-11.076,6.388-26.664,9.583-46.764,9.583h-18.654l-4.089,8.944c-2.216,5.794-2.472,10.094-.767,12.905,1.7,2.811,4.6,4.217,8.688,4.217,4.767,0,9.794-1.957,15.076-5.877,5.279-3.917,11.284-7.834,18.016-11.755,6.729-3.917,14.183-5.877,22.36-5.877,40.375,0,52.896,29.131,37.564,87.395h-54.431c6.983-18.059,6.133-27.087-2.555-27.087-3.238,0-6.732,1.617-10.478,4.855-3.749,3.234-7.243,6.772-10.478,10.605-3.238,3.833-8.177,7.367-14.821,10.605-6.644,3.234-14.227,4.855-22.743,4.855Zm21.722-111.288c3.577,1.789,8.517,2.683,14.821,2.683s11.243-.895,14.821-2.683c3.577-1.789,5.366-4.128,5.366-7.027,0-6.644-6.732-9.966-20.188-9.966-6.305,0-11.244.895-14.821,2.684-3.578,1.789-5.367,4.216-5.367,7.283,0,2.899,1.789,5.239,5.367,7.027Z"/>
        <path class="cls-1" d="m1294.558,138.248l3.577,44.464h-57.752V54.941h58.519l-4.6,48.553h3.322c1.361-14.989,5.622-27.47,12.776-37.437,7.155-9.966,16.522-14.949,28.109-14.949,14.822,0,25.467,4.388,31.943,13.161,6.472,8.776,9.71,21.937,9.71,39.481l-.255,78.962h-59.541l5.11-46.764c1.873-16.183-2.898-24.276-14.311-24.276-5.621,0-9.966,2.388-13.032,7.155-3.066,4.771-4.261,11.244-3.577,19.421Z"/>
        <path class="cls-1" d="m1464.49,186.544c-24.532,0-43.441-6.089-56.729-18.271-13.288-12.178-19.933-28.832-19.933-49.958,0-20.783,6.345-37.181,19.038-49.192,12.688-12.01,29.683-18.016,50.98-18.016,21.465,0,38.115,5.71,49.958,17.121,11.839,11.416,17.76,27.004,17.76,46.764,0,3.921-.427,7.411-1.277,10.477h-85.606c.168,3.578,3.617,6.305,10.35,8.177,6.728,1.877,15.033,2.811,24.915,2.811,16.354,0,30.665-2.979,42.931-8.944l1.533,49.064c-14.821,6.644-32.797,9.966-53.919,9.966Zm-26.065-70.785h39.099c-.344-4.939-2.301-8.772-5.878-11.5-3.577-2.723-8.094-4.088-13.544-4.088-11.076,0-17.632,5.199-19.677,15.588Z"/>
      </g>
    </g>
  </g>
</svg>