<?xml version="1.0" encoding="UTF-8"?>
<svg id="Calque_2" data-name="Calque 2" xmlns="http://www.w3.org/2000/svg" xmlns:xlink="http://www.w3.org/1999/xlink" viewBox="0 0 2231.638 960.588">
  <defs>
    <style>
      .cls-1, .cls-2 {
        fill: none;
      }

      .cls-3 {
        fill: #ffba28;
      }

      .cls-2 {
        clip-path: url(#clippath);
      }
    </style>
    <clipPath id="clippath">
      <rect class="cls-1" x="34.738" y="129.133" width="2162.163" height="702.321" transform="translate(-50.216 139.564) rotate(-7)"/>
    </clipPath>
  </defs>
  <g id="assets">
    <g id="cicle-star">
      <g class="cls-2">
        <g id="Groupe_53" data-name="Groupe 53">
          <path id="Tracé_40" data-name="Tracé 40" class="cls-3" d="m2151.88,52.671c-10.189-23.827-79.255-20.622-190.014,4.534-1.31-1.392-2.296-3.056-2.888-4.873-2.271-9.477-3.478-19.177-3.599-28.921.595,10.043.163,20.121-1.289,30.076-.479,2.145-1.296,4.199-2.421,6.087-199.111,46.626-525.383,160.622-885.532,314.429C494.88,618.002,54.797,869.713,83.234,936.227c28.437,66.514,514.457-77.425,1085.765-321.406,571.308-243.981,1011.322-495.668,982.88-562.158m-13.693,30.989c-14.727,17.792-31.495,33.79-49.959,47.664-45.822,36.518-114.646,81.041-204.806,132.627-90.159,51.586-196.995,107.532-317.583,166.181-124.829,60.683-258.831,121.691-398.421,181.303-139.591,59.612-276.302,114.292-406.432,162.445-125.618,46.45-239.981,85.032-339.566,114.487-99.586,29.456-179.409,48.39-237.434,56.291-22.791,3.763-45.945,4.838-68.986,3.203-15.874-1.813-25.399-6.228-28.356-13.089-2.957-6.861.478-16.748,10.126-29.521,14.756-17.794,31.55-33.795,50.037-47.673,45.814-36.517,114.707-81.127,204.874-132.714,90.167-51.587,197-107.43,317.464-166.056,124.821-60.753,258.814-121.761,398.404-181.38s276.349-114.226,406.471-162.449c125.618-46.45,239.981-85.032,339.488-114.478,50.44-14.97,95.911-27.191,136.007-36.613,2.581,1.214,4.487,3.515,5.199,6.277,2.26,9.506,3.454,19.234,3.561,29.005-.61-10.074-.154-20.185,1.358-30.163.637-3.229,2.24-6.189,4.598-8.486,32.877-7.485,61.816-12.921,86.816-16.307,22.793-3.775,45.955-4.824,68.996-3.125,15.882,1.812,25.41,6.187,28.364,13.088,2.954,6.901-.478,16.748-10.203,29.539"/>
        </g>
      </g>
    </g>
  </g>
</svg>