<?xml version="1.0" encoding="UTF-8"?>
<svg id="Calque_2" data-name="Calque 2" xmlns="http://www.w3.org/2000/svg" xmlns:xlink="http://www.w3.org/1999/xlink" viewBox="0 0 364.391 275.504">
  <defs>
    <style>
      .cls-1, .cls-2, .cls-3 {
        fill: none;
      }

      .cls-4 {
        fill: #fff;
      }

      .cls-5, .cls-6 {
        fill: #ff50da;
      }

      .cls-7 {
        fill: #ff97e4;
      }

      .cls-2, .cls-6 {
        stroke: #000;
        stroke-linecap: round;
        stroke-miterlimit: 10;
      }

      .cls-3 {
        clip-path: url(#clippath);
      }
    </style>
    <clipPath id="clippath">
      <path class="cls-1" d="m161.429,149.815c-26.025-5.191-34.606-23.499-47.826-20.408-7.928,1.854-13.453,10.451-14.264,17.492-2.263,19.663,30.635,41.15,60.831,47.375,35.854,7.391,82.54-3.715,93.555-28.79,4.729-10.766,3.665-25.89-4.615-30.247-10.216-5.377-23.496,9.807-58.314,14.213-11.143,1.41-19.087,2.415-29.367.364Z"/>
    </clipPath>
  </defs>
  <g id="assets">
    <g id="cloud">
      <g>
        <path class="cls-5" d="m273.665,270.504c-2.256,0-4.546-.09-6.806-.268-15.288-1.201-29.862-6.421-42.354-15.14-11.156,5.716-23.588,8.724-36.154,8.725-2.095,0-4.221-.084-6.319-.249-18.161-1.426-35.163-8.983-48.332-21.4-13.587,9.016-29.285,13.758-45.67,13.758-2.181,0-4.395-.087-6.58-.259-22.086-1.734-42.175-11.967-56.565-28.812-14.392-16.845-21.361-38.285-19.626-60.371,1.645-20.94,11.059-40.302,26.506-54.518,15.242-14.026,34.969-21.802,55.596-21.924,2.889-22.773,13.655-43.69,30.63-59.312,18.032-16.596,41.412-25.735,65.834-25.735,2.561,0,5.159.102,7.724.303,49.623,3.898,88.154,44.708,89.679,93.92,22.485,2.006,42.908,12.54,57.595,29.73,14.888,17.427,22.099,39.607,20.304,62.457-1.702,21.665-11.441,41.697-27.424,56.406-15.896,14.63-36.507,22.687-58.035,22.687Z"/>
        <path class="cls-4" d="m183.824,10c2.427,0,4.871.095,7.332.288,48.946,3.845,85.97,45.192,85.102,93.637,1.209.038,2.427.109,3.65.205,44.492,3.495,77.727,42.397,74.232,86.889-3.326,42.338-38.716,74.484-80.473,74.484-2.124,0-4.263-.083-6.416-.252-15.953-1.253-30.463-7.064-42.351-16.045-10.861,6.142-23.362,9.615-36.551,9.615-1.961,0-3.937-.077-5.926-.233-19.086-1.499-35.928-10.054-48.164-22.912-13.016,9.622-29.067,15.254-46.23,15.254-2.049,0-4.111-.08-6.188-.243-42.913-3.371-74.97-40.894-71.599-83.807,3.208-40.834,37.342-71.835,77.614-71.835,1.331,0,2.664.034,4.007.102l.003-.031c3.801-48.382,44.241-85.115,91.959-85.116m0-10h0c-25.679,0-50.262,9.609-69.22,27.057-16.789,15.451-27.801,35.826-31.576,58.12-20.303,1.112-39.551,9.221-54.649,23.114C11.999,123.365,2.017,143.894.273,166.097c-3.798,48.343,32.443,90.762,80.785,94.559,2.315.182,4.66.274,6.971.274,16.068,0,31.514-4.301,45.142-12.508,13.551,11.644,30.475,18.722,48.469,20.136,2.228.175,4.485.264,6.709.264,12.363,0,24.602-2.738,35.759-7.962,12.658,8.231,27.176,13.169,42.36,14.362,2.39.188,4.812.283,7.199.283,22.785,0,44.598-8.526,61.42-24.007,16.914-15.566,27.221-36.766,29.022-59.694,3.781-48.133-30.877-90.579-78.112-97.069C282.336,44.951,242.645,4.302,191.939.319c-2.694-.212-5.424-.319-8.115-.319h0Z"/>
      </g>
      <g>
        <path class="cls-7" d="m124.983,116.153c.34,3.109-7.192,4.987-15.915,5.114-9.018.132-16.213,1.548-16.554-1.562-.34-3.109,6.652-6.425,15.618-7.406,8.966-.981,16.51.745,16.85,3.854Z"/>
        <path class="cls-7" d="m271.749,130.159c-1.135,2.915-9.112,3.077-16.561-1.761-7.564-4.913-15.011-7.172-13.876-10.087,1.135-2.915,8.868-2.626,17.273.646,8.405,3.272,14.299,8.287,13.164,11.202Z"/>
        <path class="cls-2" d="m94.515,135.139c1.357-1.715,6.785-8.159,16.45-9.999,8.809-1.677,15.661,1.512,17.74,2.58"/>
        <path class="cls-2" d="m261.918,145.365c-.967-2.325-4.914-11.112-13.776-14.808-8.077-3.369-15.216-.416-17.401.605"/>
        <path d="m161.429,149.815c-26.025-5.191-34.606-23.499-47.826-20.408-7.928,1.854-13.453,10.451-14.264,17.492-2.263,19.663,30.635,41.15,60.831,47.375,35.854,7.391,82.54-3.715,93.555-28.79,4.729-10.766,3.665-25.89-4.615-30.247-10.216-5.377-23.496,9.807-58.314,14.213-11.143,1.41-19.087,2.415-29.367.364Z"/>
        <g class="cls-3">
          <path class="cls-7" d="m185.202,179.177c-13.445-2.682-17.878-12.14-24.708-10.543-4.096.958-6.95,5.399-7.369,9.037-1.169,10.159,1.718,20.379,17.318,23.595,18.523,3.819,70.565-4.975,76.255-17.929,2.443-5.562,15.901-18.563,11.623-20.814-5.278-2.778-39.96,14.191-57.948,16.467-5.757.728-9.861,1.248-15.172.188Z"/>
        </g>
        <g>
          <g>
            <path id="Tracé_43" data-name="Tracé 43" class="cls-4" d="m159.722,84.094c8.45.892,13.858,15.325,12.074,32.231-1.784,16.906-10.086,29.892-18.535,29-8.45-.892-13.865-15.319-12.08-32.231.223-2.117,8.526-3.748,8.526-3.748,0,0-6.455-6.82-5.685-9.177,3.1-9.605,9.355-16.744,15.701-16.074Z"/>
            <path id="Tracé_46" data-name="Tracé 46" d="m159.722,84.097c8.45.892,4.532,13.71,2.748,30.615-1.784,16.906-.76,31.507-9.209,30.616-8.45-.892-13.865-15.319-12.08-32.231.223-2.117,8.526-3.748,8.526-3.748,0,0-6.455-6.82-5.685-9.177,3.1-9.605,9.355-16.744,15.701-16.074Z"/>
          </g>
          <path class="cls-2" d="m141.322,86.799c-.244,2.482.96,4.798,3.021,5.85,2.224,1.135,4.479.306,4.847.164"/>
          <path class="cls-2" d="m143.984,83.53c-.615,2.417.227,4.888,2.106,6.238,2.027,1.457,4.382.977,4.767.892"/>
          <path class="cls-2" d="m147.948,80.278c-1.068,2.254-.718,4.84.867,6.526,1.709,1.82,4.112,1.801,4.506,1.792"/>
        </g>
        <path class="cls-2" d="m197.705,78.976c1.726,1.8,2.213,4.364,1.243,6.465-1.046,2.267-3.331,3.01-3.708,3.126"/>
        <path class="cls-2" d="m206.055,83.065c1.017,2.277.607,4.855-1.015,6.505-1.75,1.78-4.152,1.707-4.546,1.689"/>
        <path class="cls-2" d="m202.495,80.806c1.348,2.098,1.332,4.708-.024,6.584-1.462,2.023-3.848,2.313-4.24,2.355"/>
        <g>
          <path id="Tracé_43-2" data-name="Tracé 43" class="cls-4" d="m192.194,83.295c8.45.892,13.858,15.325,12.074,32.231-1.784,16.906-10.086,29.892-18.535,29s-13.865-15.319-12.08-32.231c.223-2.117,8.526-3.748,8.526-3.748,0,0-6.455-6.82-5.685-9.177,3.1-9.605,9.355-16.744,15.701-16.074Z"/>
          <path id="Tracé_46-2" data-name="Tracé 46" d="m192.194,83.298c8.45.892,4.532,13.71,2.748,30.615-1.784,16.906-.76,31.507-9.209,30.616-8.45-.892-13.865-15.319-12.08-32.231.223-2.117,8.526-3.748,8.526-3.748,0,0-6.455-6.82-5.685-9.177,3.1-9.605,9.355-16.744,15.701-16.074Z"/>
        </g>
        <path id="nez" class="cls-6" d="m174.787,137.877c-7.561-9.036-16.577-12.192-22.036-8.552-.461.307-3.491,2.393-3.857,5.798-.811,7.531,11.817,17.777,21.531,15.069,1.83-.51,3.204-1.382,3.972-1.931"/>
      </g>
    </g>
  </g>
</svg>