<?xml version="1.0" encoding="UTF-8"?>
<svg id="Calque_2" data-name="Calque 2" xmlns="http://www.w3.org/2000/svg" xmlns:xlink="http://www.w3.org/1999/xlink" viewBox="0 0 318.784 295.05">
  <defs>
    <style>
      .cls-1, .cls-2, .cls-3 {
        fill: none;
      }

      .cls-4 {
        fill: #020202;
      }

      .cls-5 {
        fill: #fff;
      }

      .cls-6 {
        fill: #ff97e4;
      }

      .cls-7, .cls-8 {
        fill: #9bdd50;
      }

      .cls-2, .cls-8 {
        stroke: #000;
        stroke-linecap: round;
        stroke-miterlimit: 10;
      }

      .cls-3 {
        clip-path: url(#clippath);
      }
    </style>
    <clipPath id="clippath">
      <path class="cls-1" d="m199.027,124.515c-11.399-6.074-13.533-28.841-19.884-24.76-3.808,2.448-7.177,13.294-8.236,22.117-2.959,24.639,9.99,50.99,23.196,58.29,15.68,8.668,38.124-5.983,45.615-37.535,3.216-13.547,4.209-32.452.847-37.77-4.148-6.562-11.708,12.651-28.068,18.726-5.236,1.944-8.968,3.33-13.471.931Z"/>
    </clipPath>
  </defs>
  <g id="assets">
    <g id="hexa">
      <g>
        <path class="cls-7" d="m219.978,290.049c-.181,0-.361-.01-.543-.029l-149.392-16.295c-1.776-.194-3.313-1.32-4.034-2.955L5.424,133.246c-.72-1.635-.514-3.529.542-4.97L94.774,7.046c.948-1.294,2.451-2.045,4.033-2.045.181,0,.361.01.543.029l149.392,16.295c1.776.194,3.313,1.32,4.033,2.955l60.585,137.524c.721,1.635.514,3.529-.542,4.97l-88.808,121.23c-.947,1.294-2.45,2.045-4.032,2.045Z"/>
        <path class="cls-5" d="m98.808,10l149.392,16.295,60.584,137.525-88.808,121.23-149.392-16.295L10,131.23,98.808,10m-.002-10c-3.165,0-6.17,1.503-8.065,4.091L1.933,125.32c-2.111,2.882-2.525,6.672-1.084,9.941l60.584,137.525c1.44,3.269,4.516,5.522,8.067,5.91l149.392,16.295c.363.04.726.059,1.086.059,3.165,0,6.17-1.503,8.065-4.091l88.808-121.23c2.111-2.882,2.525-6.672,1.084-9.941l-60.584-137.525c-1.44-3.269-4.516-5.522-8.067-5.91L99.892.059c-.363-.04-.726-.059-1.086-.059h0Z"/>
      </g>
      <g>
        <g>
          <path id="Tracé_46" data-name="Tracé 46" class="cls-5" d="m191.674,44.497c-8.45.892-13.858,15.325-12.074,32.231,1.784,16.906,10.086,29.892,18.535,29s13.865-15.319,12.08-32.231c-.223-2.117-8.526-3.748-8.526-3.748,0,0,6.455-6.82,5.685-9.177-3.1-9.605-9.355-16.744-15.701-16.074Z"/>
          <path id="Tracé_46-2" data-name="Tracé 46" class="cls-4" d="m191.674,44.498c-8.45.892-4.532,13.71-2.748,30.615,1.784,16.906.76,31.507,9.209,30.616,8.45-.892,13.865-15.319,12.08-32.231-.223-2.117-8.526-3.748-8.526-3.748,0,0,6.455-6.82,5.685-9.177-3.1-9.605-9.355-16.744-15.701-16.074Z"/>
        </g>
        <g>
          <path id="Tracé_43" data-name="Tracé 43" class="cls-5" d="m228.713,44.497c-8.45.892-13.858,15.325-12.074,32.231,1.784,16.906,10.086,29.892,18.535,29,8.45-.892,13.865-15.319,12.08-32.231-.223-2.117-8.526-3.748-8.526-3.748,0,0,6.455-6.82,5.685-9.177-3.1-9.605-9.355-16.744-15.701-16.074Z"/>
          <path id="Tracé_46-3" data-name="Tracé 46" class="cls-4" d="m228.713,44.501c-8.45.892-4.532,13.71-2.748,30.615,1.784,16.906.76,31.507,9.209,30.616s13.865-15.319,12.08-32.231c-.223-2.117-8.526-3.748-8.526-3.748,0,0,6.455-6.82,5.685-9.177-3.1-9.605-9.355-16.744-15.701-16.074Z"/>
        </g>
        <path class="cls-6" d="m176.459,89.062c3.078,3.254-5.999,1.853-12.08,5.983-6.287,4.27-4.67,16.022-7.748,12.767-3.077-3.254-1.134-10.09,4.341-15.268,5.475-5.178,12.409-6.737,15.486-3.483Z"/>
        <path class="cls-6" d="m253.015,120.329c-1.148,2.421-2.691-1.948-4.739-6.865-2.08-4.992-9.365-7.723-7.817-8.781,1.548-1.058,8.799.99,11.851,5.454,3.052,4.464,1.508,8.497.705,10.192Z"/>
        <path id="nez" class="cls-8" d="m211.381,97.27c7.561-9.036,16.577-12.192,22.036-8.552.461.307,3.491,2.393,3.857,5.798.811,7.531-11.817,17.777-21.531,15.069-1.83-.51-3.204-1.382-3.972-1.931"/>
        <path class="cls-2" d="m161.931,118.14c-.194-3.096-.686-14.833,5.006-20.742,5.188-5.385,12.289-2.579,14.511-1.572"/>
        <path class="cls-2" d="m246.161,125.175c.452-1.749,2.012-8.429-.961-13.032-2.709-4.195-7.499-4.057-9.013-3.939"/>
        <path class="cls-4" d="m199.027,124.515c-11.399-6.074-13.533-28.841-19.884-24.76-3.808,2.448-7.177,13.294-8.236,22.117-2.959,24.639,9.99,50.99,23.196,58.29,15.68,8.668,28.11-1.277,38.167-25.591,4.507-10.898,8.239-30.32,6.088-40.193-2.428-11.142-9.501,3.13-25.86,9.205-5.236,1.944-8.968,3.33-13.471.931Z"/>
        <g class="cls-3">
          <path class="cls-6" d="m183.41,157.583c9.407,1.925,16.378,8.763,19.821,7.6,2.065-.698,1.801-3.915.414-6.547-3.872-7.352-10.244-14.743-21.206-17.052-13.015-2.741-40.773,3.682-38.396,13.062,1.021,4.027-1.316,13.45,2.307,15.074,4.471,2.004,17.957-10.315,27.896-11.982,3.181-.534,5.448-.914,9.164-.154Z"/>
        </g>
      </g>
    </g>
  </g>
</svg>