<?xml version="1.0" encoding="UTF-8"?>
<svg id="Calque_2" data-name="Calque 2" xmlns="http://www.w3.org/2000/svg" xmlns:xlink="http://www.w3.org/1999/xlink" viewBox="0 0 294.566 235.516">
  <defs>
    <style>
      .cls-1, .cls-2, .cls-3 {
        fill: none;
      }

      .cls-4 {
        fill: #020202;
      }

      .cls-5, .cls-6 {
        fill: #ffe45e;
      }

      .cls-7 {
        fill: #fff;
      }

      .cls-8 {
        fill: #ff97e4;
      }

      .cls-2, .cls-6 {
        stroke: #000;
        stroke-linecap: round;
        stroke-miterlimit: 10;
      }

      .cls-3 {
        clip-path: url(#clippath);
      }
    </style>
    <clipPath id="clippath">
      <path class="cls-1" d="m115.135,99.045c-21.69-3.265-29.492-18.044-40.285-14.974-6.472,1.841-10.697,9.156-11.09,15.001-1.098,16.323,26.905,32.772,52.08,36.728,29.891,4.697,68-6.303,76.11-27.437,3.482-9.074,2.011-21.518-4.996-24.791-8.645-4.038-19.014,9.018-47.587,14.02-9.144,1.601-15.663,2.742-24.231,1.452Z"/>
    </clipPath>
  </defs>
  <g id="assets">
    <g id="slice">
      <g>
        <path class="cls-5" d="m161.28,230.516c-21.652,0-42.676-4.391-62.489-13.05-38.096-16.651-67.521-47.378-82.854-86.522C.603,91.8,1.329,49.262,17.98,11.165l2.002-4.582,144.147,63.003,123.413,97.557-3.101,3.922c-14.734,18.639-33.889,33.901-55.394,44.137-21.046,10.018-44.48,15.312-67.769,15.312Z"/>
        <path class="cls-7" d="m22.562,13.168l138.975,60.742,118.983,94.056c-29.402,37.194-73.837,57.55-119.24,57.55-20.392,0-40.973-4.103-60.485-12.632C24.555,179.562-10.76,89.407,22.562,13.168M17.404,0l-4.005,9.163C4.715,29.031.209,50.091.007,71.758c-.195,20.887,3.598,41.414,11.274,61.01,7.676,19.596,18.834,37.238,33.164,52.435,14.865,15.765,32.476,28.161,52.344,36.845,20.448,8.937,42.145,13.469,64.49,13.469,24.027,0,48.205-5.463,69.918-15.798,22.193-10.563,41.961-26.314,57.167-45.551l6.201-7.845-7.845-6.201-118.983-94.056-1.013-.801-1.183-.517L26.567,4.005,17.404,0h0Z"/>
      </g>
      <g>
        <g>
          <path id="Tracé_46" data-name="Tracé 46" class="cls-7" d="m101.392,28.673c-8.45.892-13.858,15.325-12.074,32.231,1.784,16.906,10.086,29.892,18.535,29s13.865-15.319,12.08-32.231c-.223-2.117-8.526-3.748-8.526-3.748,0,0,6.455-6.82,5.685-9.177-3.1-9.605-9.355-16.744-15.701-16.074Z"/>
          <path id="Tracé_46-2" data-name="Tracé 46" class="cls-4" d="m101.392,28.674c-8.45.892-4.532,13.71-2.748,30.615,1.784,16.906.76,31.507,9.209,30.616,8.45-.892,13.865-15.319,12.08-32.231-.223-2.117-8.526-3.748-8.526-3.748,0,0,6.455-6.82,5.685-9.177-3.1-9.605-9.355-16.744-15.701-16.074Z"/>
        </g>
        <g>
          <path id="Tracé_43" data-name="Tracé 43" class="cls-7" d="m138.431,28.673c-8.45.892-13.858,15.325-12.074,32.231,1.784,16.906,10.086,29.892,18.535,29s13.865-15.319,12.08-32.231c-.223-2.117-8.526-3.748-8.526-3.748,0,0,6.455-6.82,5.685-9.177-3.1-9.605-9.355-16.744-15.701-16.074Z"/>
          <path id="Tracé_46-3" data-name="Tracé 46" class="cls-4" d="m138.431,28.676c-8.45.892-4.532,13.71-2.748,30.615,1.784,16.906.76,31.507,9.209,30.616s13.865-15.319,12.08-32.231c-.223-2.117-8.526-3.748-8.526-3.748,0,0,6.455-6.82,5.685-9.177-3.1-9.605-9.355-16.744-15.701-16.074Z"/>
        </g>
        <path class="cls-8" d="m86.616,70.396c.644,3.061-6.553,3.889-15.221,4.873-8.962,1.017-16.097,4.914-16.741,1.853-.644-3.061,5.989-7.048,14.815-8.905,8.826-1.857,16.503-.882,17.147,2.179Z"/>
        <path class="cls-8" d="m204.594,91.048c-.127,4.467-5.416-1.169-11.842-7.301-6.526-6.226-19.481-5.508-17.827-8.163,1.654-2.655,14.099-4.393,21.755.376s8.004,11.962,7.915,15.088Z"/>
        <path id="nez" class="cls-6" d="m121.099,81.446c7.561-9.036,16.577-12.192,22.036-8.552.461.307,3.491,2.393,3.857,5.798.811,7.531-11.817,17.777-21.531,15.069-1.83-.51-3.204-1.382-3.972-1.931"/>
        <path class="cls-2" d="m55.499,89.969c1.152-1.859,5.807-8.881,15.199-11.815,8.559-2.674,15.731-.289,17.919.535"/>
        <path class="cls-2" d="m197.381,103.045c-.484-2.973-2.585-14.22-10.212-19.254-6.952-4.588-14.173-1.162-16.404.033"/>
        <path class="cls-4" d="m115.135,99.045c-21.69-3.265-29.492-18.044-40.285-14.974-6.472,1.841-10.697,9.156-11.09,15.001-1.098,16.323,26.905,32.772,52.08,36.728,29.891,4.697,50.681-2.594,64.688-19.148,6.278-7.419,9.678-20.374,4.075-26.706-6.323-7.146-16.663,2.644-45.236,7.646-9.144,1.601-15.663,2.742-24.231,1.452Z"/>
        <g class="cls-3">
          <path class="cls-8" d="m86.463,119.162c9.98-5.367,11.2-13.914,16.985-14.301,3.469-.232,6.798,2.589,8.007,5.364,3.378,7.748,3.563,16.524-7.992,22.833-13.72,7.492-56.981,13.108-64.607,4.243-3.274-3.807-17.052-10.833-14.214-13.646,3.501-3.47,35.014,1.567,49.783-.978,4.726-.814,8.096-1.395,12.038-3.515Z"/>
        </g>
      </g>
    </g>
  </g>
</svg>