<?xml version="1.0" encoding="UTF-8"?>
<svg id="Calque_2" data-name="Calque 2" xmlns="http://www.w3.org/2000/svg" viewBox="0 0 180.865 361.723">
  <defs>
    <style>
      .cls-1 {
        fill: #fff;
      }

      .cls-2 {
        fill: none;
        stroke: #fff;
        stroke-miterlimit: 10;
        stroke-width: 20px;
      }
    </style>
  </defs>
  <g id="assets">
    <g id="top">
      <g>
        <path class="cls-1" d="m0,262.732l50.559-.49-1.636,35.669,65.611-7.854v43.85l-65.611-7.689,1.636,35.505-50.559-.327v-98.663Z"/>
        <path class="cls-1" d="m116.987,216.101c0,14.618-3.844,26.072-11.535,34.36-7.689,8.291-18.297,12.435-31.823,12.435s-24.134-4.144-31.824-12.435c-7.69-8.288-11.535-19.742-11.535-34.36,0-14.726,3.845-26.261,11.535-34.605s18.3-12.517,31.824-12.517,24.134,4.172,31.823,12.517c7.691,8.345,11.535,19.88,11.535,34.605Zm-36.978,0c0-10.906-2.127-16.362-6.381-16.362-4.362,0-6.545,5.456-6.545,16.362,0,10.691,2.183,16.035,6.545,16.035,4.254,0,6.381-5.344,6.381-16.035Z"/>
        <path class="cls-1" d="m147.258,123.657v39.76H32.724v-37.306l27.324,4.418v-2.291c-9.379-1.309-16.689-4.717-21.924-10.226-5.236-5.507-7.854-12.134-7.854-19.88,0-9.49,3.873-17.099,11.617-22.825,7.746-5.727,18.325-8.59,31.742-8.59s23.998,2.863,31.742,8.59c7.746,5.727,11.616,13.335,11.616,22.825,0,8.073-2.916,14.917-8.753,20.534-5.834,5.619-14.044,8.917-24.625,9.899v2.127l63.648-7.036Zm-68.394-9.49c0-9.707-2.07-14.562-6.217-14.562s-6.218,4.854-6.218,14.562c0,9.928,2.073,14.89,6.218,14.89s6.217-4.962,6.217-14.89Z"/>
      </g>
      <path class="cls-2" d="m170.857,360.323V.154c.072,4.68.116,37.965-22.625,52.181-2.886,1.804-6.504,3.529-10.986,4.708"/>
    </g>
  </g>
</svg>