<?xml version="1.0" encoding="UTF-8"?>
<svg id="Calque_2" data-name="Calque 2" xmlns="http://www.w3.org/2000/svg" viewBox="0 0 980.88 493.468">
  <defs>
    <style>
      .cls-1 {
        fill: #fff;
      }

      .cls-2 {
        fill: #9bdd50;
      }

      .cls-3 {
        fill: #3e67ed;
      }
    </style>
  </defs>
  <g id="Composistions">
    <g id="calva">
      <g id="calva-2" data-name="calva">
        <g>
          <path class="cls-3" d="m889.125,443.169c-.841,0-1.695-.031-2.538-.094l-770.249-56.845c-9.076-.67-17.349-4.834-23.293-11.726-5.944-6.891-8.849-15.685-8.179-24.761l15.234-206.422c1.306-17.7,16.219-31.566,33.949-31.566.841,0,1.695.031,2.538.094l770.249,56.845c18.736,1.383,32.854,17.751,31.472,36.487l-15.234,206.423c-1.306,17.7-16.219,31.565-33.949,31.565Z"/>
          <path class="cls-1" d="m134.049,116.756c.719,0,1.442.026,2.17.08l770.25,56.845c16.012,1.182,28.035,15.12,26.854,31.132l-15.234,206.423c-1.128,15.283-13.88,26.933-28.962,26.933-.719,0-1.442-.026-2.171-.08l-770.25-56.845c-16.012-1.182-28.035-15.121-26.854-31.133l15.234-206.423c1.128-15.284,13.879-26.933,28.962-26.933m0-10h0c-9.845,0-19.258,3.691-26.504,10.394-7.286,6.738-11.7,15.902-12.431,25.803l-15.234,206.423c-1.586,21.485,14.604,40.255,36.09,41.841l770.25,56.845c.964.071,1.943.107,2.907.107,20.334,0,37.437-15.899,38.935-36.197l15.234-206.423c.768-10.408-2.563-20.492-9.38-28.395s-16.303-12.678-26.711-13.446L136.955,106.863c-.964-.071-1.942-.107-2.906-.107h0Z"/>
        </g>
        <g>
          <path class="cls-2" d="m236.594,331.514c-27.206-2.008-48.225-10.138-63.056-24.397-14.831-14.255-21.248-34.913-19.251-61.976,2.008-27.205,11.468-46.802,28.384-58.79,16.913-11.988,39.046-16.972,66.4-14.953,18.135,1.338,34.796,4.774,49.978,10.306l-9.228,71.234c-5.039-3.459-11.767-6.455-20.183-8.989-8.417-2.531-16.941-4.118-25.57-4.755-25.89-1.911-39.131,1.159-39.724,9.202-.356,4.827,2.948,8.345,9.92,10.549,6.969,2.206,17.401,3.82,31.299,4.846,9.214.68,18.544.266,27.997-1.243,9.448-1.509,17.075-3.738,22.884-6.693l-4.92,72.654c-15.704,3.546-34.015,4.549-54.93,3.005Z"/>
          <path class="cls-2" d="m370.372,306.312l-6.5,31.286-78.773,32.691,73.213-187.52,62.311,4.599,40.883,157.436-68.673-5.068-1.838-31.901-20.624-1.522Zm16.812-63.395l-3.73-.275-8.999,47.205,14.48,1.069-1.751-47.998Z"/>
          <path class="cls-2" d="m518.979,286.395l76.359,2.548-4.825,65.382-125.499-9.262,4.83-176.311,61.355,26.777-12.221,90.867Z"/>
          <path class="cls-2" d="m681.567,361.045l-62.091-4.582-41.103-157.452,68.014,5.02,7.54,86.149,3.511.259,30.123-110.148,57.557,31.026-63.552,149.729Z"/>
          <path class="cls-2" d="m772.975,336.025l-6.5,31.286-69.112-5.101,63.552-149.729,62.311,4.599,40.883,157.436-68.858,34.555-1.652-71.524-20.624-1.522Zm16.812-63.395l-3.73-.275-8.999,47.205,14.48,1.069-1.751-47.998Z"/>
        </g>
      </g>
      <path id="star" class="cls-1" d="m88.725,0c13.048,23.302,30.654,43.739,51.767,60.092,22.486,14.408,47.643,24.143,73.971,28.622-23.302,13.048-43.739,30.654-60.092,51.767-14.431,22.485-24.186,47.645-28.682,73.981-13.048-23.302-30.654-43.739-51.767-60.092-22.466-14.427-47.605-24.185-73.921-28.693,23.301-13.036,43.74-30.629,60.099-51.73,14.407-22.479,24.142-47.628,28.626-73.948Z"/>
      <path id="star-2" data-name="star" class="cls-1" d="m940.955,369.527c-.038,16.145,3.175,32.133,9.447,47.011,7.572,14.26,17.937,26.849,30.478,37.018-16.145-.038-32.133,3.175-47.011,9.447-14.271,7.564-26.873,17.925-37.053,30.465.038-16.145-3.175-32.133-9.447-47.011-7.555-14.264-17.904-26.861-30.43-37.041,16.141.044,32.126-3.161,47.003-9.425,14.257-7.568,26.845-17.929,37.014-30.465Z"/>
    </g>
  </g>
</svg>