<?xml version="1.0" encoding="UTF-8"?>
<svg id="Calque_2" data-name="Calque 2" xmlns="http://www.w3.org/2000/svg" xmlns:xlink="http://www.w3.org/1999/xlink" viewBox="0 0 902.243 459.884">
  <defs>
    <style>
      .cls-1, .cls-2, .cls-3, .cls-4 {
        fill: none;
      }

      .cls-5, .cls-6, .cls-3 {
        stroke: #000;
        stroke-linecap: round;
        stroke-miterlimit: 10;
        stroke-width: 1.306px;
      }

      .cls-5, .cls-7 {
        fill: #9bdd50;
      }

      .cls-6, .cls-8 {
        fill: #ff50da;
      }

      .cls-2 {
        clip-path: url(#clippath-1);
      }

      .cls-9 {
        fill: #020202;
      }

      .cls-10 {
        fill: #fff;
      }

      .cls-11 {
        fill: #ff316f;
      }

      .cls-12 {
        fill: #ff97e4;
      }

      .cls-4 {
        clip-path: url(#clippath);
      }
    </style>
    <clipPath id="clippath">
      <path class="cls-1" d="m340.569,162.556c14.881-7.929,17.668-37.652,25.958-32.324,4.971,3.195,9.369,17.355,10.753,28.874,3.862,32.166-13.043,66.568-30.283,76.099-20.47,11.316-49.771-7.811-59.551-49.002-4.199-17.685-5.495-42.366-1.106-49.309,5.415-8.566,15.285,16.516,36.643,24.447,6.835,2.538,11.708,4.348,17.586,1.216Z"/>
    </clipPath>
    <clipPath id="clippath-1">
      <path class="cls-1" d="m637.27,295.797c-33.976-6.777-45.178-30.678-62.437-26.643-10.35,2.42-17.563,13.644-18.622,22.837-2.955,25.671,39.994,53.722,79.416,61.849,46.808,9.65,107.757-4.849,122.136-37.585,6.174-14.055,4.785-33.799-6.025-39.488-13.337-7.019-30.674,12.804-76.13,18.555-14.547,1.841-24.918,3.153-38.339.476Z"/>
    </clipPath>
  </defs>
  <g id="Composistions">
    <g id="cloud-hexa-star">
      <g id="hexa">
        <g>
          <path class="cls-7" d="m313.218,378.662c-2.066,0-4.027-.981-5.265-2.67l-115.939-158.267c-1.378-1.881-1.648-4.355-.708-6.489L270.4,31.697c.94-2.134,2.948-3.605,5.266-3.858L470.698,6.566c.237-.026.474-.039.709-.039,2.066,0,4.027.981,5.265,2.67l115.939,158.266c1.378,1.881,1.648,4.355.708,6.489l-79.094,179.54c-.94,2.134-2.948,3.604-5.266,3.857l-195.032,21.273c-.237.026-.474.039-.709.039Z"/>
          <path class="cls-10" d="m471.406,13.055l115.939,158.267-79.093,179.54-195.032,21.273-115.939-158.267,79.093-179.539,195.032-21.273m.002-13.055c-.471,0-.943.025-1.418.077l-195.032,21.273c-4.637.506-8.651,3.447-10.532,7.715l-79.093,179.539c-1.88,4.268-1.341,9.216,1.416,12.978l115.939,158.267c2.474,3.377,6.398,5.34,10.53,5.34.471,0,.943-.025,1.418-.077l195.032-21.273c4.637-.506,8.651-3.447,10.532-7.715l79.093-179.54c1.88-4.268,1.341-9.216-1.416-12.978L481.938,5.34c-2.474-3.377-6.398-5.34-10.53-5.34h0Z"/>
        </g>
        <g>
          <g>
            <path id="Tracé_46" data-name="Tracé 46" class="cls-10" d="m350.169,58.091c11.031,1.164,18.091,20.006,15.762,42.077-2.329,22.071-13.167,39.024-24.198,37.86-11.031-1.164-18.101-19.999-15.771-42.078.292-2.764,11.131-4.893,11.131-4.893,0,0-8.428-8.903-7.422-11.981,4.048-12.54,12.213-21.859,20.498-20.985Z"/>
            <path id="Tracé_46-2" data-name="Tracé 46" class="cls-9" d="m350.169,58.093c11.031,1.164,5.916,17.898,3.587,39.969-2.329,22.071-.992,41.133-12.023,39.969-11.031-1.164-18.101-19.999-15.771-42.078.292-2.764,11.131-4.893,11.131-4.893,0,0-8.428-8.903-7.422-11.981,4.048-12.54,12.213-21.859,20.498-20.985Z"/>
          </g>
          <g>
            <path id="Tracé_43" data-name="Tracé 43" class="cls-10" d="m301.814,58.091c11.031,1.164,18.091,20.006,15.762,42.077-2.329,22.071-13.167,39.024-24.198,37.86-11.031-1.164-18.101-19.999-15.771-42.078.292-2.764,11.131-4.893,11.131-4.893,0,0-8.428-8.903-7.422-11.981,4.048-12.54,12.213-21.859,20.498-20.985Z"/>
            <path id="Tracé_46-3" data-name="Tracé 46" class="cls-9" d="m301.814,58.096c11.031,1.164,5.916,17.898,3.587,39.969-2.329,22.071-.992,41.133-12.023,39.969-11.031-1.164-18.101-19.999-15.771-42.078.292-2.764,11.131-4.893,11.131-4.893,0,0-8.428-8.903-7.422-11.981,4.048-12.54,12.213-21.859,20.498-20.985Z"/>
          </g>
          <path class="cls-12" d="m370.031,116.272c-4.018,4.248,7.832,2.419,15.77,7.811,8.208,5.575,6.097,20.917,10.115,16.668,4.018-4.248,1.48-13.172-5.668-19.932-7.148-6.76-16.199-8.795-20.217-4.547Z"/>
          <path class="cls-12" d="m270.088,157.09c1.498,3.161,3.513-2.543,6.187-8.962,2.716-6.517,12.226-10.082,10.205-11.464-2.021-1.382-11.487,1.293-15.472,7.121-3.984,5.828-1.968,11.093-.92,13.305Z"/>
          <path id="nez" class="cls-5" d="m324.441,126.987c-9.871-11.796-21.642-15.917-28.768-11.165-.601.401-4.557,3.124-5.035,7.569-1.058,9.832,15.427,23.208,28.109,19.673,2.389-.666,4.183-1.804,5.185-2.521"/>
          <path class="cls-3" d="m388.998,154.233c.253-4.041.896-19.365-6.536-27.078-6.773-7.03-16.043-3.368-18.945-2.053"/>
          <path class="cls-3" d="m279.035,163.416c-.59-2.283-2.626-11.004,1.255-17.014,3.537-5.477,9.79-5.296,11.766-5.143"/>
          <path class="cls-9" d="m340.569,162.556c14.881-7.929,17.668-37.652,25.958-32.324,4.971,3.195,9.369,17.355,10.753,28.874,3.862,32.166-13.043,66.568-30.283,76.099-20.47,11.316-36.698-1.667-49.828-33.409-5.884-14.227-10.756-39.583-7.947-52.472,3.17-14.546,12.403,4.086,33.761,12.017,6.835,2.538,11.708,4.348,17.586,1.216Z"/>
          <g class="cls-4">
            <path class="cls-12" d="m360.957,205.726c-12.281,2.513-21.381,11.44-25.876,9.922-2.695-.911-2.351-5.111-.541-8.548,5.054-9.598,13.374-19.248,27.684-22.262,16.992-3.579,53.23,4.807,50.126,17.053-1.333,5.258,1.718,17.559-3.012,19.679-5.837,2.616-23.443-13.466-36.418-15.643-4.152-.697-7.113-1.194-11.964-.201Z"/>
          </g>
        </g>
      </g>
      <g id="cloud">
        <g>
          <path class="cls-8" d="m783.798,453.356c-2.946,0-5.937-.118-8.888-.35-19.958-1.567-38.985-8.381-55.294-19.764-14.566,7.462-30.795,11.389-47.202,11.389-2.733,0-5.508-.109-8.247-.324-23.71-1.863-45.906-11.729-63.098-27.938-17.738,11.769-38.233,17.96-59.623,17.961-2.847,0-5.736-.114-8.589-.338-28.833-2.265-55.06-15.623-73.847-37.614-18.788-21.991-27.887-49.981-25.622-78.814,2.147-27.338,14.437-52.614,34.604-71.174,19.9-18.313,45.653-28.463,72.584-28.622,3.79-29.775,17.841-57.053,39.983-77.431,23.542-21.666,54.065-33.598,85.947-33.598,3.343,0,6.735.133,10.083.396,64.783,5.089,115.086,58.367,117.076,122.613,60.973,5.449,106.502,59.177,101.697,120.352-2.222,28.284-14.937,54.437-35.801,73.639-20.752,19.099-47.659,29.617-75.764,29.617Z"/>
          <path class="cls-10" d="m666.506,113.267c3.169,0,6.359.124,9.572.376,63.9,5.02,112.234,58.998,111.102,122.244,1.578.05,3.169.142,4.765.268,58.084,4.563,101.473,55.35,96.911,113.434-4.342,55.273-50.544,97.24-105.058,97.24-2.773,0-5.565-.108-8.376-.329-20.827-1.636-39.77-9.222-55.289-20.948-14.178,8.019-30.5,12.552-47.719,12.552-2.56,0-5.14-.1-7.736-.304-24.917-1.957-46.905-13.126-62.879-29.911-16.992,12.562-37.947,19.914-60.354,19.914-2.674,0-5.366-.104-8.078-.318-56.023-4.401-97.874-53.387-93.473-109.41,4.188-53.309,48.751-93.781,101.326-93.781,1.737,0,3.477.044,5.23.133l.003-.041c4.962-63.163,57.757-111.118,120.053-111.119m.003-13.055v13.055-13.055c-33.528,0-65.621,12.545-90.371,35.323-21.918,20.171-36.295,46.771-41.223,75.876-26.505,1.452-51.634,12.038-71.344,30.176-21.385,19.679-34.416,46.48-36.693,75.466-2.401,30.572,7.246,60.25,27.167,83.566s47.727,37.48,78.299,39.882c3.021.237,6.083.357,9.1.357,20.977,0,41.142-5.615,58.933-16.33,17.691,15.202,39.786,24.442,63.277,26.287,2.908.229,5.854.344,8.758.344,16.14,0,32.119-3.574,46.684-10.395,16.525,10.746,35.479,17.193,55.301,18.75,3.121.245,6.283.369,9.398.369,29.747,0,58.223-11.131,80.184-31.342,22.082-20.322,35.537-47.998,37.889-77.931,2.48-31.569-7.482-62.214-28.052-86.29-19.054-22.302-45.097-36.495-73.924-40.437-4.78-64.992-56.597-118.057-122.794-123.257-3.517-.276-7.08-.417-10.591-.417h0Z"/>
        </g>
        <g>
          <path class="cls-12" d="m589.689,251.85c.444,4.059-9.389,6.51-20.777,6.676-11.774.172-21.167,2.02-21.611-2.039-.444-4.059,8.685-8.388,20.39-9.669,11.705-1.281,21.554.972,21.998,5.031Z"/>
          <path class="cls-12" d="m781.293,270.135c-1.481,3.805-11.895,4.017-21.62-2.3-9.874-6.414-19.597-9.363-18.116-13.168,1.481-3.805,11.577-3.428,22.55.844,10.973,4.271,18.667,10.819,17.186,14.624Z"/>
          <path class="cls-3" d="m549.913,276.637c1.772-2.238,8.858-10.651,21.476-13.054,11.5-2.19,20.446,1.974,23.16,3.369"/>
          <path class="cls-3" d="m768.46,289.987c-1.263-3.035-6.415-14.507-17.985-19.332-10.545-4.399-19.864-.543-22.717.79"/>
          <path d="m637.27,295.797c-33.976-6.777-45.178-30.678-62.437-26.643-10.35,2.42-17.563,13.644-18.622,22.837-2.955,25.671,39.994,53.722,79.416,61.849,46.808,9.65,107.757-4.849,122.136-37.585,6.174-14.055,4.785-33.799-6.025-39.488-13.337-7.019-30.674,12.804-76.13,18.555-14.547,1.841-24.918,3.153-38.339.476Z"/>
          <g class="cls-2">
            <path class="cls-12" d="m668.305,334.129c-17.553-3.501-23.34-15.849-32.256-13.764-5.347,1.25-9.074,7.049-9.62,11.798-1.527,13.262,2.243,26.605,22.609,30.803,24.182,4.985,92.123-6.495,99.552-23.407,3.189-7.261,20.759-24.234,15.174-27.173-6.89-3.626-52.169,18.526-75.652,21.497-7.515.951-12.873,1.629-19.807.246Z"/>
          </g>
          <g>
            <g>
              <path id="Tracé_43-2" data-name="Tracé 43" class="cls-10" d="m635.042,209.997c11.031,1.164,18.091,20.006,15.762,42.077-2.329,22.071-13.167,39.024-24.198,37.86-11.031-1.164-18.101-19.999-15.771-42.078.292-2.764,11.131-4.893,11.131-4.893,0,0-8.428-8.903-7.422-11.981,4.048-12.54,12.213-21.859,20.498-20.985Z"/>
              <path id="Tracé_46-4" data-name="Tracé 46" d="m635.042,210.001c11.031,1.164,5.916,17.898,3.587,39.969-2.329,22.071-.992,41.133-12.023,39.969-11.031-1.164-18.101-19.999-15.771-42.078.292-2.764,11.131-4.893,11.131-4.893,0,0-8.428-8.903-7.422-11.981,4.048-12.54,12.213-21.859,20.498-20.985Z"/>
            </g>
            <path class="cls-3" d="m611.02,213.529c-.318,3.24,1.254,6.263,3.945,7.637,2.903,1.481,5.847.399,6.328.214"/>
            <path class="cls-3" d="m614.495,209.261c-.802,3.155.296,6.381,2.749,8.144,2.647,1.902,5.72,1.275,6.223,1.164"/>
            <path class="cls-3" d="m619.67,205.015c-1.394,2.942-.937,6.318,1.131,8.52,2.231,2.376,5.368,2.352,5.883,2.34"/>
          </g>
          <path class="cls-3" d="m684.629,203.315c2.254,2.35,2.888,5.697,1.623,8.44-1.365,2.96-4.348,3.93-4.84,4.081"/>
          <path class="cls-3" d="m695.529,208.653c1.327,2.973.793,6.338-1.325,8.492-2.285,2.324-5.42,2.229-5.935,2.205"/>
          <path class="cls-3" d="m690.882,205.705c1.76,2.739,1.738,6.146-.031,8.595-1.909,2.642-5.023,3.02-5.535,3.074"/>
          <g>
            <path id="Tracé_43-3" data-name="Tracé 43" class="cls-10" d="m677.433,208.953c11.031,1.164,18.091,20.006,15.762,42.077-2.329,22.071-13.167,39.024-24.198,37.86-11.031-1.164-18.101-19.999-15.771-42.078.292-2.764,11.131-4.893,11.131-4.893,0,0-8.428-8.903-7.422-11.981,4.048-12.54,12.213-21.859,20.498-20.985Z"/>
            <path id="Tracé_46-5" data-name="Tracé 46" d="m677.433,208.958c11.031,1.164,5.916,17.898,3.587,39.969-2.329,22.071-.992,41.133-12.023,39.969-11.031-1.164-18.101-19.999-15.771-42.078.292-2.764,11.131-4.893,11.131-4.893,0,0-8.428-8.903-7.422-11.981,4.048-12.54,12.213-21.859,20.498-20.985Z"/>
          </g>
          <path id="nez-2" data-name="nez" class="cls-6" d="m654.708,280.211c-9.871-11.796-21.642-15.917-28.768-11.165-.601.401-4.557,3.124-5.035,7.569-1.058,9.832,15.427,23.208,28.109,19.673,2.389-.666,4.183-1.804,5.185-2.521"/>
        </g>
      </g>
      <path id="star-pink" class="cls-11" d="m89.402,135.741c3.531,5.499,8.133,10.232,13.532,13.915,5.705,3.188,11.994,5.194,18.492,5.9-5.499,3.531-10.232,8.133-13.915,13.532-3.193,5.705-5.205,11.995-5.914,18.495-3.531-5.499-8.133-10.232-13.532-13.915-5.701-3.193-11.986-5.205-18.48-5.918,5.499-3.528,10.232-8.127,13.917-13.523,3.187-5.704,5.194-11.991,5.901-18.486Z"/>
      <path id="star" class="cls-10" d="m88.871,202.312c3.145,18.6,10.002,36.376,20.162,52.269,11.535,14.925,25.957,27.376,42.407,36.609-18.6,3.145-36.376,10.002-52.269,20.162-14.94,11.529-27.405,25.949-36.652,42.399-3.145-18.6-10.002-36.376-20.162-52.269-11.517-14.933-25.922-27.395-42.357-36.644,18.596-3.137,36.37-9.985,52.264-20.135,14.923-11.531,27.372-25.947,36.606-42.391Z"/>
    </g>
  </g>
</svg>