<?xml version="1.0" encoding="UTF-8"?>
<svg id="Calque_2" data-name="Calque 2" xmlns="http://www.w3.org/2000/svg" xmlns:xlink="http://www.w3.org/1999/xlink" viewBox="0 0 1155.792 692.672">
  <defs>
    <style>
      .cls-1, .cls-2, .cls-3, .cls-4 {
        fill: none;
      }

      .cls-5 {
        fill: #fff;
      }

      .cls-6 {
        fill: #ff316f;
      }

      .cls-7, .cls-8 {
        fill: #ff50da;
      }

      .cls-9 {
        fill: #ff97e4;
      }

      .cls-10 {
        fill: #9bdd50;
      }

      .cls-11 {
        fill: #3e67ed;
      }

      .cls-8, .cls-3 {
        stroke: #000;
        stroke-linecap: round;
        stroke-miterlimit: 10;
        stroke-width: 2.087px;
      }

      .cls-2 {
        stroke: #fac840;
        stroke-miterlimit: 4;
        stroke-width: 6.952px;
      }

      .cls-4 {
        clip-path: url(#clippath);
      }
    </style>
    <clipPath id="clippath">
      <path class="cls-1" d="m421.613,353.043c-54.325-10.836-72.237-49.052-99.832-42.599-16.548,3.869-28.083,21.815-29.775,36.514-4.725,41.046,63.947,85.897,126.98,98.892,74.842,15.429,172.295-7.754,195.286-60.096,9.871-22.473,7.65-54.043-9.633-63.138-21.325-11.223-49.045,20.472-121.725,29.668-23.26,2.943-39.842,5.041-61.301.761Z"/>
    </clipPath>
  </defs>
  <g id="Composistions">
    <g id="cloud-globe">
      <g id="cloud">
        <g>
          <path class="cls-7" d="m655.899,604.968c-4.711,0-9.492-.188-14.21-.559-31.912-2.507-62.335-13.402-88.412-31.601-23.289,11.931-49.239,18.209-75.471,18.21-4.371,0-8.808-.174-13.187-.518-37.911-2.978-73.4-18.753-100.889-44.672-28.361,18.818-61.131,28.718-95.332,28.719-4.552,0-9.173-.181-13.734-.54-95.173-7.476-166.52-90.988-159.043-186.161,3.434-43.711,23.083-84.126,55.331-113.801,31.817-29.279,72.996-45.509,116.054-45.764,6.049-47.585,28.518-91.215,63.931-123.806,37.641-34.642,86.446-53.72,137.423-53.72,5.345,0,10.769.213,16.123.634,103.583,8.137,184.014,93.324,187.195,196.049,97.497,8.702,170.29,94.613,162.606,192.432-3.552,45.224-23.882,87.04-57.244,117.743-33.182,30.538-76.204,47.355-121.141,47.355Z"/>
          <path class="cls-5" d="m468.36,61.192c5.066,0,10.168.198,15.305.602,102.171,8.026,179.454,94.333,177.642,195.459,2.523.081,5.066.228,7.619.429,92.872,7.295,162.248,88.5,154.952,181.372-6.942,88.377-80.816,155.479-167.979,155.479-4.433,0-8.898-.173-13.393-.526-33.301-2.616-63.589-14.745-88.403-33.494-22.67,12.821-48.769,20.07-76.299,20.07-4.094,0-8.217-.16-12.368-.486-39.84-3.13-74.997-20.987-100.538-47.826-27.169,20.085-60.673,31.841-96.499,31.841-4.276,0-8.582-.167-12.917-.508-89.577-7.037-156.492-85.361-149.456-174.938,6.696-85.237,77.948-149.948,162.01-149.948,2.777,0,5.56.07,8.364.213l.005-.065c7.933-100.993,92.349-177.669,191.955-177.671m0-20.874h0c-53.603,0-104.917,20.059-144.49,56.478-35.045,32.252-58.033,74.784-65.912,121.321-42.38,2.322-82.559,19.247-114.074,48.249-34.192,31.465-55.027,74.317-58.668,120.663-1.94,24.696,1.019,49.045,8.794,72.371,7.506,22.519,19.162,43.125,34.643,61.245,15.481,18.12,34.014,32.85,55.084,43.781,21.825,11.322,45.414,18.047,70.11,19.986,4.832.38,9.728.572,14.552.572,19.833,0,39.392-3.187,58.133-9.472,12.618-4.231,24.698-9.807,36.085-16.646,28.287,24.312,63.618,39.088,101.185,42.04,4.649.365,9.36.55,14.003.55,25.807,0,51.355-5.716,74.645-16.621,26.422,17.182,56.728,27.49,88.422,29.98,4.989.392,10.045.59,15.028.59,47.562,0,93.094-17.797,128.208-50.112,35.307-32.493,56.822-76.746,60.581-124.605,2.003-25.501-1.052-50.645-9.08-74.729-7.751-23.253-19.786-44.53-35.772-63.241-15.985-18.711-35.123-33.921-56.88-45.208-19.251-9.987-39.83-16.509-61.318-19.447-3.464-47.234-22.509-91.897-54.68-127.456-36.738-40.606-87.047-65.332-141.659-69.623-5.624-.442-11.323-.666-16.94-.666h0Z"/>
        </g>
        <g>
          <path class="cls-9" d="m345.535,282.775c.71,6.491-15.013,10.409-33.221,10.675-18.825.275-33.844,3.23-34.554-3.26-.71-6.49,13.886-13.412,32.601-15.46,18.715-2.048,34.463,1.554,35.173,8.045Z"/>
          <path class="cls-9" d="m651.895,312.012c-2.368,6.085-19.02,6.424-34.569-3.677-15.789-10.256-31.334-14.97-28.966-21.055,2.368-6.085,18.511-5.481,36.056,1.349,17.545,6.829,29.847,17.298,27.479,23.383Z"/>
          <path class="cls-3" d="m281.936,322.408c2.833-3.579,14.163-17.03,34.338-20.872,18.388-3.501,32.691,3.157,37.031,5.386"/>
          <path class="cls-3" d="m631.375,343.753c-2.019-4.854-10.258-23.195-28.756-30.911-16.86-7.033-31.761-.867-36.322,1.263"/>
          <path d="m421.613,353.043c-54.325-10.836-72.237-49.052-99.832-42.599-16.548,3.869-28.083,21.815-29.775,36.514-4.725,41.046,63.947,85.897,126.98,98.892,74.842,15.429,172.295-7.754,195.286-60.096,9.871-22.473,7.65-54.043-9.633-63.138-21.325-11.223-49.045,20.472-121.725,29.668-23.26,2.943-39.842,5.041-61.301.761Z"/>
          <g class="cls-4">
            <path class="cls-9" d="m471.236,414.333c-28.066-5.598-37.319-25.341-51.576-22.008-8.549,1.999-14.508,11.27-15.382,18.864-2.441,21.205,3.586,42.539,36.151,49.252,38.665,7.971,147.298-10.385,159.176-37.426,5.1-11.61,33.191-38.748,24.262-43.447-11.017-5.798-83.413,29.622-120.961,34.372-12.017,1.52-20.583,2.604-31.669.393Z"/>
          </g>
          <g>
            <g>
              <path id="Tracé_43" data-name="Tracé 43" class="cls-5" d="m418.05,215.856c17.638,1.861,28.927,31.989,25.203,67.278-3.724,35.289-21.053,62.397-38.69,60.536s-28.942-31.976-25.217-67.28c.466-4.42,17.797-7.824,17.797-7.824,0,0-13.475-14.235-11.867-19.157,6.472-20.05,19.528-34.951,32.774-33.553Z"/>
              <path id="Tracé_46" data-name="Tracé 46" d="m418.05,215.863c17.638,1.861,9.459,28.617,5.735,63.907-3.724,35.289-1.586,65.768-19.223,63.907s-28.942-31.976-25.217-67.28c.466-4.42,17.797-7.824,17.797-7.824,0,0-13.475-14.235-11.867-19.157,6.472-20.05,19.528-34.951,32.774-33.553Z"/>
            </g>
            <path class="cls-3" d="m379.641,221.503c-.508,5.181,2.004,10.015,6.307,12.21,4.642,2.369,9.349.638,10.117.342"/>
            <path class="cls-3" d="m385.198,214.679c-1.283,5.045.473,10.202,4.396,13.021,4.232,3.041,9.147,2.039,9.95,1.862"/>
            <path class="cls-3" d="m393.472,207.89c-2.23,4.704-1.498,10.103,1.809,13.623,3.568,3.798,8.583,3.76,9.406,3.741"/>
          </g>
          <path class="cls-3" d="m497.336,205.172c3.604,3.757,4.618,9.109,2.595,13.496-2.183,4.732-6.952,6.283-7.739,6.526"/>
          <path class="cls-3" d="m514.764,213.707c2.122,4.754,1.268,10.134-2.119,13.579-3.654,3.716-8.667,3.564-9.489,3.526"/>
          <path class="cls-3" d="m507.334,208.993c2.814,4.38,2.78,9.828-.05,13.743-3.052,4.224-8.031,4.829-8.85,4.915"/>
          <g>
            <path id="Tracé_43-2" data-name="Tracé 43" class="cls-5" d="m485.831,214.187c17.638,1.861,28.927,31.989,25.203,67.278-3.724,35.289-21.053,62.397-38.69,60.536-17.638-1.861-28.942-31.976-25.217-67.28.466-4.42,17.797-7.824,17.797-7.824,0,0-13.475-14.235-11.867-19.157,6.472-20.05,19.528-34.951,32.774-33.553Z"/>
            <path id="Tracé_46-2" data-name="Tracé 46" d="m485.831,214.194c17.638,1.861,9.459,28.617,5.735,63.907-3.724,35.289-1.586,65.768-19.223,63.907-17.638-1.861-28.942-31.976-25.217-67.28.466-4.42,17.797-7.824,17.797-7.824,0,0-13.475-14.235-11.867-19.157,6.472-20.05,19.528-34.951,32.774-33.553Z"/>
          </g>
          <path id="nez" class="cls-8" d="m449.495,328.122c-15.783-18.861-34.603-25.451-45.998-17.851-.961.641-7.286,4.996-8.051,12.102-1.692,15.72,24.667,37.108,44.945,31.456,3.819-1.065,6.689-2.884,8.291-4.03"/>
        </g>
      </g>
      <g id="globe">
        <g id="Ellipse_6" data-name="Ellipse 6">
          <ellipse class="cls-5" cx="862.919" cy="516.847" rx="298.964" ry="165.054" transform="translate(-99.404 224.111) rotate(-14)"/>
          <ellipse class="cls-2" cx="862.919" cy="516.847" rx="295.488" ry="161.578" transform="translate(-99.404 224.111) rotate(-14)"/>
        </g>
        <path id="globe-solid" class="cls-6" d="m909.333,503.267c2.878,10.045,5.238,20.23,7.073,30.517l-87.115,24.98c-3.918-9.687-7.314-19.577-10.173-29.628-2.878-10.045-5.238-20.23-7.073-30.517l87.115-24.98c3.918,9.687,7.314,19.577,10.173,29.628Zm4.909-33.952l57.839-16.585c10.731,18.272,16.664,38.962,17.246,60.144l-57.839,16.585c-1.856-10.282-4.232-20.462-7.119-30.503-2.872-10.045-6.252-19.938-10.127-29.641Zm48.595-30.207l-54.831,15.723c-13.308-28.678-29.816-51.116-46.401-63.782,39.41-.772,76.889,17.034,101.185,48.073l.047-.013Zm-70.061,20.09l-82.979,23.794c-1.989-15.984-2.01-32.152-.063-48.141,1.089-10.04,4.072-19.781,8.792-28.709,2.264-4.736,6.283-8.405,11.206-10.228,5.141-1.062,10.494-.081,14.923,2.736,8.736,5.068,16.431,11.748,22.676,19.685,10.152,12.507,18.702,26.234,25.451,40.861l-.007.002Zm-98.235,28.169l-54.798,15.713c4.174-39.208,26.538-74.172,60.382-94.402-7.352,19.531-9.462,47.307-5.551,78.679l-.033.01Zm-55.418,32.163l57.839-16.585c3.73,20.573,9.507,40.721,17.246,60.144l-57.839,16.585c-10.731-18.272-16.664-38.962-17.246-60.144Zm121.977,94.479c-10.145-12.494-18.692-26.204-25.444-40.812l82.992-23.798c1.992,15.968,2.009,32.122.05,48.094-1.091,10.041-4.077,19.783-8.799,28.711-2.236,4.761-6.251,8.454-11.182,10.287-5.141,1.062-10.494.081-14.923-2.736-8.736-5.069-16.431-11.748-22.676-19.685l-.017-.06Zm-40.657-36.436c13.287,28.684,29.852,51.142,46.407,63.78-39.423.781-76.92-17.019-101.239-48.058l54.831-15.723Zm168.263-48.249c-4.174,39.196-26.523,74.153-60.349,94.392,7.379-19.538,9.429-47.297,5.564-78.683l54.785-15.709Z"/>
      </g>
      <path id="star-green" class="cls-10" d="m209.644,0c-.883,22.13,2.699,44.211,10.531,64.928,9.646,19.937,23.206,37.728,39.874,52.313-22.13-.883-44.211,2.699-64.928,10.531-19.952,9.635-37.759,23.189-52.36,39.855.883-22.13-2.699-44.211-10.531-64.928-9.623-19.941-23.161-37.742-39.808-52.341,22.124.891,44.201-2.681,64.916-10.501,19.933-9.641,37.721-23.196,52.305-39.856Z"/>
      <path id="start-blue" class="cls-11" d="m71.052,124.346c5.813,16.446,14.878,31.554,26.655,44.423,12.875,11.769,27.988,20.825,44.438,26.63-16.446,5.813-31.554,14.878-44.423,26.655-11.783,12.872-20.854,27.985-26.67,44.438-5.813-16.446-14.878-31.554-26.655-44.423-12.86-11.779-27.959-20.849-44.398-26.67,16.444-5.806,31.552-14.862,44.423-26.63,11.767-12.871,20.824-27.978,26.63-44.423Z"/>
    </g>
  </g>
</svg>