<?xml version="1.0" encoding="UTF-8"?>
<svg id="Calque_2" data-name="Calque 2" xmlns="http://www.w3.org/2000/svg" viewBox="0 0 837.892 439.562">
  <defs>
    <style>
      .cls-1 {
        fill: #fac840;
      }

      .cls-2 {
        fill: #fff;
      }

      .cls-3 {
        fill: #ff316f;
      }

      .cls-4 {
        fill: #3e67ed;
      }

      .cls-5 {
        fill: none;
        stroke: #fac840;
        stroke-miterlimit: 4;
        stroke-width: 8.69px;
      }
    </style>
  </defs>
  <g id="Composistions">
    <g id="globle-stars">
      <g id="globe">
        <g id="Ellipse_6" data-name="Ellipse 6">
          <ellipse class="cls-2" cx="471.8" cy="219.781" rx="373.705" ry="206.318" transform="translate(-39.155 120.667) rotate(-14)"/>
          <ellipse class="cls-5" cx="471.8" cy="219.781" rx="369.36" ry="201.973" transform="translate(-39.155 120.667) rotate(-14)"/>
        </g>
        <path id="globe-solid" class="cls-3" d="m529.818,202.806c3.597,12.556,6.548,25.288,8.841,38.146l-108.894,31.225c-4.898-12.109-9.143-24.471-12.717-37.034-3.597-12.556-6.548-25.288-8.841-38.146l108.894-31.225c4.898,12.109,9.143,24.471,12.717,37.034Zm6.137-42.441l72.298-20.731c13.414,22.84,20.83,48.703,21.558,75.18l-72.298,20.731c-2.32-12.852-5.29-25.578-8.899-38.129-3.59-12.557-7.815-24.923-12.658-37.051Zm60.744-37.759l-68.539,19.653c-16.634-35.848-37.27-63.895-58.001-79.728,49.263-.965,96.111,21.292,126.482,60.091l.058-.017Zm-87.577,25.112l-103.724,29.742c-2.486-19.98-2.513-40.19-.079-60.176,1.361-12.549,5.091-24.727,10.99-35.886,2.83-5.92,7.854-10.506,14.007-12.786,6.426-1.328,13.117-.101,18.654,3.42,10.92,6.336,20.538,14.685,28.345,24.607,12.691,15.634,23.378,32.792,31.813,51.076l-.008.002Zm-122.794,35.211l-68.498,19.641c5.218-49.009,33.173-92.714,75.477-118.002-9.191,24.413-11.828,59.133-6.938,98.349l-.042.012Zm-69.273,40.204l72.298-20.731c4.662,25.716,11.884,50.901,21.558,75.18l-72.298,20.731c-13.414-22.84-20.83-48.703-21.558-75.18Zm152.472,118.099c-12.681-15.617-23.365-32.754-31.805-51.015l103.74-29.747c2.49,19.961,2.511,40.152.062,60.118-1.363,12.551-5.096,24.729-10.999,35.888-2.796,5.951-7.814,10.568-13.977,12.858-6.426,1.328-13.117.101-18.654-3.42-10.92-6.336-20.538-14.685-28.345-24.607l-.022-.075Zm-50.821-45.545c16.609,35.855,37.315,63.927,58.009,79.726-49.279.976-96.15-21.274-126.549-60.072l68.539-19.653Zm210.329-60.311c-5.218,48.995-33.154,92.691-75.436,117.99,9.224-24.423,11.786-59.121,6.955-98.354l68.481-19.637Z"/>
      </g>
      <path id="start-blue" class="cls-4" d="m52.853,114.676c21.618,20.494,47.141,36.427,75.047,46.848,28.723,7.895,58.742,9.927,88.267,5.974-20.494,21.618-36.427,47.141-46.848,75.047-7.92,28.729-9.972,58.759-6.035,88.298-21.618-20.494-47.14-36.427-75.047-46.848-28.708-7.922-58.716-9.985-88.237-6.066,20.497-21.605,36.436-47.114,46.868-75.009,7.896-28.715,9.931-58.726,5.985-88.244Z"/>
      <path id="star-yellow" class="cls-1" d="m112.741,228.635c11.617,18.856,26.911,35.181,44.971,48.001,19.13,11.161,40.311,18.357,62.281,21.158-18.856,11.617-35.181,26.911-48.001,44.971-11.18,19.129-18.393,40.314-21.208,62.291-11.617-18.856-26.911-35.181-44.971-48.001-19.113-11.177-40.281-18.394-62.242-21.219,18.856-11.607,35.183-26.891,48.008-44.94,11.16-19.124,18.357-40.298,21.162-62.262Z"/>
    </g>
  </g>
</svg>