<?xml version="1.0" encoding="UTF-8"?>
<svg id="Calque_2" data-name="Calque 2" xmlns="http://www.w3.org/2000/svg" viewBox="0 0 1318.496 492.395">
  <defs>
    <style>
      .cls-1 {
        fill: #fac840;
      }

      .cls-2 {
        fill: #fff;
      }

      .cls-3 {
        fill: #ff316f;
      }

      .cls-4 {
        fill: #3e67ed;
      }

      .cls-5 {
        fill: none;
        stroke: #fac840;
        stroke-miterlimit: 4;
        stroke-width: 7.083px;
      }
    </style>
  </defs>
  <g id="Composistions">
    <g id="globe-star-ecto">
      <g id="globe">
        <g id="Ellipse_6" data-name="Ellipse 6">
          <ellipse class="cls-2" cx="471.8" cy="203.975" rx="304.602" ry="168.167" transform="translate(-35.332 120.198) rotate(-14)"/>
          <ellipse class="cls-5" cx="471.8" cy="203.975" rx="301.06" ry="164.626" transform="translate(-35.332 120.198) rotate(-14)"/>
        </g>
        <path id="globe-solid" class="cls-3" d="m519.09,190.138c2.932,10.234,5.337,20.612,7.206,31.092l-88.758,25.451c-3.992-9.87-7.452-19.946-10.365-30.186-2.932-10.234-5.337-20.612-7.206-31.092l88.758-25.451c3.992,9.87,7.452,19.946,10.365,30.186Zm5.002-34.593l58.929-16.898c10.934,18.616,16.979,39.697,17.571,61.278l-58.929,16.898c-1.891-10.476-4.312-20.848-7.254-31.079-2.926-10.235-6.37-20.314-10.318-30.2Zm49.512-30.777l-55.866,16.019c-13.559-29.219-30.378-52.08-47.276-64.985,40.153-.787,78.339,17.355,103.094,48.98l.048-.014Zm-71.383,20.469l-84.544,24.243c-2.026-16.285-2.048-32.758-.064-49.049,1.109-10.229,4.149-20.154,8.958-29.25,2.307-4.826,6.402-8.563,11.417-10.421,5.238-1.082,10.691-.082,15.205,2.788,8.901,5.164,16.741,11.97,23.104,20.057,10.344,12.743,19.055,26.729,25.931,41.632l-.007.002Zm-100.088,28.7l-55.831,16.009c4.253-39.947,27.039-75.57,61.521-96.182-7.491,19.899-9.641,48.199-5.655,80.163l-.034.01Zm-56.464,32.77l58.929-16.898c3.8,20.961,9.686,41.489,17.571,61.278l-58.929,16.898c-10.934-18.616-16.978-39.697-17.571-61.278Zm124.278,96.261c-10.336-12.729-19.044-26.698-25.924-41.582l84.557-24.246c2.03,16.27,2.047,32.727.051,49.001-1.111,10.23-4.153,20.156-8.965,29.252-2.279,4.851-6.369,8.614-11.393,10.481-5.238,1.082-10.691.082-15.205-2.788-8.901-5.164-16.741-11.97-23.104-20.057l-.018-.061Zm-41.423-37.123c13.538,29.225,30.415,52.106,47.283,64.983-40.167.795-78.371-17.34-103.148-48.964l55.866-16.019Zm171.437-49.159c-4.253,39.935-27.024,75.552-61.487,96.172,7.518-19.907,9.607-48.189,5.669-80.167l55.818-16.006Z"/>
      </g>
      <path id="start-blue" class="cls-4" d="m52.853,0c21.618,20.494,47.141,36.427,75.047,46.848,28.723,7.895,58.742,9.927,88.267,5.974-20.494,21.618-36.427,47.141-46.848,75.047-7.92,28.729-9.972,58.759-6.035,88.298-21.618-20.494-47.14-36.427-75.047-46.848-28.708-7.922-58.716-9.985-88.237-6.066,20.497-21.605,36.436-47.114,46.868-75.009,7.896-28.715,9.931-58.726,5.985-88.244Z"/>
      <path id="star-yellow" class="cls-1" d="m110.387,274.034c11.617,18.856,26.911,35.181,44.971,48.001,19.13,11.161,40.311,18.357,62.281,21.158-18.856,11.617-35.181,26.911-48.001,44.971-11.18,19.129-18.393,40.314-21.208,62.291-11.617-18.856-26.911-35.181-44.971-48.001-19.113-11.177-40.281-18.394-62.242-21.219,18.856-11.607,35.183-26.891,48.008-44.94,11.16-19.124,18.357-40.298,21.162-62.262Z"/>
      <g id="ecto">
        <rect class="cls-2" x="592.363" y="229.2" width="719.549" height="226.41" rx="37.654" ry="37.654" transform="translate(-33.237 112.525) rotate(-6.648)"/>
        <g>
          <path class="cls-4" d="m769.869,346.752l-86.04,7.58,1.154,9.904,63.011-9.792,2.534,21.741-63.574,4.961,1.211,10.387,90.567-14.963,8.249,70.781-145.67,16.977-19.709-169.103,140.355-16.358,7.911,67.882Z"/>
          <path class="cls-4" d="m892.487,438.73c-29.955,3.491-54.469-.956-73.543-13.344-19.072-12.385-30.345-33.474-33.818-63.272-3.491-29.955,2.694-53.203,18.56-69.743,15.863-16.54,38.856-26.566,68.972-30.076,19.968-2.327,38.772-2.07,56.407.772l4.83,79.261c-6.192-2.707-14.121-4.556-23.786-5.553-9.665-.993-19.25-.94-28.751.167-28.506,3.322-42.242,9.415-41.21,18.27.619,5.314,4.941,8.445,12.97,9.384,8.026.943,19.688.522,34.989-1.262,10.146-1.182,20.189-3.577,30.138-7.186,9.943-3.608,17.759-7.617,23.45-12.038l9.802,79.905c-16.31,7.123-35.98,12.029-59.01,14.713Z"/>
          <path class="cls-4" d="m1089.532,240.692l9.424,74.562-52.945,3.721,22.885,95.521-64.741,7.545.063-98.195-52.14,8.526-8.217-74.703,145.67-16.977Z"/>
          <path class="cls-4" d="m1265.918,371.701c-14.304,17.338-34.583,27.537-60.832,30.596-26.252,3.06-48.332-2.203-66.237-15.787-17.908-13.585-28.493-34.387-31.759-62.41s2.219-50.614,16.463-67.785c14.241-17.165,34.566-27.29,60.98-30.369,26.411-3.078,48.52,2.101,66.33,15.531,17.806,13.436,28.344,34.16,31.61,62.183,3.266,28.023-2.255,50.703-16.555,68.041Zm-93.134-42.769c6.137,2.222,14.115,2.761,23.939,1.616,9.822-1.145,17.466-3.504,22.926-7.078,5.461-3.575,7.89-7.937,7.289-13.093-.6-5.152-3.968-8.842-10.105-11.066-6.135-2.222-14.118-2.761-23.939-1.616-9.824,1.145-17.465,3.504-22.926,7.078-5.46,3.575-7.888,7.941-7.288,13.093.601,5.156,3.968,8.842,10.103,11.066Z"/>
        </g>
      </g>
    </g>
  </g>
</svg>