<?xml version="1.0" encoding="UTF-8"?>
<svg id="Calque_2" data-name="Calque 2" xmlns="http://www.w3.org/2000/svg" xmlns:xlink="http://www.w3.org/1999/xlink" viewBox="0 0 2231.638 1048.024">
  <defs>
    <style>
      .cls-1, .cls-2, .cls-3 {
        fill: none;
      }

      .cls-2 {
        clip-path: url(#clippath-1);
      }

      .cls-4 {
        fill: #fff;
      }

      .cls-5 {
        fill: #ffba28;
      }

      .cls-6 {
        fill: #9bdd50;
      }

      .cls-7 {
        fill: #3e67ed;
      }

      .cls-3 {
        clip-path: url(#clippath);
      }
    </style>
    <clipPath id="clippath">
      <rect class="cls-1" x="34.738" y="216.57" width="2162.163" height="702.321" transform="translate(-60.872 140.216) rotate(-7)"/>
    </clipPath>
    <clipPath id="clippath-1">
      <rect class="cls-1" x="156.718" y="338.28" width="2031.195" height="659.78" transform="translate(-12.554 22.523) rotate(-1.095)"/>
    </clipPath>
  </defs>
  <g id="Composistions">
    <g id="cicle-star">
      <g class="cls-3">
        <g id="Groupe_53" data-name="Groupe 53">
          <path id="Tracé_40" data-name="Tracé 40" class="cls-5" d="m2151.88,140.107c-10.189-23.827-79.255-20.622-190.014,4.534-1.31-1.392-2.296-3.056-2.888-4.873-2.271-9.477-3.478-19.177-3.599-28.921.595,10.043.163,20.121-1.289,30.076-.479,2.145-1.296,4.199-2.421,6.087-199.111,46.626-525.383,160.622-885.532,314.429C494.88,705.439,54.797,957.15,83.234,1023.664c28.437,66.514,514.457-77.425,1085.765-321.406,571.308-243.981,1011.322-495.668,982.88-562.158m-13.693,30.989c-14.727,17.792-31.495,33.79-49.959,47.664-45.822,36.518-114.646,81.041-204.806,132.627-90.159,51.586-196.995,107.532-317.583,166.181-124.829,60.683-258.831,121.691-398.421,181.303-139.591,59.612-276.302,114.292-406.432,162.445-125.618,46.45-239.981,85.032-339.566,114.487-99.586,29.456-179.409,48.39-237.434,56.291-22.791,3.763-45.945,4.838-68.986,3.203-15.874-1.813-25.399-6.228-28.356-13.089-2.957-6.861.478-16.748,10.126-29.521,14.756-17.794,31.55-33.795,50.037-47.673,45.814-36.517,114.707-81.127,204.874-132.714,90.167-51.587,197-107.43,317.464-166.056,124.821-60.753,258.814-121.761,398.404-181.38s276.349-114.226,406.471-162.449c125.618-46.45,239.981-85.032,339.488-114.478,50.44-14.97,95.911-27.191,136.007-36.613,2.581,1.214,4.487,3.515,5.199,6.277,2.26,9.506,3.454,19.234,3.561,29.005-.61-10.074-.154-20.185,1.358-30.163.637-3.229,2.24-6.189,4.598-8.486,32.877-7.485,61.816-12.921,86.816-16.307,22.793-3.775,45.955-4.824,68.996-3.125,15.882,1.812,25.41,6.187,28.364,13.088,2.954,6.901-.478,16.748-10.203,29.539"/>
        </g>
      </g>
    </g>
    <g id="cicle-star-2" data-name="cicle-star">
      <g class="cls-2">
        <g id="Groupe_53-2" data-name="Groupe 53">
          <path id="Tracé_40-2" data-name="Tracé 40" class="cls-5" d="m2181.785,368.715c-7.218-23.249-72.066-26.93-177.995-14.128-1.09-1.427-1.85-3.077-2.227-4.833-1.206-9.075-1.396-18.256-.568-27.373-.415,9.442-1.792,18.817-4.112,27.979-.655,1.958-1.617,3.799-2.851,5.454-190.564,24.326-506.464,99.314-857.868,208.23-557.39,172.791-992.949,365.467-972.805,430.369,20.144,64.902,488.214-22.628,1045.649-195.398,557.435-172.77,992.928-365.43,972.777-430.31m-15.79,27.634c-15.481,15.202-32.696,28.53-51.29,39.711-46.348,29.695-114.963,64.647-204.197,104.138-89.234,39.49-194.474,81.443-312.824,124.593-122.511,44.64-253.624,88.698-389.825,130.91-136.201,42.212-269.234,80.095-395.488,112.514-121.873,31.264-232.466,56.263-328.37,74.163-95.904,17.9-172.324,27.878-227.309,29.652-21.661,1.314-43.4.081-64.773-3.674-14.659-3.229-23.132-8.275-25.232-14.971-2.1-6.697,2.066-15.604,12.315-26.607,15.509-15.201,32.748-28.53,51.364-39.712,46.34-29.695,115.028-64.722,204.27-104.213,89.242-39.49,194.468-81.347,312.701-124.487,122.509-44.706,253.615-88.764,389.816-130.984,136.201-42.22,269.273-80.029,395.524-112.515,121.872-31.264,232.467-56.263,328.297-74.162,48.58-9.113,92.251-16.138,130.629-21.068,2.295,1.384,3.853,3.718,4.251,6.368,1.193,9.101,1.369,18.307.525,27.448.404-9.473,1.807-18.876,4.184-28.055.907-2.956,2.691-5.567,5.117-7.485,31.445-3.817,59.012-6.099,82.7-6.848,21.664-1.325,43.409-.066,64.775,3.748,14.666,3.229,23.146,8.237,25.24,14.971,2.094,6.734-2.066,15.604-12.389,26.616"/>
        </g>
      </g>
    </g>
    <g id="locales">
      <g>
        <path class="cls-6" d="m1833.048,198.772l-11.235,155.7c-.403,5.588-5.295,9.822-10.869,9.419l-961.044-69.347c-5.588-.403-9.822-5.295-9.418-10.883l15.6-216.187c.402-5.573,5.295-9.822,10.883-9.418l861.499,62.164,104.585,78.552Z"/>
        <path class="cls-4" d="m1833.048,198.772l-11.235,155.7c-.403,5.588-5.295,9.822-10.869,9.419l-961.044-69.347c-5.588-.403-9.822-5.295-9.418-10.883l15.6-216.187c.402-5.573,5.295-9.822,10.883-9.418l861.499,62.164-85.515-64.229L871.133.298c-37.441-2.702-70.107,25.567-72.809,63.008l-15.6,216.187c-2.702,37.441,25.567,70.107,63.008,72.809l961.044,69.347c37.441,2.702,70.093-25.568,72.794-63.009l8.55-118.49-55.073-41.378Z"/>
      </g>
      <g>
        <path class="cls-7" d="m958.626,202.134l74.001,1.09-6.495,90.004-121.481-8.766,15.256-211.421,53.095,3.831-14.376,125.262Z"/>
        <path class="cls-7" d="m1167.432,278.832c-15.555,18.309-34.872,26.63-57.948,24.965-23.08-1.665-41.002-12.674-53.763-33.026-12.765-20.351-17.882-48.045-15.354-83.081,2.528-35.035,11.524-61.606,26.994-79.721,15.467-18.111,34.81-26.33,58.032-24.655,23.219,1.675,41.182,12.587,53.891,32.731,12.706,20.148,17.797,47.735,15.269,82.77-2.528,35.036-11.571,61.707-27.122,80.016Zm-71.684-71.661c4.836,3.992,11.571,6.3,20.209,6.923s15.635-.694,20.993-3.95c5.358-3.257,8.27-8.103,8.735-14.55s-1.721-11.661-6.556-15.653c-4.835-3.992-11.574-6.3-20.209-6.923s-15.634.693-20.993,3.95c-5.358,3.256-8.27,8.108-8.735,14.55s1.721,11.661,6.556,15.653Z"/>
        <path class="cls-7" d="m1279.598,316.072c-26.335-1.9-46.498-12.411-60.489-31.537-13.991-19.122-19.642-47.309-16.954-84.563,2.702-37.452,12.423-64.681,29.165-81.69,16.738-17.008,38.348-24.557,64.826-22.646,17.554,1.267,33.619,5.462,48.193,12.585l-10.928,98.186c-4.792-4.596-11.235-8.5-19.329-11.717-8.094-3.212-16.319-5.124-24.671-5.727-25.061-1.808-37.991,2.828-38.79,13.899-.479,6.645,2.628,11.376,9.33,14.184,6.699,2.813,16.773,4.702,30.226,5.673,8.92.644,17.982-.221,27.193-2.592,9.207-2.372,16.668-5.676,22.385-9.921l-6.789,100.002c-15.331,5.369-33.122,7.325-53.367,5.864Z"/>
        <path class="cls-7" d="m1410.066,277.213l-7.173,43.201-66.9-4.827,65.802-207.774,60.316,4.352,35.291,215.068-66.475-4.797-.897-43.784-19.963-1.441Zm18.066-87.651l-3.611-.261-10.038,65.157,14.017,1.011-.368-65.908Z"/>
        <path class="cls-7" d="m1554.772,245.151l74.001,1.09-6.495,90.004-121.481-8.766,15.256-211.421,53.095,3.831-14.376,125.262Z"/>
        <path class="cls-7" d="m1764.572,219.303l-75.177-8.46-.894,12.383,55.862.995-1.961,27.183-55.426-7.036-.937,12.987,80.46.341-6.386,88.495-128.065-9.241,15.256-211.421,96.744,6.981,20.525,86.793Z"/>
      </g>
      <path class="cls-4" d="m1796.258,274.138l91.865-33.99-55.083-41.364-104.58-78.558-85.511-64.235,65.834,177.932c13.026,35.206,52.269,53.241,87.475,40.215Z"/>
      <line class="cls-1" x1="2064.921" y1="372.944" x2="1888.121" y2="240.15"/>
      <line class="cls-1" x1="1642.948" y1="55.991" x2="1568.406"/>
    </g>
  </g>
</svg>