<?xml version="1.0" encoding="UTF-8"?>
<svg id="Calque_2" data-name="Calque 2" xmlns="http://www.w3.org/2000/svg" xmlns:xlink="http://www.w3.org/1999/xlink" viewBox="0 0 710.413 828.196">
  <defs>
    <style>
      .cls-1, .cls-2, .cls-3 {
        fill: none;
      }

      .cls-4 {
        fill: #020202;
      }

      .cls-5, .cls-6 {
        fill: #ffe45e;
      }

      .cls-7, .cls-8 {
        fill: #fff;
      }

      .cls-9 {
        fill: #ff97e4;
      }

      .cls-6, .cls-8, .cls-2 {
        stroke-miterlimit: 10;
      }

      .cls-6, .cls-2 {
        stroke: #000;
        stroke-linecap: round;
        stroke-width: 2.412px;
      }

      .cls-8 {
        stroke: #fff;
      }

      .cls-3 {
        clip-path: url(#clippath);
      }
    </style>
    <clipPath id="clippath">
      <path class="cls-1" d="m432.739,238.87c52.31-7.875,71.127-43.517,97.157-36.112,15.61,4.44,25.799,22.081,26.747,36.178,2.647,39.366-64.888,79.038-125.602,88.578-72.089,11.327-163.996-15.201-183.556-66.17-8.398-21.884-4.849-51.896,12.049-59.79,20.85-9.739,45.856,21.749,114.767,33.813,22.054,3.861,37.776,6.613,58.439,3.502Z"/>
    </clipPath>
  </defs>
  <g id="Composistions">
    <g id="slice-star">
      <g id="slice">
        <g>
          <path class="cls-5" d="m321.449,555.943c-56.167-.003-112.684-12.774-163.439-36.932-51.864-24.686-98.061-61.493-133.594-106.444l-7.478-9.46,297.636-235.282L662.22,15.879l4.829,11.049c20.289,46.419,30.816,95.623,31.289,146.245.455,48.824-8.413,96.811-26.36,142.628s-44.032,87.06-77.528,122.585c-34.73,36.832-75.876,65.795-122.296,86.083-47.779,20.883-98.483,31.474-150.685,31.474h-.02Z"/>
          <path class="cls-7" d="m656,31.757c80.364,183.869-4.807,401.299-188.676,481.663-47.058,20.568-96.694,30.464-145.874,30.464-109.499,0-216.665-49.094-287.574-138.795l286.955-226.838L656,31.757m12.44-31.757l-22.099,9.659-335.169,146.494-2.854,1.248-2.443,1.931L18.92,386.169l-18.92,14.956,14.956,18.92c18.598,23.527,39.927,44.884,63.393,63.477,22.924,18.164,47.982,33.768,74.478,46.379,26.183,12.462,53.821,22.029,82.148,28.434,28.366,6.414,57.461,9.667,86.476,9.667,53.89,0,106.219-10.929,155.533-32.483,47.916-20.943,90.389-50.84,126.24-88.86,34.56-36.652,61.47-79.199,79.982-126.459,18.513-47.26,27.661-96.765,27.19-147.139-.488-52.255-11.354-103.045-32.297-150.962l-9.659-22.099h0Z"/>
        </g>
        <g>
          <g>
            <path id="Tracé_46" data-name="Tracé 46" class="cls-7" d="m465.884,69.151c20.378,2.15,33.421,36.959,29.118,77.731-4.303,40.772-24.324,72.092-44.702,69.941-20.378-2.15-33.439-36.944-29.134-77.733.539-5.107,20.562-9.04,20.562-9.04,0,0-15.569-16.447-13.71-22.134,7.477-23.166,22.562-40.381,37.866-38.766Z"/>
            <path id="Tracé_46-2" data-name="Tracé 46" class="cls-4" d="m465.884,69.153c20.378,2.15,10.929,33.064,6.627,73.836-4.303,40.772-1.832,75.987-22.21,73.837-20.378-2.15-33.439-36.944-29.134-77.733.539-5.107,20.562-9.04,20.562-9.04,0,0-15.569-16.447-13.71-22.134,7.477-23.166,22.562-40.381,37.866-38.766Z"/>
          </g>
          <g>
            <path id="Tracé_43" data-name="Tracé 43" class="cls-7" d="m376.556,69.151c20.378,2.15,33.421,36.959,29.118,77.731-4.303,40.772-24.324,72.092-44.702,69.941-20.378-2.15-33.439-36.944-29.134-77.733.539-5.107,20.562-9.04,20.562-9.04,0,0-15.569-16.447-13.71-22.134,7.477-23.166,22.562-40.381,37.866-38.766Z"/>
            <path id="Tracé_46-3" data-name="Tracé 46" class="cls-4" d="m376.556,69.159c20.378,2.15,10.929,33.064,6.627,73.836-4.303,40.772-1.832,75.987-22.21,73.837-20.378-2.15-33.439-36.944-29.134-77.733.539-5.107,20.562-9.04,20.562-9.04,0,0-15.569-16.447-13.71-22.134,7.477-23.166,22.562-40.381,37.866-38.766Z"/>
          </g>
          <path class="cls-9" d="m501.519,169.776c-1.553,7.382,15.804,9.378,36.709,11.751,21.614,2.453,38.821,11.851,40.375,4.469,1.553-7.382-14.443-16.997-35.729-21.477-21.286-4.479-39.801-2.126-41.355,5.256Z"/>
          <path class="cls-9" d="m216.988,219.582c.307,10.774,13.061-2.82,28.561-17.609,15.738-15.016,46.983-13.284,42.995-19.687-3.988-6.403-34.004-10.594-52.467.907-18.464,11.5-19.303,28.848-19.088,36.389Z"/>
          <path id="nez" class="cls-6" d="m418.356,196.425c-18.235-21.792-39.98-29.405-53.145-20.625-1.111.741-8.419,5.772-9.302,13.982-1.955,18.163,28.499,42.874,51.928,36.343,4.413-1.23,7.728-3.332,9.579-4.656"/>
          <path class="cls-2" d="m576.565,216.98c-2.779-4.482-14.006-21.419-36.655-28.494-20.643-6.448-37.94-.696-43.216,1.289"/>
          <path class="cls-2" d="m234.384,248.516c1.166-7.17,6.233-34.295,24.629-46.435,16.766-11.065,34.181-2.803,39.562.08"/>
          <path class="cls-4" d="m432.739,238.87c52.31-7.875,71.127-43.517,97.157-36.112,15.61,4.44,25.799,22.081,26.747,36.178,2.647,39.366-64.888,79.038-125.602,88.578-72.089,11.327-122.228-6.256-156.01-46.18-15.141-17.894-23.34-49.137-9.827-64.407,15.25-17.234,40.185,6.376,109.097,18.44,22.054,3.861,37.776,6.613,58.439,3.502Z"/>
          <g class="cls-3">
            <path class="cls-9" d="m501.887,287.387c-24.07-12.943-27.012-33.556-40.962-34.49-8.366-.56-16.394,6.245-19.311,12.936-8.146,18.685-8.593,39.85,19.274,55.067,33.088,18.068,137.422,31.614,155.814,10.232,7.897-9.18,41.124-26.127,34.281-32.91-8.444-8.369-84.444,3.779-120.062-2.358-11.399-1.964-19.525-3.365-29.032-8.477Z"/>
          </g>
        </g>
      </g>
      <path id="star" class="cls-8" d="m370.681,343.862c-23.227,54.635-57.215,104.035-99.939,145.256-46.225,37.253-99.476,64.819-156.58,81.054,54.635,23.227,104.035,57.215,145.256,99.939,37.302,46.216,64.915,99.471,81.19,156.588,23.227-54.635,57.215-104.035,99.939-145.256,46.174-37.289,99.382-64.904,156.452-81.199-54.63-23.201-104.031-57.16-145.261-99.854-37.248-46.209-64.814-99.442-81.057-156.529Z"/>
    </g>
  </g>
</svg>